<svg width="102" height="102" viewBox="0 0 102 102" fill="none" xmlns="http://www.w3.org/2000/svg">
<path d="M102 78.0096H0V78.0606H102V78.0096Z" fill="#EBEBEB"/>
<path d="M91.7797 81.292H85.0232V81.343H91.7797V81.292Z" fill="#EBEBEB"/>
<path d="M60.225 79.715H54.6436V79.766H60.225V79.715Z" fill="#EBEBEB"/>
<path d="M84.8191 79.3988H80.9043V79.4498H84.8191V79.3988Z" fill="#EBEBEB"/>
<path d="M14.2005 79.7416H10.7019V79.7926H14.2005V79.7416Z" fill="#EBEBEB"/>
<path d="M22.6216 79.7416H16.0161V79.7926H22.6216V79.7416Z" fill="#EBEBEB"/>
<path d="M45.9307 80.6024H33.6152V80.6534H45.9307V80.6024Z" fill="#EBEBEB"/>
<path d="M48.3481 68.9112H8.95772C8.64914 68.9107 8.35338 68.7877 8.13537 68.5693C7.91737 68.3509 7.79492 68.0549 7.79492 67.7464V12.3746C7.79761 12.0678 7.92124 11.7745 8.13896 11.5583C8.35668 11.3421 8.6509 11.2205 8.95772 11.22H48.3481C48.657 11.22 48.9533 11.3427 49.1718 11.5612C49.3902 11.7796 49.5129 12.0759 49.5129 12.3848V67.7464C49.5129 68.0553 49.3902 68.3516 49.1718 68.57C48.9533 68.7885 48.657 68.9112 48.3481 68.9112ZM8.95772 11.2608C8.66267 11.2613 8.37988 11.3789 8.17144 11.5878C7.96299 11.7966 7.84592 12.0796 7.84592 12.3746V67.7464C7.84592 68.0414 7.96299 68.3244 8.17144 68.5332C8.37988 68.7421 8.66267 68.8597 8.95772 68.8602H48.3481C48.6433 68.8597 48.9263 68.7421 49.1351 68.5334C49.3439 68.3246 49.4614 68.0416 49.4619 67.7464V12.3746C49.4614 12.0794 49.3439 11.7964 49.1351 11.5876C48.9263 11.3789 48.6433 11.2613 48.3481 11.2608H8.95772Z" fill="#EBEBEB"/>
<path d="M92.4752 68.9112H53.0828C52.774 68.9107 52.4781 68.7878 52.2597 68.5694C52.0414 68.3511 51.9185 68.0551 51.918 67.7464V12.3746C51.9212 12.0676 52.0453 11.7743 52.2633 11.5582C52.4814 11.342 52.7758 11.2205 53.0828 11.22H92.4752C92.7817 11.2211 93.0754 11.3429 93.2927 11.559C93.5099 11.7751 93.6333 12.0682 93.636 12.3746V67.7464C93.636 68.0546 93.5138 68.3503 93.2962 68.5686C93.0787 68.7869 92.7834 68.9101 92.4752 68.9112ZM53.0828 11.2608C52.7876 11.2613 52.5046 11.3789 52.2958 11.5876C52.087 11.7964 51.9695 12.0794 51.969 12.3746V67.7464C51.9695 68.0416 52.087 68.3246 52.2958 68.5334C52.5046 68.7421 52.7876 68.8597 53.0828 68.8602H92.4752C92.7705 68.8597 93.0534 68.7421 93.2622 68.5334C93.471 68.3246 93.5885 68.0416 93.589 67.7464V12.3746C93.5885 12.0794 93.471 11.7964 93.2622 11.5876C93.0534 11.3789 92.7705 11.2613 92.4752 11.2608H53.0828Z" fill="#EBEBEB"/>
<path d="M90.2598 78.0096V16.6709H61.3081V78.0096H90.2598Z" fill="#FAFAFA"/>
<path d="M61.3081 78.0096L61.3081 16.6709H61.2L61.2 78.0096H61.3081Z" fill="#F0F0F0"/>
<path d="M87.0345 18.6844H63.4011V78.0096H87.0345V18.6844Z" fill="#E6E6E6"/>
<path d="M88.3013 18.6844H63.9927V78.0096H88.3013V18.6844Z" fill="#F0F0F0"/>
<path d="M86.5286 48.8417V49.5883L87.2752 48.8417H86.5286Z" fill="#E0E0E0"/>
<path d="M86.5286 76.2389V20.4571H65.7634V76.2389H86.5286Z" fill="#EBEBEB"/>
<path d="M86.5308 76.2389V20.4571H86.3064V76.2389H86.5308Z" fill="#E6E6E6"/>
<path d="M82.6688 48.5357C82.5906 48.531 82.5121 48.5424 82.4384 48.5692C82.3647 48.5959 82.2972 48.6374 82.2401 48.6912C82.183 48.745 82.1375 48.8099 82.1065 48.8819C82.0754 48.9539 82.0593 49.0315 82.0593 49.1099C82.0593 49.1884 82.0754 49.266 82.1065 49.338C82.1375 49.41 82.183 49.4749 82.2401 49.5287C82.2972 49.5824 82.3647 49.624 82.4384 49.6507C82.5121 49.6775 82.5906 49.6889 82.6688 49.6842H86.3041L86.5285 49.5883V48.5357H82.6688Z" fill="#E0E0E0"/>
<path d="M87.0796 48.9212H83.4361C83.3607 48.9215 83.2859 48.9069 83.2161 48.8782C83.1463 48.8495 83.0829 48.8073 83.0295 48.7541C82.976 48.7008 82.9336 48.6375 82.9047 48.5678C82.8757 48.4982 82.8608 48.4235 82.8608 48.348C82.8608 48.1954 82.9214 48.0491 83.0293 47.9412C83.1372 47.8333 83.2835 47.7727 83.4361 47.7727H87.0714C87.1469 47.7727 87.2216 47.7876 87.2912 47.8166C87.3609 47.8455 87.4242 47.8879 87.4775 47.9413C87.5307 47.9948 87.5729 48.0582 87.6016 48.128C87.6303 48.1978 87.6449 48.2726 87.6446 48.348C87.6447 48.4986 87.5854 48.6432 87.4796 48.7505C87.3739 48.8578 87.2302 48.9191 87.0796 48.9212Z" fill="#F5F5F5"/>
<path d="M12.036 39.78H55.1086C55.1567 39.7796 55.2029 39.7612 55.238 39.7283C55.2732 39.6954 55.2947 39.6505 55.2983 39.6025L56.5223 15.9018C56.524 15.8786 56.5208 15.8554 56.5131 15.8335C56.5053 15.8117 56.4931 15.7916 56.4771 15.7748C56.4612 15.7579 56.4419 15.7445 56.4206 15.7355C56.3992 15.7264 56.3762 15.7219 56.3529 15.7223H13.2783C13.2303 15.7232 13.1843 15.7422 13.1495 15.7754C13.1147 15.8087 13.0937 15.8538 13.0907 15.9018L11.8667 39.6025C11.8649 39.6256 11.8681 39.6487 11.8759 39.6705C11.8837 39.6923 11.8959 39.7122 11.9119 39.7289C11.9279 39.7456 11.9471 39.7588 11.9685 39.7676C11.9899 39.7764 12.0129 39.7806 12.036 39.78Z" fill="#E0E0E0"/>
<path d="M12.24 39.78H55.3106C55.3583 39.7791 55.404 39.7604 55.4388 39.7276C55.4735 39.6948 55.4947 39.6502 55.4982 39.6025L56.7222 15.9018C56.7239 15.8786 56.7208 15.8554 56.713 15.8335C56.7053 15.8117 56.693 15.7916 56.6771 15.7748C56.6612 15.7579 56.6419 15.7445 56.6205 15.7355C56.5991 15.7264 56.5761 15.7219 56.5529 15.7223H13.4783C13.4302 15.7232 13.3842 15.7422 13.3495 15.7754C13.3147 15.8087 13.2937 15.8538 13.2906 15.9018L12.0666 39.6025C12.0649 39.6259 12.0681 39.6494 12.0761 39.6715C12.0842 39.6936 12.0968 39.7137 12.1132 39.7305C12.1296 39.7473 12.1494 39.7604 12.1713 39.7689C12.1931 39.7774 12.2166 39.7812 12.24 39.78Z" fill="#F0F0F0"/>
<path d="M13.464 39.2761C13.4604 39.3277 13.4373 39.376 13.3994 39.4112C13.3616 39.4464 13.3117 39.466 13.26 39.4658C13.2355 39.4662 13.2111 39.4614 13.1885 39.4519C13.1659 39.4423 13.1455 39.4282 13.1286 39.4104C13.1118 39.3925 13.0988 39.3714 13.0905 39.3483C13.0822 39.3252 13.0788 39.3006 13.0805 39.2761C13.0841 39.2245 13.1072 39.1762 13.1451 39.141C13.1829 39.1058 13.2328 39.0863 13.2845 39.0864C13.309 39.0861 13.3334 39.0908 13.356 39.1004C13.3786 39.1099 13.399 39.124 13.4159 39.1419C13.4328 39.1597 13.4457 39.1808 13.454 39.2039C13.4623 39.2271 13.4657 39.2516 13.464 39.2761Z" fill="#E0E0E0"/>
<path d="M14.3433 39.2761C14.3397 39.3277 14.3166 39.376 14.2787 39.4112C14.2408 39.4464 14.191 39.466 14.1393 39.4658C14.1148 39.4659 14.0906 39.4609 14.0681 39.4513C14.0457 39.4416 14.0254 39.4275 14.0086 39.4097C13.9918 39.3919 13.9788 39.3709 13.9704 39.348C13.962 39.325 13.9584 39.3005 13.9598 39.2761C13.9634 39.2245 13.9865 39.1762 14.0243 39.141C14.0622 39.1058 14.112 39.0863 14.1638 39.0864C14.1883 39.0861 14.2127 39.0908 14.2353 39.1004C14.2579 39.1099 14.2783 39.124 14.2951 39.1419C14.312 39.1597 14.325 39.1808 14.3333 39.2039C14.3416 39.2271 14.345 39.2516 14.3433 39.2761Z" fill="white"/>
<path d="M54.5638 38.4724L55.6735 17.0524C55.6761 17.0105 55.6699 16.9685 55.6556 16.9291C55.6412 16.8897 55.6189 16.8537 55.59 16.8233C55.5611 16.7929 55.5263 16.7687 55.4876 16.7523C55.449 16.7359 55.4074 16.7277 55.3655 16.728H14.5655C14.4783 16.7294 14.3949 16.7635 14.3318 16.8236C14.2686 16.8837 14.2304 16.9654 14.2248 17.0524L13.1151 38.4724C13.1125 38.5141 13.1186 38.556 13.133 38.5953C13.1474 38.6346 13.1698 38.6705 13.1987 38.7008C13.2276 38.731 13.2625 38.755 13.3011 38.7712C13.3397 38.7873 13.3812 38.7953 13.4231 38.7947H54.2231C54.3099 38.7934 54.3931 38.7595 54.4562 38.6998C54.5193 38.6402 54.5577 38.559 54.5638 38.4724Z" fill="#E0E0E0"/>
<path d="M31.0386 38.7947L35.141 16.7239H25.1879L21.0854 38.7947H31.0386Z" fill="#E6E6E6"/>
<path d="M37.7584 38.7947L41.8608 16.7239H36.8832L32.7808 38.7947H37.7584Z" fill="#E6E6E6"/>
<path d="M51.512 51.6528H42.4238V78.0096H51.512V51.6528Z" fill="#E6E6E6"/>
<path d="M49.7863 78.0096H51.5121V76.0226H47.9768L49.7863 78.0096Z" fill="#F0F0F0"/>
<path d="M17.544 51.6528H11.9197V78.0096H17.544V51.6528Z" fill="#E6E6E6"/>
<path d="M16.979 49.8433H10.9426V51.6528H16.979V49.8433Z" fill="#E0E0E0"/>
<path d="M51.5142 51.6528H16.0386V77.4874H51.5142V51.6528Z" fill="#F0F0F0"/>
<path d="M52.4891 49.8433H15.406V51.6528H52.4891V49.8433Z" fill="#F5F5F5"/>
<path d="M34.3557 64.1907V72.0936C34.3557 72.4575 34.6507 72.7525 35.0146 72.7525H49.515C49.8789 72.7525 50.1739 72.4575 50.1739 72.0936V64.1907C50.1739 63.8267 49.8789 63.5317 49.515 63.5317H35.0146C34.6507 63.5317 34.3557 63.8267 34.3557 64.1907Z" fill="#E6E6E6"/>
<path d="M17.3787 64.1907V72.0936C17.3787 72.4575 17.6737 72.7525 18.0376 72.7525H32.5379C32.9018 72.7525 33.1968 72.4575 33.1968 72.0936V64.1907C33.1968 63.8267 32.9018 63.5317 32.5379 63.5317H18.0376C17.6737 63.5317 17.3787 63.8267 17.3787 64.1907Z" fill="#E6E6E6"/>
<path d="M50.184 74.7782C50.184 74.8648 50.1669 74.9505 50.1338 75.0304C50.1007 75.1103 50.0522 75.183 49.991 75.2442C49.9298 75.3053 49.8572 75.3539 49.7772 75.387C49.6973 75.4201 49.6116 75.4372 49.5251 75.4372H18.0356C17.9491 75.4372 17.8634 75.4201 17.7835 75.387C17.7035 75.3539 17.6309 75.3053 17.5697 75.2442C17.5085 75.183 17.46 75.1103 17.4269 75.0304C17.3938 74.9505 17.3767 74.8648 17.3767 74.7782C17.3767 74.6035 17.4461 74.4359 17.5697 74.3123C17.6933 74.1887 17.8609 74.1193 18.0356 74.1193H49.5149C49.6023 74.118 49.689 74.134 49.7702 74.1665C49.8513 74.199 49.9251 74.2473 49.9874 74.3087C50.0497 74.37 50.0991 74.4431 50.1329 74.5237C50.1666 74.6043 50.184 74.6908 50.184 74.7782Z" fill="#E6E6E6"/>
<path d="M26.8505 64.5905H23.7211C22.4233 64.6114 21.1568 64.1914 20.1287 63.3991H30.4449C29.4162 64.1916 28.1489 64.6117 26.8505 64.5905Z" fill="#F0F0F0"/>
<path d="M43.9885 64.5905H40.8591C39.5608 64.611 38.2937 64.1911 37.2646 63.3991H47.583C46.5542 64.1916 45.287 64.6117 43.9885 64.5905Z" fill="#F0F0F0"/>
<path d="M34.3535 53.7295V61.6325C34.3535 61.9964 34.6485 62.2914 35.0124 62.2914H49.5128C49.8767 62.2914 50.1717 61.9964 50.1717 61.6325V53.7295C50.1717 53.3656 49.8767 53.0706 49.5128 53.0706H35.0124C34.6485 53.0706 34.3535 53.3656 34.3535 53.7295Z" fill="#E6E6E6"/>
<path d="M17.3767 53.7316V61.6345C17.3767 61.9984 17.6717 62.2935 18.0356 62.2935H32.536C32.8999 62.2935 33.1949 61.9984 33.1949 61.6345V53.7316C33.1949 53.3677 32.8999 53.0727 32.536 53.0727H18.0356C17.6717 53.0727 17.3767 53.3677 17.3767 53.7316Z" fill="#E6E6E6"/>
<path d="M26.8505 54.1314H23.7211C22.4231 54.1516 21.1566 53.7308 20.1287 52.938H30.4449C29.4164 53.7311 28.1492 54.1519 26.8505 54.1314Z" fill="#F0F0F0"/>
<path d="M43.9885 54.1314H40.8591C39.5605 54.1512 38.2935 53.7305 37.2646 52.938H47.583C46.5544 53.7311 45.2872 54.1519 43.9885 54.1314Z" fill="#F0F0F0"/>
<path d="M17.7644 78.0096H16.0386V76.0226H19.5739L17.7644 78.0096Z" fill="#F0F0F0"/>
<path d="M19.5044 45.3553C19.5044 46.8731 21.6076 48.1032 24.1964 48.1032C26.7852 48.1032 28.8884 46.8792 28.8884 45.3553H19.5044Z" fill="#F0F0F0"/>
<path d="M19.5044 47.0975C19.5044 48.6132 21.6076 49.8433 24.1964 49.8433C26.7852 49.8433 28.8884 48.6193 28.8884 47.0975H19.5044Z" fill="#E0E0E0"/>
<path d="M51.0001 87.2223C72.8449 87.2223 90.5537 86.1884 90.5537 84.913C90.5537 83.6376 72.8449 82.6037 51.0001 82.6037C29.1553 82.6037 11.4465 83.6376 11.4465 84.913C11.4465 86.1884 29.1553 87.2223 51.0001 87.2223Z" fill="#F5F5F5"/>
<path d="M57.6627 84.1867H53.4705L49.6598 72.1956C49.305 71.0681 48.5988 70.0837 47.6444 69.3864C46.6901 68.689 45.5377 68.3152 44.3558 68.3196H41.412C40.23 68.3148 39.0774 68.6885 38.1231 69.386C37.1687 70.0834 36.4626 71.068 36.108 72.1956L32.2953 84.1867H28.1133L31.9893 71.9671C32.3914 70.6871 33.1923 69.5692 34.2751 68.7768C35.3578 67.9844 36.6656 67.559 38.0073 67.5628H47.7544C49.0962 67.5595 50.404 67.9851 51.487 68.7774C52.5699 69.5697 53.3714 70.6873 53.7744 71.9671L57.6627 84.1867Z" fill="#407BFF"/>
<path opacity="0.4" d="M57.6627 84.1867H53.4705L49.6598 72.1956C49.305 71.0681 48.5988 70.0837 47.6444 69.3864C46.6901 68.689 45.5377 68.3152 44.3558 68.3196H41.412C40.23 68.3148 39.0774 68.6885 38.1231 69.386C37.1687 70.0834 36.4626 71.068 36.108 72.1956L32.2953 84.1867H28.1133L31.9893 71.9671C32.3914 70.6871 33.1923 69.5692 34.2751 68.7768C35.3578 67.9844 36.6656 67.559 38.0073 67.5628H47.7544C49.0962 67.5595 50.404 67.9851 51.487 68.7774C52.5699 69.5697 53.3714 70.6873 53.7744 71.9671L57.6627 84.1867Z" fill="black"/>
<path d="M57.6627 84.1867H56.8712L53.0605 72.1956C52.7057 71.0681 51.9995 70.0837 51.0452 69.3863C50.0909 68.689 48.9385 68.3151 47.7565 68.3196H41.4121C40.2301 68.3148 39.0775 68.6885 38.1231 69.3859C37.1687 70.0834 36.4626 71.068 36.1081 72.1956L32.2953 84.1867H31.5059L35.3819 71.9671C35.7846 70.6851 36.5874 69.5657 37.6726 68.7731C38.7578 67.9805 40.0683 67.5563 41.4121 67.5628H47.7585C49.1004 67.5595 50.4081 67.985 51.4911 68.7773C52.574 69.5696 53.3755 70.6872 53.7786 71.9671L57.6627 84.1867Z" fill="#407BFF"/>
<path d="M76.4512 51.204C76.3375 51.0263 76.1809 50.8801 75.9959 50.7789C75.8108 50.6776 75.6033 50.6246 75.3924 50.6246H58.4726C58.2324 50.6246 57.9971 50.6934 57.7947 50.8228C57.5923 50.9522 57.4311 51.1369 57.3302 51.355L47.4893 72.6934H29.3761C29.2108 72.6934 29.0471 72.7259 28.8944 72.7892C28.7417 72.8524 28.603 72.9451 28.4861 73.062C28.3692 73.1789 28.2765 73.3176 28.2132 73.4704C28.15 73.6231 28.1174 73.7867 28.1174 73.952C28.1174 74.1173 28.15 74.281 28.2132 74.4337C28.2765 74.5864 28.3692 74.7252 28.4861 74.8421C28.603 74.9589 28.7417 75.0516 28.8944 75.1149C29.0471 75.1782 29.2108 75.2107 29.3761 75.2107H65.2189C65.4591 75.2105 65.6943 75.1416 65.8966 75.0122C66.099 74.8828 66.2603 74.6983 66.3613 74.4804L76.5348 52.428C76.6266 52.2338 76.6671 52.0194 76.6525 51.8051C76.6379 51.5908 76.5685 51.3839 76.4512 51.204Z" fill="#407BFF"/>
<path opacity="0.5" d="M76.4512 51.204C76.3375 51.0263 76.1809 50.8801 75.9959 50.7789C75.8108 50.6776 75.6033 50.6246 75.3924 50.6246H58.4726C58.2324 50.6246 57.9971 50.6934 57.7947 50.8228C57.5923 50.9522 57.4311 51.1369 57.3302 51.355L47.4893 72.6934H29.3761C29.2108 72.6934 29.0471 72.7259 28.8944 72.7892C28.7417 72.8524 28.603 72.9451 28.4861 73.062C28.3692 73.1789 28.2765 73.3176 28.2132 73.4704C28.15 73.6231 28.1174 73.7867 28.1174 73.952C28.1174 74.1173 28.15 74.281 28.2132 74.4337C28.2765 74.5864 28.3692 74.7252 28.4861 74.8421C28.603 74.9589 28.7417 75.0516 28.8944 75.1149C29.0471 75.1782 29.2108 75.2107 29.3761 75.2107H65.2189C65.4591 75.2105 65.6943 75.1416 65.8966 75.0122C66.099 74.8828 66.2603 74.6983 66.3613 74.4804L76.5348 52.428C76.6266 52.2338 76.6671 52.0194 76.6525 51.8051C76.6379 51.5908 76.5685 51.3839 76.4512 51.204Z" fill="white"/>
<path opacity="0.5" d="M65.2148 75.2107H46.2897C45.9559 75.2107 45.6357 75.0781 45.3997 74.8421C45.1636 74.606 45.031 74.2859 45.031 73.952C45.031 73.6182 45.1636 73.2981 45.3997 73.062C45.6357 72.826 45.9559 72.6933 46.2897 72.6933H64.409L74.256 51.3631C74.4014 51.069 74.6558 50.8433 74.9651 50.7339C75.2744 50.6246 75.6142 50.6404 75.912 50.7779C76.2099 50.9154 76.4423 51.1637 76.5597 51.47C76.6772 51.7763 76.6704 52.1164 76.5408 52.4178L66.3572 74.4804C66.2561 74.6983 66.0949 74.8828 65.8925 75.0122C65.6901 75.1416 65.455 75.2105 65.2148 75.2107Z" fill="#407BFF"/>
<path d="M58.5869 53.9906L58.3238 54.0906L58.081 54.1763C57.9199 54.2334 57.7567 54.2803 57.5955 54.3313C57.2711 54.4292 56.9447 54.5149 56.6122 54.5904C55.9339 54.7507 55.2433 54.8537 54.5477 54.8984C53.783 54.9564 53.0139 54.8973 52.267 54.723L52.1161 54.6863L52.0406 54.6659L52.0018 54.6557C51.983 54.6521 51.9645 54.6466 51.9467 54.6394C51.7231 54.5699 51.5123 54.4645 51.3225 54.3272C50.95 54.0551 50.6767 53.6685 50.5445 53.2264C50.4122 52.7844 50.4283 52.3113 50.5901 51.8792C50.6014 51.8473 50.6144 51.816 50.6289 51.7854L50.6575 51.7262L50.7146 51.6059L50.8268 51.3672C51.1243 50.7613 51.4652 50.1777 51.8468 49.621C52.214 49.0722 52.6138 48.5581 53.0218 48.0583C53.4298 47.5585 53.8582 47.0812 54.3029 46.6201C54.7477 46.1591 55.1965 45.7184 55.6942 45.288L56.8019 46.2794C56.1451 47.2994 55.4719 48.3194 54.868 49.3598C54.713 49.6169 54.5681 49.876 54.4192 50.135C54.2703 50.3941 54.1336 50.6532 54.0112 50.9143C53.7468 51.416 53.5112 51.9322 53.3054 52.4606L53.236 52.6504L53.2013 52.7442L53.185 52.7911C53.185 52.8034 53.1667 52.836 53.185 52.8074C53.2395 52.6748 53.2495 52.5281 53.2136 52.3892C53.1748 52.2415 53.088 52.1109 52.9667 52.018C52.905 51.9708 52.8361 51.9336 52.7627 51.9078H52.7811H52.8199L52.8953 51.92C53.3694 51.981 53.8493 51.981 54.3233 51.92C54.8649 51.8582 55.4018 51.7614 55.9309 51.6304C56.2042 51.5692 56.4755 51.4896 56.7469 51.4264L57.1549 51.304L57.3589 51.2428L57.5343 51.1836L58.5869 53.9906Z" fill="#FF8B7B"/>
<path d="M61.345 52.0975C60.68 50.8327 58.591 50.2044 54.6885 51.3815L54.7456 55.6655C54.7456 55.6655 63.0708 55.3778 61.345 52.0975Z" fill="#407BFF"/>
<path opacity="0.2" d="M59.0316 52.7626C57.8708 52.481 56.3796 53.2399 54.9414 55.6614C55.7125 55.6165 58.5767 55.4044 60.2801 54.5435C60.3535 53.6887 60.0414 53.0074 59.0316 52.7626Z" fill="black"/>
<path d="M35.1779 83.9031L33.1052 83.0973L34.2619 77.9423L36.3345 78.746L35.1779 83.9031Z" fill="#FF8B7B"/>
<path d="M33.456 82.1712L35.4818 82.2079C35.5253 82.2101 35.5667 82.2277 35.5985 82.2576C35.6303 82.2875 35.6504 82.3278 35.6552 82.3711L35.9795 84.4764C35.9873 84.5253 35.9847 84.5753 35.9719 84.6231C35.9591 84.671 35.9364 84.7156 35.9052 84.7541C35.8741 84.7926 35.8352 84.8241 35.791 84.8465C35.7469 84.869 35.6985 84.8819 35.649 84.8844C34.8167 84.8558 34.4352 84.7926 33.3867 84.7763C32.74 84.7763 30.7918 84.815 29.9003 84.8008C29.0088 84.7865 28.9374 83.8073 29.3067 83.7236C30.9591 83.3503 32.5584 82.8179 33.1052 82.2956C33.2022 82.2113 33.3276 82.1668 33.456 82.1712Z" fill="#263238"/>
<path opacity="0.2" d="M36.3346 78.7481L34.2619 77.9423L33.6663 80.6004L35.8021 81.1267L36.3346 78.7481Z" fill="black"/>
<path d="M51.4509 65.9328C51.4509 65.9328 46.863 65.9083 40.133 67.269C35.4696 68.2115 33.197 79.1561 33.197 79.1561L36.5283 80.3454C36.5283 80.3454 38.7723 72.9076 40.9143 71.2878C52.0895 71.2327 57.6709 74.5518 59.0561 67.2221C57.2139 66.4775 51.4509 65.9328 51.4509 65.9328Z" fill="black"/>
<path d="M32.5137 79.7824L36.9976 80.7187L37.3546 79.2397L32.6789 78.1667L32.5137 79.7824Z" fill="#407BFF"/>
<path d="M55.4453 45.5083L56.4939 44.3557L58.3299 45.5797C58.3299 45.5797 57.1977 47.0077 55.8941 46.563L55.4453 45.5083Z" fill="#FF8B7B"/>
<path d="M58.4951 43.4887L59.1051 44.6617L58.334 45.5715L56.4939 44.3557L58.4951 43.4887Z" fill="#FF8B7B"/>
<path d="M58.5929 47.6299L56.7385 46.1346C56.7195 46.1195 56.7039 46.1006 56.6926 46.0791C56.6813 46.0576 56.6747 46.0339 56.6732 46.0097C56.6717 45.9855 56.6752 45.9612 56.6837 45.9384C56.6921 45.9157 56.7052 45.8949 56.7222 45.8775L59.927 42.5156C59.9625 42.4775 60.0112 42.4543 60.0631 42.4509C60.1151 42.4475 60.1664 42.4641 60.2065 42.4973L62.0609 43.9926C62.0802 44.0075 62.0961 44.0263 62.1075 44.0478C62.119 44.0694 62.1257 44.0931 62.1272 44.1174C62.1288 44.1417 62.1251 44.1661 62.1165 44.1889C62.1079 44.2117 62.0945 44.2324 62.0772 44.2496L58.8724 47.6115C58.8369 47.6497 58.7882 47.6729 58.7363 47.6763C58.6843 47.6797 58.633 47.6631 58.5929 47.6299Z" fill="#263238"/>
<path d="M62.1854 67.7525C62.1854 67.7525 65.5718 62.7667 67.2181 54.7312C67.3073 54.2852 67.2991 53.8252 67.1943 53.3827C67.0894 52.9402 66.8902 52.5255 66.6103 52.167C66.3305 51.8085 65.9765 51.5146 65.5727 51.3055C65.1688 51.0963 64.7246 50.9768 64.2703 50.9551C62.6383 50.8694 60.9165 50.847 59.5171 50.8531C58.8337 50.8555 58.1696 51.0798 57.6248 51.4922C57.0799 51.9047 56.6837 52.4829 56.4958 53.14C55.2298 57.5567 53.5404 61.8408 51.4509 65.9328L62.1854 67.7525Z" fill="#407BFF"/>
<path d="M60.837 54.6088C60.8133 54.5674 60.7805 54.5319 60.7411 54.5051C60.7017 54.4782 60.6567 54.4607 60.6095 54.4538C60.5624 54.4469 60.5142 54.4509 60.4688 54.4653C60.4234 54.4798 60.3819 54.5044 60.3474 54.5374L58.5685 55.9796L57.9993 54.468C57.9843 54.4231 57.959 54.3824 57.9255 54.3489C57.892 54.3155 57.8512 54.2902 57.8064 54.2752C57.7615 54.2602 57.7137 54.2558 57.6669 54.2623C57.62 54.2689 57.5753 54.2862 57.5362 54.313C57.445 54.3687 57.3752 54.4536 57.3382 54.5539C57.3012 54.6543 57.2991 54.7641 57.3322 54.8658L57.9442 56.4978L56.0715 58.0176C55.989 58.0841 55.9316 58.1766 55.9086 58.28C55.8856 58.3834 55.8985 58.4916 55.945 58.5868C55.9686 58.6307 56.0028 58.6681 56.0445 58.6955C56.0861 58.723 56.134 58.7396 56.1837 58.7438C56.2745 58.7474 56.3633 58.7168 56.4326 58.6582L58.2115 57.2159L58.7806 58.7377C58.8 58.7939 58.8355 58.8432 58.8826 58.8795C58.9298 58.9158 58.9865 58.9374 59.0458 58.9417C59.1175 58.9469 59.189 58.9291 59.2498 58.8907C59.3408 58.8347 59.4103 58.7498 59.4473 58.6495C59.4843 58.5493 59.4866 58.4396 59.4538 58.3379L58.8418 56.7059L60.7146 55.1861C60.7983 55.1186 60.8562 55.0244 60.8785 54.9192C60.9008 54.814 60.8861 54.7044 60.837 54.6088Z" fill="white"/>
<path opacity="0.2" d="M67.265 53.7764C66.1267 52.1873 65.1067 51.9629 64.817 52.0526C62.1793 52.8829 65.0088 60.1453 65.4474 60.9572C66.1883 58.9282 66.7781 56.8472 67.212 54.7312C67.2781 54.4175 67.296 54.0955 67.265 53.7764Z" fill="black"/>
<path d="M58.7522 51.7018C58.6842 51.7018 58.6175 51.6834 58.5591 51.6486C58.5007 51.6138 58.4527 51.5639 58.4203 51.5042C58.388 51.4444 58.3723 51.377 58.3751 51.3091C58.3778 51.2412 58.3989 51.1753 58.436 51.1183C58.4849 51.0428 59.6722 49.2538 61.4654 49.5679C61.5142 49.5765 61.561 49.5946 61.6029 49.6212C61.6448 49.6479 61.681 49.6825 61.7095 49.7231C61.738 49.7638 61.7582 49.8096 61.769 49.8581C61.7798 49.9065 61.781 49.9566 61.7724 50.0055C61.7638 50.0544 61.7457 50.1011 61.7191 50.143C61.6924 50.1849 61.6578 50.2211 61.6172 50.2496C61.5765 50.2781 61.5307 50.2984 61.4822 50.3092C61.4338 50.3199 61.3837 50.3211 61.3348 50.3125C60.0394 50.084 59.0765 51.5182 59.0684 51.5365C59.0332 51.5879 58.986 51.6298 58.9309 51.6586C58.8758 51.6874 58.8144 51.7022 58.7522 51.7018Z" fill="#263238"/>
<path d="M64.3008 45.8388C63.7704 47.2811 63.0911 49.8923 63.9132 50.9388C62.8989 51.8182 61.5814 52.2669 60.2412 52.1893C58.548 52.1322 58.8928 51.4549 59.4456 50.8551C61.0939 50.5757 61.2633 49.1905 61.1857 48.0359L64.3008 45.8388Z" fill="#FF8B7B"/>
<path d="M56.8752 51.3427C56.8752 52.0445 57.371 52.6116 57.983 52.6116C58.595 52.6116 59.0886 52.0445 59.0886 51.3427C59.0886 50.641 58.5929 50.0738 57.983 50.0738C57.373 50.0738 56.8752 50.643 56.8752 51.3427Z" fill="#263238"/>
<path opacity="0.4" d="M56.8752 51.3427C56.8752 52.0445 57.371 52.6116 57.983 52.6116C58.595 52.6116 59.0886 52.0445 59.0886 51.3427C59.0886 50.641 58.5929 50.0738 57.983 50.0738C57.373 50.0738 56.8752 50.643 56.8752 51.3427Z" fill="#407BFF"/>
<path d="M57.0078 51.3427C57.0074 51.6293 57.0921 51.9097 57.2511 52.1482C57.4101 52.3867 57.6362 52.5726 57.901 52.6825C58.1657 52.7924 58.4571 52.8212 58.7383 52.7654C59.0194 52.7096 59.2777 52.5716 59.4804 52.3689C59.6831 52.1662 59.8211 51.908 59.8769 51.6268C59.9327 51.3457 59.9038 51.0543 59.794 50.7895C59.6841 50.5248 59.4981 50.2986 59.2596 50.1396C59.0211 49.9806 58.7408 49.8959 58.4542 49.8963C58.0707 49.8969 57.7032 50.0494 57.432 50.3206C57.1609 50.5917 57.0084 50.9593 57.0078 51.3427Z" fill="#263238"/>
<path opacity="0.2" d="M63.0362 46.7343L61.2002 48.0318C61.2247 48.3032 61.2247 48.5763 61.2002 48.8478C61.8122 48.7988 62.7669 48.1725 62.9444 47.5259C63.0213 47.2695 63.0524 47.0015 63.0362 46.7343Z" fill="black"/>
<path d="M64.8905 43.8335C64.4172 45.745 64.2377 46.8935 63.0729 47.7442C62.7047 48.0304 62.2649 48.2098 61.8016 48.263C61.3383 48.3161 60.8693 48.2409 60.4458 48.0455C60.0224 47.8501 59.6608 47.542 59.4006 47.155C59.1404 46.768 58.9916 46.3169 58.9704 45.851C58.8725 44.064 59.662 41.2345 61.7081 40.7184C63.7236 40.2104 65.3638 41.92 64.8905 43.8335Z" fill="#FF8B7B"/>
<path d="M64.0132 42.3728C63.3053 41.5956 59.9332 42.8482 59.5517 41.1284C59.1702 39.4087 61.094 39.0109 61.8488 39.8188C62.2772 40.2778 63.3522 39.372 63.8296 40.0697C64.6272 41.2345 65.788 40.6042 66.1226 41.7017C66.4 42.6095 64.9496 43.3969 64.0132 42.3728Z" fill="#263238"/>
<path d="M65.4617 42.5789C65.4617 42.5789 66.1471 42.1178 66.7652 43.1399C66.3671 42.8777 65.9258 42.6878 65.4617 42.5789Z" fill="#263238"/>
<path d="M65.5392 42.3137L64.7007 41.9689C63.5257 42.3973 63.5563 43.2358 63.5563 44.0232C63.5587 44.6019 63.333 45.1582 62.928 45.5716L64.0194 45.9204C64.0194 45.9204 67.8872 44.2864 65.5392 42.3137Z" fill="#263238"/>
<path d="M65.2045 46.1917C64.8421 46.4596 64.3915 46.5799 63.9438 46.5283C63.3563 46.4549 63.3134 45.8918 63.6888 45.4696C64.0234 45.0901 64.7353 44.6699 65.2229 44.9575C65.7104 45.2452 65.6472 45.8612 65.2045 46.1917Z" fill="#FF8B7B"/>
<path d="M61.6367 43.8967C61.6081 44.0538 61.5 44.1701 61.396 44.1578C61.2919 44.1456 61.2328 44.0048 61.2613 43.8477C61.2899 43.6907 61.398 43.5744 61.5 43.5887C61.602 43.6029 61.6652 43.7396 61.6367 43.8967Z" fill="#263238"/>
<path d="M59.7375 43.6907C59.709 43.8478 59.6008 43.964 59.4968 43.9498C59.3928 43.9355 59.3336 43.7988 59.3622 43.6417C59.3907 43.4846 59.4988 43.3684 59.6029 43.3826C59.7069 43.3969 59.7722 43.5336 59.7375 43.6907Z" fill="#263238"/>
<path d="M60.4046 43.86C60.4046 43.86 59.8782 44.7188 59.4009 45.1044C59.6334 45.4002 60.1312 45.3451 60.1312 45.3451L60.4046 43.86Z" fill="#FF5652"/>
<path d="M60.8043 46.1346C61.173 46.1366 61.528 45.9946 61.7937 45.7388C61.7977 45.7344 61.8008 45.7292 61.8028 45.7236C61.8049 45.718 61.8058 45.712 61.8055 45.7061C61.8052 45.7001 61.8037 45.6942 61.8012 45.6888C61.7986 45.6834 61.795 45.6786 61.7906 45.6746C61.7862 45.6705 61.781 45.6674 61.7754 45.6654C61.7698 45.6634 61.7638 45.6625 61.7579 45.6628C61.7519 45.6631 61.746 45.6645 61.7406 45.6671C61.7352 45.6696 61.7304 45.6732 61.7264 45.6776C61.5788 45.8157 61.4021 45.919 61.2093 45.9797C61.0166 46.0404 60.8126 46.0571 60.6125 46.0285C60.5999 46.0272 60.5873 46.0307 60.5771 46.0383C60.5669 46.0458 60.5599 46.0569 60.5575 46.0693C60.5563 46.0752 60.5564 46.0814 60.5577 46.0873C60.5591 46.0932 60.5617 46.0987 60.5654 46.1035C60.569 46.1083 60.5737 46.1123 60.579 46.1152C60.5843 46.1181 60.5902 46.1198 60.5962 46.1203C60.6652 46.1299 60.7347 46.1346 60.8043 46.1346Z" fill="#263238"/>
<path d="M62.4241 43.452C62.4405 43.4515 62.4565 43.4473 62.4711 43.4397C62.4929 43.428 62.5093 43.4083 62.5169 43.3847C62.5245 43.3611 62.5227 43.3355 62.5119 43.3133C62.4463 43.1822 62.3491 43.0695 62.2291 42.9855C62.1091 42.9014 61.97 42.8486 61.8244 42.8318C61.799 42.8301 61.774 42.8383 61.7546 42.8547C61.7352 42.871 61.7229 42.8943 61.7203 42.9195C61.7189 42.9316 61.72 42.9437 61.7235 42.9553C61.727 42.9669 61.7329 42.9776 61.7407 42.9868C61.7486 42.996 61.7583 43.0035 61.7692 43.0087C61.78 43.014 61.7919 43.017 61.804 43.0175C61.9188 43.0325 62.0281 43.0757 62.1221 43.1434C62.2161 43.211 62.2919 43.3009 62.3425 43.4051C62.3508 43.4194 62.3627 43.4313 62.377 43.4395C62.3914 43.4477 62.4076 43.452 62.4241 43.452Z" fill="#263238"/>
<path d="M59.4213 43.0032C59.4367 43.0056 59.4524 43.0045 59.4672 42.9999C59.4821 42.9953 59.4957 42.9873 59.507 42.9767C59.5902 42.8897 59.6925 42.8232 59.8058 42.7825C59.9191 42.7418 60.0403 42.728 60.1598 42.7421C60.1846 42.7458 60.2098 42.7402 60.2306 42.7262C60.2514 42.7122 60.2662 42.6909 60.272 42.6666C60.275 42.6551 60.2757 42.643 60.2739 42.6313C60.2721 42.6195 60.2679 42.6082 60.2616 42.5981C60.2553 42.5879 60.247 42.5792 60.2372 42.5724C60.2274 42.5656 60.2164 42.5609 60.2047 42.5585C60.0541 42.5397 59.9013 42.5559 59.758 42.6058C59.6147 42.6557 59.4849 42.7379 59.3785 42.8461C59.3696 42.8545 59.3625 42.8646 59.3577 42.8759C59.3528 42.8871 59.3503 42.8992 59.3503 42.9114C59.3503 42.9236 59.3528 42.9357 59.3577 42.9469C59.3625 42.9582 59.3696 42.9683 59.3785 42.9767C59.3897 42.9897 59.4047 42.999 59.4213 43.0032Z" fill="#263238"/>
<path d="M26.8589 84.3295L25.6899 82.4384L29.721 79.0194L30.8879 80.9105L26.8589 84.3295Z" fill="#FF8B7B"/>
<path d="M26.3753 81.7836L28.248 83.2116C28.2788 83.2394 28.2987 83.2773 28.3039 83.3185C28.3091 83.3597 28.2994 83.4014 28.2766 83.436L27.2321 85.2822C27.2111 85.326 27.1813 85.3649 27.1444 85.3965C27.1076 85.4281 27.0646 85.4517 27.0181 85.4657C26.9717 85.4797 26.9228 85.4839 26.8746 85.4779C26.8264 85.472 26.7801 85.456 26.7384 85.4311C26.1468 84.9578 25.7408 84.5784 24.982 84.0031C24.5168 83.6461 23.0603 82.6241 22.4156 82.1284C21.771 81.6326 22.3157 80.8187 22.636 80.9513C24.0742 81.5531 25.3186 81.8163 26.0326 81.7041C26.0921 81.6931 26.1532 81.6945 26.2122 81.7081C26.2712 81.7218 26.3267 81.7475 26.3753 81.7836Z" fill="#263238"/>
<path opacity="0.2" d="M30.8877 80.9125L29.7188 79.0214L27.6421 80.784L29.0293 82.4894L30.8877 80.9125Z" fill="black"/>
<path d="M54.3293 66.4203C54.3293 66.4203 47.3933 67.6443 40.8653 69.7537C36.3385 71.2164 28.458 79.5845 28.458 79.5845L30.396 82.5404C30.396 82.5404 40.1452 75.5106 42.0974 73.6562C53.195 72.3384 61.6406 75.1964 62.1874 67.7525C60.2657 67.22 54.3293 66.4203 54.3293 66.4203Z" fill="#263238"/>
<path d="M27.5259 79.6701L30.539 83.1177L31.716 82.1528L28.6295 78.4788L27.5259 79.6701Z" fill="#407BFF"/>
<path d="M67.3915 53.7724C67.7367 55.2631 68.0049 56.7706 68.1953 58.2889C68.2891 59.0539 68.3646 59.8271 68.3993 60.6288C68.4135 61.0368 68.4176 61.4448 68.3993 61.8712C68.387 62.0894 68.3687 62.3118 68.3319 62.5525C68.2944 62.8297 68.2316 63.1028 68.1443 63.3685C68.0791 63.5561 67.9936 63.7361 67.8893 63.905C67.8045 64.0361 67.7104 64.1608 67.6077 64.2784C67.4237 64.4867 67.2186 64.6754 66.9957 64.8414C66.6201 65.1184 66.2151 65.353 65.7881 65.5411C65.0334 65.866 64.2482 66.1148 63.4441 66.2837C61.9266 66.6102 60.3797 66.7804 58.8276 66.7916L58.6685 65.3147C60.0695 64.98 61.4518 64.5714 62.8097 64.0907C63.4435 63.8707 64.0576 63.5977 64.6457 63.2747C64.8897 63.1373 65.1175 62.9731 65.325 62.7851C65.4008 62.7201 65.4692 62.6469 65.529 62.5668C65.5461 62.5415 65.5611 62.5149 65.5739 62.4872C65.5473 62.524 65.5433 62.5342 65.5453 62.5158C65.5611 62.4212 65.572 62.3259 65.5779 62.2302C65.5779 62.0996 65.5881 61.9507 65.5779 61.7957C65.5779 61.4856 65.5555 61.149 65.5229 60.8063C65.4576 60.1229 65.3597 59.415 65.2475 58.7051C65.021 57.2873 64.7456 55.8348 64.4621 54.4211L67.3915 53.7724Z" fill="#FF8B7B"/>
<path d="M65.0168 51.0836C65.4248 51.1918 67.2751 51.4712 68.5909 55.9939L64.1437 57.7279C64.1437 57.7279 61.0654 50.0269 65.0168 51.0836Z" fill="#407BFF"/>
<path d="M63.491 52.0363C63.4914 52.3229 63.4068 52.6031 63.2479 52.8416C63.089 53.08 62.863 53.266 62.5983 53.3759C62.3337 53.4858 62.0424 53.5148 61.7613 53.4592C61.4802 53.4035 61.222 53.2657 61.0192 53.0632C60.8164 52.8608 60.6783 52.6027 60.6222 52.3217C60.5662 52.0407 60.5947 51.7493 60.7043 51.4845C60.8139 51.2198 60.9995 50.9934 61.2377 50.8342C61.476 50.675 61.7561 50.59 62.0426 50.59C62.2327 50.5897 62.421 50.6269 62.5968 50.6995C62.7725 50.772 62.9322 50.8785 63.0667 51.0129C63.2012 51.1472 63.3079 51.3067 63.3807 51.4823C63.4536 51.658 63.491 51.8462 63.491 52.0363Z" fill="#263238"/>
<path d="M61.9672 52.8197C61.8779 52.8197 61.7915 52.788 61.7233 52.7302C61.6551 52.6725 61.6097 52.5924 61.595 52.5043C61.5803 52.4162 61.5973 52.3257 61.6431 52.249C61.6888 52.1723 61.7603 52.1142 61.8448 52.0853C61.8693 52.0853 63.4891 51.5039 63.589 50.1921C63.5966 50.0923 63.6435 49.9996 63.7195 49.9344C63.7954 49.8691 63.8942 49.8368 63.994 49.8443C64.0938 49.8519 64.1865 49.8988 64.2518 49.9748C64.317 50.0507 64.3494 50.1494 64.3418 50.2493C64.2031 52.0628 62.1753 52.7707 62.0978 52.8013C62.0555 52.8142 62.0115 52.8204 61.9672 52.8197Z" fill="#263238"/>
<path d="M63.6236 52.0363C63.6236 52.736 63.1278 53.3052 62.5158 53.3052C61.9038 53.3052 61.4102 52.736 61.4102 52.0363C61.4102 51.3366 61.9038 50.7674 62.5158 50.7674C63.1278 50.7674 63.6236 51.3345 63.6236 52.0363Z" fill="#263238"/>
<path opacity="0.4" d="M63.6236 52.0363C63.6236 52.736 63.1278 53.3052 62.5158 53.3052C61.9038 53.3052 61.4102 52.736 61.4102 52.0363C61.4102 51.3366 61.9038 50.7674 62.5158 50.7674C63.1278 50.7674 63.6236 51.3345 63.6236 52.0363Z" fill="#407BFF"/>
<path d="M58.9561 65.2473L57.2302 65.4942L58.0462 67.5831C58.0462 67.5831 59.9312 67.1017 59.923 66.1551L59.515 65.5003C59.4554 65.4095 59.3712 65.3375 59.2722 65.2928C59.1733 65.248 59.0636 65.2322 58.9561 65.2473Z" fill="#FF8B7B"/>
<path d="M55.3984 66.5407L56.4776 68.24L58.0504 67.5832L57.2304 65.4942L55.3984 66.5407Z" fill="#FF8B7B"/>
<path d="M38.8254 67.065H60.482C60.6135 67.0661 60.7393 67.1189 60.8321 67.2121C60.9249 67.3053 60.9772 67.4313 60.9777 67.5628H38.3337C38.3343 67.432 38.386 67.3066 38.4779 67.2135C38.5699 67.1205 38.6946 67.0671 38.8254 67.065Z" fill="#407BFF"/>
<path opacity="0.2" d="M38.8254 67.065H60.482C60.6135 67.0661 60.7393 67.1189 60.8321 67.2121C60.9249 67.3053 60.9772 67.4313 60.9777 67.5628H38.3337C38.3343 67.432 38.386 67.3066 38.4779 67.2135C38.5699 67.1205 38.6946 67.0671 38.8254 67.065Z" fill="white"/>
<path opacity="0.4" d="M54.1621 67.065H60.4861C60.6176 67.0661 60.7433 67.1189 60.8361 67.2121C60.9289 67.3053 60.9813 67.4313 60.9818 67.5628H53.6643C53.6648 67.4309 53.7175 67.3046 53.8107 67.2114C53.9039 67.1182 54.0302 67.0655 54.1621 67.065Z" fill="black"/>
<path d="M36.2141 55.9939H51.3733C51.6235 56.006 51.8633 56.0979 52.0574 56.2562C52.2516 56.4144 52.3901 56.6306 52.4525 56.8732L54.5619 66.1858C54.5931 66.29 54.599 66.4001 54.5791 66.5071C54.5593 66.6141 54.5141 66.7147 54.4475 66.8007C54.3808 66.8867 54.2946 66.9556 54.196 67.0015C54.0974 67.0475 53.9892 67.0693 53.8805 67.065H38.7213C38.4707 67.0533 38.2305 66.9616 38.0359 66.8033C37.8413 66.6451 37.7026 66.4286 37.6401 66.1858L35.5327 56.8732C35.501 56.7689 35.4947 56.6586 35.5144 56.5514C35.5341 56.4443 35.5792 56.3434 35.646 56.2573C35.7127 56.1711 35.7991 56.1023 35.898 56.0565C35.9968 56.0106 36.1052 55.9892 36.2141 55.9939Z" fill="#407BFF"/>
<path opacity="0.2" d="M36.2141 55.9939H51.3733C51.6235 56.006 51.8633 56.0979 52.0574 56.2562C52.2516 56.4144 52.3901 56.6306 52.4525 56.8732L54.5619 66.1858C54.5931 66.29 54.599 66.4001 54.5791 66.5071C54.5593 66.6141 54.5141 66.7147 54.4475 66.8007C54.3808 66.8867 54.2946 66.9556 54.196 67.0015C54.0974 67.0475 53.9892 67.0693 53.8805 67.065H38.7213C38.4707 67.0533 38.2305 66.9616 38.0359 66.8033C37.8413 66.6451 37.7026 66.4286 37.6401 66.1858L35.5327 56.8732C35.501 56.7689 35.4947 56.6586 35.5144 56.5514C35.5341 56.4443 35.5792 56.3434 35.646 56.2573C35.7127 56.1711 35.7991 56.1023 35.898 56.0565C35.9968 56.0106 36.1052 55.9892 36.2141 55.9939Z" fill="white"/>
<path opacity="0.4" d="M54.1357 66.6468L51.857 56.5794C51.8483 56.5359 51.854 56.4908 51.8733 56.4508C51.8925 56.4109 51.9243 56.3783 51.9637 56.358C52.0031 56.3377 52.0481 56.3308 52.0918 56.3384C52.1354 56.3459 52.1755 56.3675 52.2058 56.3999C52.3267 56.5354 52.4122 56.6986 52.4547 56.8752L54.56 66.1857C54.605 66.3568 54.5876 66.5383 54.511 66.6978C54.4909 66.7333 54.4607 66.7619 54.4241 66.78C54.3876 66.7981 54.3465 66.8048 54.3061 66.7993C54.2657 66.7938 54.2279 66.7764 54.1975 66.7492C54.1671 66.722 54.1456 66.6863 54.1357 66.6468Z" fill="black"/>
<path d="M75.2598 84.1867H71.0676L67.2569 72.1956C66.9021 71.0681 66.1959 70.0837 65.2416 69.3864C64.2873 68.689 63.1349 68.3152 61.9529 68.3196H59.0112C57.8293 68.3152 56.6769 68.689 55.7226 69.3864C54.7682 70.0837 54.062 71.0681 53.7072 72.1956L49.8965 84.1867H45.7104L49.5864 71.9671C49.9882 70.6872 50.7887 69.5694 51.8711 68.777C52.9535 67.9845 54.261 67.5591 55.6024 67.5628H65.3495C66.6914 67.5592 67.9994 67.9846 69.0824 68.777C70.1654 69.5693 70.9668 70.6871 71.3696 71.9671L75.2598 84.1867Z" fill="#407BFF"/>
<path opacity="0.4" d="M75.2598 84.1867H71.0676L67.2569 72.1956C66.9021 71.0681 66.1959 70.0837 65.2416 69.3864C64.2873 68.689 63.1349 68.3152 61.9529 68.3196H59.0112C57.8293 68.3152 56.6769 68.689 55.7226 69.3864C54.7682 70.0837 54.062 71.0681 53.7072 72.1956L49.8965 84.1867H45.7104L49.5864 71.9671C49.9882 70.6872 50.7887 69.5694 51.8711 68.777C52.9535 67.9845 54.261 67.5591 55.6024 67.5628H65.3495C66.6914 67.5592 67.9994 67.9846 69.0824 68.777C70.1654 69.5693 70.9668 70.6871 71.3696 71.9671L75.2598 84.1867Z" fill="black"/>
<path d="M75.2598 84.1867H74.4601L70.6576 72.1956C70.3028 71.0681 69.5966 70.0837 68.6423 69.3864C67.6879 68.689 66.5355 68.3152 65.3536 68.3196H59.0112C57.8292 68.3152 56.6769 68.689 55.7225 69.3864C54.7682 70.0837 54.062 71.0681 53.7072 72.1956L49.8965 84.1867H49.105L52.981 71.9671C53.3827 70.6872 54.1833 69.5694 55.2657 68.777C56.348 67.9845 57.6555 67.5591 58.9969 67.5628H65.3434C66.6853 67.5592 67.9932 67.9846 69.0762 68.777C70.1592 69.5693 70.9606 70.6871 71.3634 71.9671L75.2598 84.1867Z" fill="#407BFF"/>
</svg>
