<svg width="103" height="103" viewBox="0 0 103 103" fill="none" xmlns="http://www.w3.org/2000/svg">
<path d="M70.4912 27.2002H52.802V28.2137H70.4912V27.2002Z" fill="#EBEBEB"/>
<path d="M66.0725 28.2261L66.6946 29.5898H67.428L67.9595 28.2261H66.0725Z" fill="#EBEBEB"/>
<path d="M55.8403 28.2261L56.4624 29.5898H57.1938L57.7273 28.2261H55.8403Z" fill="#EBEBEB"/>
<path d="M90.1724 64.3255V18.4823H71.4531V64.3255H90.1724Z" fill="#E0E0E0"/>
<path d="M89.1466 19.5103H72.4812V63.2976H89.1466V19.5103Z" fill="#F0F0F0"/>
<path d="M81.7181 18.4823H80.478V64.3255H81.7181V18.4823Z" fill="#E0E0E0"/>
<path d="M46.7559 64.3255V18.4823H28.0366L28.0366 64.3255H46.7559Z" fill="#E0E0E0"/>
<path d="M45.7299 19.5103H29.0645V63.2976H45.7299V19.5103Z" fill="#F0F0F0"/>
<path d="M38.3016 18.4823H37.0615V64.3255H38.3016V18.4823Z" fill="#E0E0E0"/>
<path d="M91.4475 72.4708H54.213C53.893 72.4702 53.5863 72.3429 53.36 72.1166C53.1338 71.8903 53.0064 71.5836 53.0059 71.2636V17.03C53.0059 16.7098 53.133 16.4028 53.3594 16.1764C53.5858 15.95 53.8929 15.8228 54.213 15.8228H91.4475C91.7677 15.8228 92.0747 15.95 92.3011 16.1764C92.5275 16.4028 92.6547 16.7098 92.6547 17.03V71.2636C92.6541 71.5836 92.5268 71.8903 92.3005 72.1166C92.0742 72.3429 91.7675 72.4702 91.4475 72.4708ZM54.213 15.8743C53.9065 15.8743 53.6126 15.9961 53.3958 16.2128C53.1791 16.4296 53.0574 16.7235 53.0574 17.03V71.2636C53.0574 71.5701 53.1791 71.8641 53.3958 72.0808C53.6126 72.2975 53.9065 72.4193 54.213 72.4193H91.4475C91.754 72.4193 92.048 72.2975 92.2647 72.0808C92.4814 71.8641 92.6032 71.5701 92.6032 71.2636V17.03C92.6032 16.7235 92.4814 16.4296 92.2647 16.2128C92.048 15.9961 91.754 15.8743 91.4475 15.8743H54.213Z" fill="#E0E0E0"/>
<path d="M48.511 72.4708H11.2786C10.9582 72.4708 10.6509 72.3437 10.4242 72.1173C10.1975 71.891 10.0699 71.584 10.0693 71.2636V17.03C10.0693 16.8713 10.1006 16.7142 10.1614 16.5676C10.2222 16.421 10.3113 16.2878 10.4236 16.1757C10.5359 16.0636 10.6693 15.9747 10.816 15.9141C10.9627 15.8536 11.1199 15.8226 11.2786 15.8228H48.511C48.8312 15.8228 49.1382 15.95 49.3646 16.1764C49.591 16.4028 49.7182 16.7098 49.7182 17.03V71.2636C49.7182 71.4222 49.6869 71.5791 49.6263 71.7256C49.5656 71.872 49.4767 72.0051 49.3646 72.1172C49.2525 72.2293 49.1194 72.3182 48.973 72.3789C48.8265 72.4396 48.6695 72.4708 48.511 72.4708ZM11.2786 15.8743C10.9719 15.8743 10.6777 15.996 10.4607 16.2127C10.2436 16.4294 10.1214 16.7233 10.1208 17.03V71.2636C10.1214 71.5703 10.2436 71.8643 10.4607 72.0809C10.6777 72.2976 10.9719 72.4193 11.2786 72.4193H48.511C48.6628 72.4193 48.813 72.3894 48.9532 72.3313C49.0935 72.2732 49.2209 72.1881 49.3282 72.0808C49.4355 71.9735 49.5206 71.8461 49.5787 71.7059C49.6368 71.5657 49.6667 71.4154 49.6667 71.2636V17.03C49.6667 16.8782 49.6368 16.728 49.5787 16.5878C49.5206 16.4475 49.4355 16.3201 49.3282 16.2128C49.2209 16.1055 49.0935 16.0204 48.9532 15.9623C48.813 15.9042 48.6628 15.8743 48.511 15.8743H11.2786Z" fill="#E0E0E0"/>
<path d="M67.9594 24.5387L67.1993 27.1899H65.1537L64.3936 24.5387H67.9594Z" fill="#E6E6E6"/>
<path d="M66.2229 22.8969C66.2229 22.8969 64.3689 22.0214 64.3503 20.5361C64.3503 20.5361 66.1261 21.2324 66.2229 22.8969Z" fill="#E0E0E0"/>
<path d="M66.1775 23.9887C66.1775 23.9887 68.0768 23.2018 68.1571 21.7227C68.1571 21.7165 66.3608 22.3304 66.1775 23.9887Z" fill="#E0E0E0"/>
<path d="M65.8376 21.3251C65.8376 21.3251 67.5474 20.1797 67.3331 18.7089C67.3331 18.7089 65.6913 19.6647 65.8376 21.3251Z" fill="#E0E0E0"/>
<path d="M66.1754 24.6664L65.9694 24.6232C66.5009 22.0791 64.9003 18.6698 64.8838 18.6347L65.0733 18.5441C65.1434 18.6862 66.7234 22.0523 66.1754 24.6664Z" fill="#E0E0E0"/>
<path d="M62.7888 27.2002H58.6688L57.8943 23.1441H62.0143L62.7888 27.2002Z" fill="#F0F0F0"/>
<path d="M62.1295 26.6564H59.1198L58.9427 25.7417L58.5513 23.6879H61.563L61.7546 24.6973L62.1295 26.6564Z" fill="#FAFAFA"/>
<path d="M59.8431 24.7756C60.0126 24.7756 60.15 24.6382 60.15 24.4687C60.15 24.2992 60.0126 24.1617 59.8431 24.1617C59.6736 24.1617 59.5361 24.2992 59.5361 24.4687C59.5361 24.6382 59.6736 24.7756 59.8431 24.7756Z" fill="#E0E0E0"/>
<path d="M62.1296 26.6564H59.122L58.9448 25.7417C59.0175 25.6233 59.1175 25.5241 59.2365 25.4524C59.3556 25.3807 59.4901 25.3386 59.6287 25.3297C60.2467 25.3297 60.7865 25.7685 61.114 25.1814C61.2741 24.9604 61.4986 24.7942 61.7567 24.7056L62.1296 26.6564Z" fill="#E0E0E0"/>
<path d="M57.8943 23.1441L56.8025 27.192H57.6183H58.6688L57.8943 23.1441Z" fill="#E0E0E0"/>
<path d="M21.0385 28.3376C23.1531 27.4434 24.1425 25.0044 23.2484 22.8897C22.3543 20.7751 19.9152 19.7857 17.8006 20.6798C15.6859 21.5739 14.6965 24.013 15.5906 26.1276C16.4848 28.2423 18.9238 29.2317 21.0385 28.3376Z" fill="#E0E0E0"/>
<path d="M20.8855 28.0455C22.8395 27.2361 23.7674 24.996 22.9581 23.042C22.1487 21.088 19.9085 20.1601 17.9545 20.9694C16.0005 21.7788 15.0726 24.019 15.882 25.973C16.6914 27.927 18.9315 28.8549 20.8855 28.0455Z" fill="#FAFAFA"/>
<path d="M19.432 21.0264H19.2878V21.8257H19.432V21.0264Z" fill="#E0E0E0"/>
<path d="M19.432 27.1714H19.2878V27.9707H19.432V27.1714Z" fill="#E0E0E0"/>
<path d="M16.686 24.4275H15.8867V24.5717H16.686V24.4275Z" fill="#E0E0E0"/>
<path d="M22.831 24.4275H22.0317V24.5717H22.831V24.4275Z" fill="#E0E0E0"/>
<path d="M21.7633 21.9912L21.1982 22.5565L21.3002 22.6585L21.8653 22.0932L21.7633 21.9912Z" fill="#E0E0E0"/>
<path d="M17.4179 26.339L16.8528 26.9043L16.9548 27.0062L17.5198 26.441L17.4179 26.339Z" fill="#E0E0E0"/>
<path d="M16.9555 21.9904L16.8535 22.0924L17.4188 22.6575L17.5207 22.5555L16.9555 21.9904Z" fill="#E0E0E0"/>
<path d="M21.3002 26.3395L21.1982 26.4414L21.7633 27.0067L21.8653 26.9048L21.3002 26.3395Z" fill="#E0E0E0"/>
<path d="M19.3317 24.4036L19.2864 24.5186L20.6396 25.0514L20.6849 24.9364L19.3317 24.4036Z" fill="#E0E0E0"/>
<path d="M19.4196 24.5593H17.1865V24.4378H19.298V22.7032H19.4196V24.5593Z" fill="#E0E0E0"/>
<path d="M103 85.0512H0V85.1027H103V85.0512Z" fill="#E0E0E0"/>
<path d="M52.4703 93.4643C76.9401 93.4643 96.7768 92.8952 96.7768 92.1933C96.7768 91.4913 76.9401 90.9222 52.4703 90.9222C28.0005 90.9222 8.16382 91.4913 8.16382 92.1933C8.16382 92.8952 28.0005 93.4643 52.4703 93.4643Z" fill="#F5F5F5"/>
<path d="M14.5002 50.0766C13.9085 50.4377 13.4328 50.9609 13.1294 51.5842C12.826 52.2074 12.7076 52.9045 12.7883 53.593C13.2456 57.2598 14.4033 66.0642 15.1511 67.395C16.0967 69.0801 29.1323 68.0707 29.8101 66.536C30.4878 65.0013 28.6874 50.056 27.5441 48.8364C26.6068 47.8167 18.5872 47.516 14.5002 50.0766Z" fill="black"/>
<g opacity="0.6">
<path d="M14.5002 50.0766C13.9085 50.4377 13.4328 50.9609 13.1294 51.5842C12.826 52.2074 12.7076 52.9045 12.7883 53.593C13.2456 57.2598 14.4033 66.0642 15.1511 67.395C16.0967 69.0801 29.1323 68.0707 29.8101 66.536C30.4878 65.0013 28.6874 50.056 27.5441 48.8364C26.6068 47.8167 18.5872 47.516 14.5002 50.0766Z" fill="white"/>
</g>
<g opacity="0.5">
<path d="M16.0308 67.7349C16.0143 67.6339 14.2756 57.61 14.0841 53.9535C13.8781 50.2311 15.765 49.3844 15.8433 49.3514L15.9257 49.541C15.9072 49.541 14.1005 50.365 14.2901 53.9432C14.4816 57.5873 16.2162 67.5989 16.2347 67.6999L16.0308 67.7349Z" fill="white"/>
</g>
<path d="M23.7044 73.0023H22.5508V89.3875H23.7044V73.0023Z" fill="black"/>
<g opacity="0.5">
<path d="M23.7044 73.0023H22.5508V89.3875H23.7044V73.0023Z" fill="white"/>
</g>
<path d="M15.0235 89.6368H14.1006V89.1692C14.1006 88.3496 14.4261 87.5637 15.0056 86.9842C15.5851 86.4047 16.3711 86.0792 17.1906 86.0792H22.0584V87.002H17.1926C16.6173 87.0031 16.0659 87.2323 15.6593 87.6393C15.2527 88.0463 15.024 88.598 15.0235 89.1733V89.6368Z" fill="black"/>
<g opacity="0.6">
<path d="M15.0235 89.6368H14.1006V89.1692C14.1006 88.3496 14.4261 87.5637 15.0056 86.9842C15.5851 86.4047 16.3711 86.0792 17.1906 86.0792H22.0584V87.002H17.1926C16.6173 87.0031 16.0659 87.2323 15.6593 87.6393C15.2527 88.0463 15.024 88.598 15.0235 89.1733V89.6368Z" fill="white"/>
</g>
<path d="M16.0947 90.9021C16.2944 90.0561 15.7705 89.2084 14.9245 89.0088C14.0785 88.8091 13.2309 89.333 13.0312 90.179C12.8315 91.025 13.3555 91.8726 14.2014 92.0723C15.0474 92.2719 15.895 91.748 16.0947 90.9021Z" fill="black"/>
<g opacity="0.4">
<path d="M16.0947 90.9021C16.2944 90.0561 15.7705 89.2084 14.9245 89.0088C14.0785 88.8091 13.2309 89.333 13.0312 90.179C12.8315 91.025 13.3555 91.8726 14.2014 92.0723C15.0474 92.2719 15.895 91.748 16.0947 90.9021Z" fill="white"/>
</g>
<g opacity="0.5">
<path d="M14.5621 91.3383C15.0002 91.3383 15.3552 90.9833 15.3552 90.5452C15.3552 90.1072 15.0002 89.7521 14.5621 89.7521C14.1241 89.7521 13.769 90.1072 13.769 90.5452C13.769 90.9833 14.1241 91.3383 14.5621 91.3383Z" fill="white"/>
</g>
<path d="M24.24 91.6591C24.8546 91.0445 24.8546 90.048 24.24 89.4334C23.6254 88.8188 22.6289 88.8188 22.0142 89.4334C21.3996 90.048 21.3996 91.0445 22.0142 91.6591C22.6289 92.2738 23.6254 92.2738 24.24 91.6591Z" fill="black"/>
<g opacity="0.4">
<path d="M24.24 91.6591C24.8546 91.0445 24.8546 90.048 24.24 89.4334C23.6254 88.8188 22.6289 88.8188 22.0142 89.4334C21.3996 90.048 21.3996 91.0445 22.0142 91.6591C22.6289 92.2738 23.6254 92.2738 24.24 91.6591Z" fill="white"/>
</g>
<g opacity="0.5">
<path d="M23.1276 91.3383C23.5656 91.3383 23.9207 90.9833 23.9207 90.5452C23.9207 90.1072 23.5656 89.7521 23.1276 89.7521C22.6896 89.7521 22.3345 90.1072 22.3345 90.5452C22.3345 90.9833 22.6896 91.3383 23.1276 91.3383Z" fill="white"/>
</g>
<path d="M32.035 89.6368H31.106V89.1692C31.1054 88.5939 30.8768 88.0422 30.4702 87.6352C30.0635 87.2282 29.5121 86.999 28.9368 86.998H24.0752V86.0751H28.943C29.7625 86.0751 30.5484 86.4006 31.1279 86.9801C31.7074 87.5596 32.033 88.3456 32.033 89.1651L32.035 89.6368Z" fill="black"/>
<g opacity="0.6">
<path d="M32.035 89.6368H31.106V89.1692C31.1054 88.5939 30.8768 88.0422 30.4702 87.6352C30.0635 87.2282 29.5121 86.999 28.9368 86.998H24.0752V86.0751H28.943C29.7625 86.0751 30.5484 86.4006 31.1279 86.9801C31.7074 87.5596 32.033 88.3456 32.033 89.1651L32.035 89.6368Z" fill="white"/>
</g>
<path d="M32.7074 91.64C33.3083 91.0119 33.2862 90.0156 32.6581 89.4148C32.03 88.8139 31.0338 88.836 30.4329 89.4641C29.8321 90.0922 29.8541 91.0885 30.4822 91.6893C31.1103 92.2902 32.1066 92.2681 32.7074 91.64Z" fill="black"/>
<g opacity="0.4">
<path d="M32.7074 91.64C33.3083 91.0119 33.2862 90.0156 32.6581 89.4148C32.03 88.8139 31.0338 88.836 30.4329 89.4641C29.8321 90.0922 29.8541 91.0885 30.4822 91.6893C31.1103 92.2902 32.1066 92.2681 32.7074 91.64Z" fill="white"/>
</g>
<g opacity="0.5">
<path d="M30.7805 90.5452C30.7805 90.7021 30.827 90.8554 30.9142 90.9859C31.0013 91.1163 31.1252 91.2179 31.2701 91.278C31.415 91.338 31.5745 91.3537 31.7283 91.3231C31.8822 91.2925 32.0235 91.217 32.1344 91.106C32.2453 90.9951 32.3209 90.8538 32.3515 90.7C32.3821 90.5461 32.3664 90.3867 32.3063 90.2417C32.2463 90.0968 32.1447 89.9729 32.0142 89.8858C31.8838 89.7986 31.7305 89.7521 31.5736 89.7521C31.3633 89.7521 31.1615 89.8357 31.0128 89.9844C30.8641 90.1332 30.7805 90.3349 30.7805 90.5452Z" fill="white"/>
</g>
<path d="M24.1947 85.0883H22.0605V88.2175H24.1947V85.0883Z" fill="black"/>
<g opacity="0.6">
<path d="M24.1947 85.0883H22.0605V88.2175H24.1947V85.0883Z" fill="white"/>
</g>
<path d="M24.1947 72.8272H22.0605V75.9563H24.1947V72.8272Z" fill="black"/>
<g opacity="0.6">
<path d="M24.1947 72.8272H22.0605V75.9563H24.1947V72.8272Z" fill="white"/>
</g>
<path d="M30.5558 67.4588C30.5558 67.4588 31.3366 67.5824 33.2998 67.9141C33.9548 68.0253 34.5955 68.1304 35.1538 68.219C35.6981 68.3058 36.1937 68.584 36.5513 69.0035C36.9089 69.423 37.1051 69.9564 37.1046 70.5076C37.1048 70.8121 37.0451 71.1137 36.9288 71.3951C36.8124 71.6765 36.6418 71.9323 36.4265 72.1477C36.2113 72.3631 35.9557 72.534 35.6744 72.6506C35.3931 72.7672 35.0916 72.8272 34.7871 72.8272H18.8818C18.0974 72.8324 17.333 72.5792 16.7068 72.1067C16.0805 71.6343 15.6272 70.9688 15.4169 70.2131C15.1937 69.3131 15.1083 68.3844 15.1635 67.4588H30.5558Z" fill="black"/>
<g opacity="0.5">
<path d="M30.5558 67.4588C30.5558 67.4588 31.3366 67.5824 33.2998 67.9141C33.9548 68.0253 34.5955 68.1304 35.1538 68.219C35.6981 68.3058 36.1937 68.584 36.5513 69.0035C36.9089 69.423 37.1051 69.9564 37.1046 70.5076C37.1048 70.8121 37.0451 71.1137 36.9288 71.3951C36.8124 71.6765 36.6418 71.9323 36.4265 72.1477C36.2113 72.3631 35.9557 72.534 35.6744 72.6506C35.3931 72.7672 35.0916 72.8272 34.7871 72.8272H18.8818C18.0974 72.8324 17.333 72.5792 16.7068 72.1067C16.0805 71.6343 15.6272 70.9688 15.4169 70.2131C15.1937 69.3131 15.1083 68.3844 15.1635 67.4588H30.5558Z" fill="white"/>
</g>
<path d="M27.2888 49.6316C28.1025 50.8429 28.8894 52.118 29.6639 53.354C30.0595 53.972 30.4344 54.59 30.8361 55.1833C31.0297 55.482 31.2275 55.7725 31.4232 56.0506C31.6189 56.3287 31.8166 56.5944 31.9917 56.8086L32.1977 57.0476C32.1977 57.0476 32.2101 57.0661 32.1977 57.062C32.1854 57.0579 32.1586 57.0476 32.1586 57.0517C32.1636 57.0572 32.1678 57.0635 32.171 57.0703L32.2307 57.1032C32.3523 57.1652 32.4783 57.2182 32.6077 57.2618L33.0794 57.4205C33.7386 57.6265 34.4576 57.7995 35.1724 57.9849C36.6144 58.3413 38.0873 58.6832 39.5519 59.0788L39.4489 60.4631C37.914 60.6196 36.3709 60.6815 34.8284 60.6485C34.0476 60.6485 33.2731 60.5949 32.4552 60.5063C32.2492 60.4837 32.0432 60.4569 31.8228 60.4178C31.5837 60.3788 31.3471 60.3258 31.1142 60.2591L30.9082 60.1953C30.8258 60.1664 30.7454 60.1335 30.6651 60.0985C30.5663 60.0544 30.47 60.0049 30.3767 59.9501C30.2881 59.8986 30.2181 59.8533 30.148 59.8059C29.9226 59.6494 29.7072 59.4787 29.5033 59.2951C29.1788 58.999 28.8694 58.6869 28.5763 58.3598C28.2961 58.0508 28.0365 57.7418 27.7832 57.4328C27.2908 56.8148 26.8108 56.1968 26.3679 55.5541C25.4703 54.2967 24.6529 52.9839 23.9207 51.6236L27.2888 49.6316Z" fill="#407BFF"/>
<path opacity="0.2" d="M27.5461 51.0571L26.6294 50.9047C26.6294 50.9047 26.1721 53.0924 25.8054 54.7466C25.9888 55.0164 26.1721 55.2863 26.3616 55.5561C26.8045 56.1947 27.2845 56.8107 27.7768 57.4349C28.0302 57.7439 28.2898 58.0529 28.5699 58.3619C28.8631 58.6889 29.1725 59.0011 29.4969 59.2971C29.7009 59.4808 29.9163 59.6514 30.1417 59.808C30.2118 59.8554 30.2818 59.9007 30.3704 59.9522C30.4637 60.0069 30.56 60.0565 30.6588 60.1005C30.7391 60.1355 30.8195 60.1685 30.9019 60.1973L31.1079 60.2612C31.3408 60.3279 31.5774 60.3808 31.8165 60.4198C32.0328 60.4589 32.2429 60.4857 32.4489 60.5084C33.2544 60.5949 34.0186 60.6402 34.785 60.6505H35.3164C34.5645 60.6196 32.2656 60.4095 30.5784 58.984C28.5205 57.268 27.5461 51.0571 27.5461 51.0571Z" fill="black"/>
<path d="M21.7452 47.8147C21.7452 47.8147 17.6252 48.2267 17.0525 50.367C16.659 51.8687 16.7764 60.667 19.6295 65.9859C20.4371 67.4897 30.976 64.9024 30.564 63.9012C29.4084 61.0934 26.6953 54.3943 27.5461 51.0571C28.1435 48.719 23.7042 47.9012 23.7042 47.9012L21.7452 47.8147Z" fill="#407BFF"/>
<path opacity="0.2" d="M20.637 53.0388C20.637 53.0388 20.1982 55.14 20.9728 56.2813C21.7473 57.4225 23.4695 57.9107 24.4748 58.0446C25.4801 58.1785 19.813 58.1785 19.813 58.1785L18.9375 54.1389L20.637 53.0388Z" fill="black"/>
<g opacity="0.2">
<path d="M20.1715 65.4668C19.3475 64.3668 18.0559 58.1373 18.0002 57.8716L18.1012 57.851C18.1135 57.9148 19.4464 64.3235 20.2559 65.405L20.1715 65.4668Z" fill="white"/>
</g>
<g opacity="0.2">
<path d="M17.6067 59.9089C17.6067 59.9089 18.3339 62.2017 21.189 62.3809C24.0442 62.5602 29.4496 61.0378 29.4496 61.0378L29.3137 60.6258L17.6067 59.9089Z" fill="black"/>
</g>
<path d="M22.6394 51.294L23.2574 60.7432L24.9796 62.2244L25.8612 60.0881C25.8612 60.0881 23.8589 54.3387 23.3398 50.9088L22.6394 51.294Z" fill="#263238"/>
<path d="M25.5829 40.2277C25.5829 40.2277 26.3039 40.7633 25.6859 41.9396L24.8413 40.1989L25.5829 40.2277Z" fill="#263238"/>
<path d="M20.3012 42.4793C20.3012 42.4793 19.3928 41.6697 19.4772 41.3257C19.5699 40.9137 20.0375 41.0352 20.0375 41.0352C20.0375 41.0352 19.7986 39.4305 20.1797 39.072C20.4928 38.7754 20.9645 39.278 20.9645 39.278C20.9645 39.278 22.009 37.7289 22.6579 37.7557C23.3068 37.7825 22.9648 38.3222 22.9648 38.3222C22.9648 38.3222 24.6128 37.1253 25.1834 37.354C25.754 37.5826 25.4224 38.2027 25.4224 38.2027C25.4224 38.2027 26.6378 37.1294 26.9736 37.7907C27.3093 38.452 25.8591 39.4799 25.8591 39.4799C25.8591 39.4799 26.6831 39.6612 26.3205 40.1988C26.2325 40.3473 26.0932 40.4583 25.9288 40.5111C25.7645 40.5638 25.5866 40.5546 25.4286 40.4852L20.3012 42.4793Z" fill="#263238"/>
<path d="M23.7929 48.4265C23.6116 48.6675 23.249 48.9559 22.528 49.0445C21.6196 49.166 21.0675 48.5851 20.7832 48.2782C21.0363 46.8726 21.0503 45.4344 20.8244 44.0243L23.729 46.4448C23.5292 47.1493 23.4262 47.8744 23.7929 48.4265Z" fill="#FF8B7B"/>
<g opacity="0.2">
<path d="M22.009 45.0213L23.7291 46.453C23.649 46.7122 23.5938 46.9785 23.5643 47.2482C22.9072 47.1431 22.0935 46.6075 21.8463 45.9256C21.6918 45.5013 21.8463 45.0666 22.009 45.0213Z" fill="black"/>
</g>
<path d="M20.3425 41.8448C20.3085 41.3936 20.3904 40.9411 20.5804 40.5305C20.7704 40.1198 21.0622 39.7645 21.4281 39.4982C21.794 39.232 22.2218 39.0637 22.6711 39.0093C23.1203 38.9549 23.576 39.0162 23.9948 39.1874C25.8983 39.964 26.162 42.848 25.75 44.5867C25.2906 46.5251 22.8948 47.4212 21.424 45.9236C20.4393 44.9307 20.4661 43.7874 20.3425 41.8448Z" fill="#FF8B7B"/>
<path d="M23.7517 42.9716C23.7358 42.9716 23.7203 42.9667 23.7074 42.9574C23.6944 42.9482 23.6847 42.9351 23.6796 42.9201C23.6652 42.8636 23.6369 42.8116 23.5973 42.7688C23.5578 42.726 23.5081 42.6938 23.453 42.675C23.3592 42.6553 23.2614 42.6715 23.179 42.7203C23.1692 42.7339 23.1552 42.7438 23.1392 42.7487C23.1232 42.7535 23.1061 42.753 23.0904 42.7471C23.0711 42.7401 23.0554 42.7258 23.0465 42.7073C23.0376 42.6888 23.0364 42.6676 23.043 42.6482C23.0698 42.574 23.249 42.5122 23.3726 42.5122C23.4775 42.511 23.5796 42.5457 23.6621 42.6105C23.7445 42.6753 23.8023 42.7664 23.8258 42.8686C23.8324 42.888 23.8312 42.9093 23.8223 42.9277C23.8135 42.9462 23.7977 42.9605 23.7784 42.9675L23.7517 42.9716Z" fill="#263238"/>
<path d="M24.961 43.0025H24.9425C24.9327 43.0001 24.9235 42.9958 24.9155 42.9898C24.9074 42.9839 24.9006 42.9763 24.8954 42.9677C24.8902 42.9591 24.8868 42.9496 24.8853 42.9396C24.8839 42.9297 24.8844 42.9196 24.8869 42.9098C24.9569 42.6235 25.1361 42.5679 25.2371 42.5617C25.338 42.5555 25.5358 42.6173 25.5646 42.6873C25.5721 42.7065 25.5717 42.7278 25.5636 42.7467C25.5555 42.7656 25.5403 42.7805 25.5213 42.7883C25.5055 42.7942 25.4883 42.795 25.472 42.7905C25.4558 42.7861 25.4413 42.7767 25.4307 42.7636C25.3968 42.7419 25.3589 42.7273 25.3193 42.7206C25.2797 42.7139 25.2391 42.7152 25.2 42.7244C25.1555 42.7439 25.1168 42.7747 25.0879 42.8137C25.059 42.8527 25.0408 42.8986 25.0352 42.9469C25.031 42.9632 25.0213 42.9776 25.0079 42.9877C24.9944 42.9978 24.9779 43.003 24.961 43.0025Z" fill="#263238"/>
<path d="M25.0639 44.5599C25.0073 44.7052 24.9153 44.8342 24.7962 44.9349C24.6771 45.0357 24.5347 45.105 24.382 45.1367C24.3088 45.1514 24.2339 45.1556 24.1595 45.149C24.007 45.1487 23.8573 45.1072 23.7264 45.0289C23.5955 44.9506 23.4882 44.8383 23.4159 44.7041C23.3398 44.564 23.2902 44.411 23.2696 44.2529C23.2679 44.2378 23.2701 44.2226 23.276 44.2086C23.2819 44.1946 23.2913 44.1823 23.3033 44.173C23.3153 44.1637 23.3295 44.1577 23.3445 44.1554C23.3595 44.1532 23.3749 44.1548 23.3891 44.1602C23.3891 44.1602 23.3891 44.1602 23.4014 44.1602C23.9057 44.3492 24.441 44.4414 24.9794 44.4321C25.0014 44.4322 25.0226 44.4402 25.0391 44.4548C25.0549 44.4667 25.066 44.4837 25.0705 44.5029C25.075 44.5221 25.0726 44.5422 25.0639 44.5599Z" fill="#263238"/>
<path d="M24.3822 45.1367C24.309 45.1514 24.234 45.1556 24.1597 45.149C24.0071 45.1487 23.8575 45.1072 23.7266 45.0289C23.5957 44.9506 23.4884 44.8384 23.416 44.7041C23.6494 44.6707 23.8873 44.6933 24.1102 44.77C24.1896 44.7927 24.2593 44.8409 24.3084 44.9072C24.3576 44.9735 24.3835 45.0542 24.3822 45.1367Z" fill="#FF5652"/>
<path d="M25.0393 44.461C25.0245 44.493 25.0042 44.5223 24.9796 44.5475C24.823 44.7082 23.5664 44.4466 23.4758 44.3745C23.4251 44.3181 23.3985 44.2442 23.4016 44.1685C23.9059 44.3574 24.4412 44.4496 24.9796 44.4404C25.0013 44.4399 25.0225 44.4472 25.0393 44.461Z" fill="white"/>
<path d="M20.3094 42.2712C20.3094 42.3618 20.7358 43.1117 21.2632 42.9592C21.7906 42.8068 21.4692 41.371 21.4692 41.371C21.4692 41.371 22.4992 41.4699 22.1943 40.6047C22.4403 40.7579 22.7318 40.8212 23.0191 40.7836C23.3065 40.7461 23.5719 40.61 23.7702 40.3987C23.7702 40.3987 24.9897 41.1506 25.581 40.6974C25.581 40.6974 25.651 38.9731 23.6981 38.5282C22.5981 38.2872 20.1529 39.14 20.3094 42.2712Z" fill="#263238"/>
<path d="M19.5122 43.466C19.6498 43.9345 19.9666 44.3298 20.3939 44.566C20.9666 44.8709 21.393 44.393 21.3497 43.7812C21.3126 43.2291 20.9686 42.4051 20.3383 42.3515C19.7079 42.298 19.3412 42.8913 19.5143 43.4681" fill="#FF8B7B"/>
<path d="M25.6058 42.0714C25.5923 42.0694 25.5796 42.064 25.5687 42.0557C25.5579 42.0474 25.5494 42.0365 25.544 42.024C25.52 41.9751 25.4862 41.9315 25.4448 41.8961C25.4033 41.8607 25.3551 41.8341 25.3029 41.818C25.1963 41.7964 25.0853 41.8132 24.9898 41.8654C24.9723 41.8758 24.9515 41.8788 24.9318 41.8738C24.912 41.8687 24.8951 41.8561 24.8848 41.8386C24.8744 41.8211 24.8714 41.8002 24.8764 41.7805C24.8814 41.7608 24.8941 41.7439 24.9115 41.7336C25.0422 41.6577 25.1968 41.6341 25.3441 41.6676C25.4158 41.6895 25.4822 41.7255 25.5396 41.7737C25.5969 41.8218 25.644 41.881 25.6779 41.9478C25.683 41.9566 25.6863 41.9663 25.6876 41.9763C25.6889 41.9864 25.6882 41.9966 25.6855 42.0064C25.6829 42.0162 25.6782 42.0253 25.672 42.0333C25.6657 42.0413 25.6579 42.0479 25.649 42.0529C25.6375 42.0643 25.622 42.0709 25.6058 42.0714Z" fill="#263238"/>
<path d="M22.9091 42.1332C22.8982 42.1351 22.8871 42.1351 22.8762 42.1332C22.8671 42.1288 22.8589 42.1226 22.8522 42.1151C22.8455 42.1075 22.8403 42.0986 22.8371 42.089C22.8338 42.0795 22.8325 42.0693 22.8332 42.0592C22.8339 42.0491 22.8366 42.0392 22.8412 42.0302C22.9091 41.8953 23.0253 41.7909 23.1666 41.7377C23.2388 41.7161 23.3146 41.7095 23.3893 41.7183C23.4641 41.7272 23.5362 41.7513 23.6013 41.7892C23.6165 41.8001 23.6274 41.8161 23.6318 41.8342C23.6363 41.8524 23.6341 41.8716 23.6256 41.8883C23.6171 41.905 23.6029 41.9181 23.5856 41.9252C23.5683 41.9324 23.549 41.9331 23.5313 41.9272C23.4842 41.8995 23.4321 41.8813 23.378 41.8739C23.3239 41.8665 23.2689 41.8699 23.2161 41.8839C23.1156 41.923 23.0318 41.9958 22.9792 42.0899C22.9725 42.1028 22.9625 42.1136 22.9501 42.1212C22.9378 42.1288 22.9236 42.133 22.9091 42.1332Z" fill="#263238"/>
<path d="M23.4241 43.4495C23.2291 43.4482 23.0426 43.3694 22.9056 43.2305C22.7687 43.0916 22.6925 42.904 22.6939 42.709C22.6952 42.5139 22.774 42.3274 22.9129 42.1904C23.0518 42.0535 23.2394 41.9773 23.4344 41.9787C23.531 41.9798 23.6265 42 23.7152 42.0382C23.804 42.0764 23.8843 42.1318 23.9515 42.2012C24.0524 42.3048 24.1205 42.4359 24.1472 42.578C24.174 42.7202 24.1582 42.8671 24.1019 43.0003C24.0457 43.1335 23.9513 43.2472 23.8308 43.3271C23.7102 43.407 23.5688 43.4496 23.4241 43.4495ZM23.4344 42.0817C23.2667 42.0817 23.1058 42.1483 22.9872 42.2669C22.8686 42.3855 22.802 42.5464 22.802 42.7141C22.802 42.8818 22.8686 43.0427 22.9872 43.1613C23.1058 43.2799 23.2667 43.3465 23.4344 43.3465C23.5997 43.3466 23.7584 43.2819 23.8766 43.1664C23.9948 43.0509 24.0631 42.8937 24.0669 42.7285C24.0691 42.5618 24.0054 42.401 23.8897 42.2811C23.7739 42.1611 23.6155 42.0917 23.4489 42.0879L23.4344 42.0817Z" fill="white"/>
<path d="M25.3256 43.3486C25.2289 43.3478 25.1334 43.3278 25.0446 43.2896C24.9558 43.2514 24.8755 43.1958 24.8085 43.1261C24.7108 43.0223 24.6454 42.8922 24.6205 42.7518C24.5955 42.6114 24.612 42.4668 24.668 42.3356C24.7239 42.2045 24.8169 42.0925 24.9355 42.0134C25.0542 41.9342 25.1933 41.8914 25.3359 41.8901C25.4325 41.8909 25.5281 41.9109 25.6169 41.9491C25.7057 41.9873 25.7859 42.0429 25.8529 42.1126C25.9879 42.2522 26.062 42.4396 26.0589 42.6338C26.0576 42.7303 26.0373 42.8257 25.9991 42.9144C25.9609 43.0031 25.9057 43.0835 25.8364 43.1508C25.6984 43.2808 25.5151 43.3518 25.3256 43.3486ZM25.3256 41.9828C25.2217 41.9824 25.1193 42.0076 25.0275 42.0562C24.9357 42.1047 24.8573 42.1752 24.7991 42.2612C24.741 42.3473 24.705 42.4464 24.6942 42.5497C24.6834 42.653 24.6983 42.7573 24.7374 42.8535C24.7766 42.9498 24.8388 43.0348 24.9186 43.1013C24.9984 43.1677 25.0934 43.2135 25.1951 43.2345C25.2968 43.2556 25.4022 43.2512 25.5018 43.2219C25.6014 43.1926 25.6923 43.1392 25.7664 43.0664C25.8264 43.0092 25.8743 42.9405 25.9072 42.8644C25.9401 42.7883 25.9574 42.7064 25.958 42.6235C25.9607 42.4566 25.8972 42.2955 25.7814 42.1754C25.6656 42.0553 25.5068 41.9861 25.34 41.9828H25.3256Z" fill="white"/>
<path d="M24.3718 42.5349C24.5833 42.8662 24.8367 43.1688 25.1258 43.4351C25.5234 43.7668 24.5078 43.9995 24.5078 43.9995L24.3718 42.5349Z" fill="#FF5652"/>
<path d="M24.6417 42.6564C24.633 42.6594 24.6236 42.6594 24.6149 42.6564C24.5466 42.6061 24.4644 42.5782 24.3796 42.5763C24.2948 42.5745 24.2115 42.5989 24.1411 42.6461C24.1304 42.6549 24.1167 42.659 24.103 42.6577C24.0893 42.6563 24.0767 42.6496 24.0679 42.6389C24.0592 42.6283 24.0551 42.6146 24.0564 42.6008C24.0578 42.5871 24.0645 42.5745 24.0752 42.5658C24.1623 42.5044 24.2663 42.4715 24.3728 42.4715C24.4794 42.4715 24.5834 42.5044 24.6705 42.5658C24.6762 42.5693 24.681 42.574 24.6849 42.5795C24.6887 42.585 24.6913 42.5912 24.6927 42.5977C24.694 42.6043 24.694 42.611 24.6927 42.6176C24.6914 42.6241 24.6887 42.6303 24.6849 42.6358C24.6799 42.6425 24.6734 42.6479 24.6658 42.6515C24.6583 42.655 24.65 42.6567 24.6417 42.6564Z" fill="white"/>
<path d="M22.7527 42.6297C22.7406 42.6292 22.7291 42.6249 22.7197 42.6173C22.4943 42.4391 22.2164 42.3405 21.9291 42.3367C21.6418 42.333 21.3614 42.4244 21.1315 42.5967C21.1259 42.6007 21.1197 42.6035 21.113 42.605C21.1064 42.6065 21.0995 42.6067 21.0928 42.6055C21.0861 42.6044 21.0797 42.6019 21.074 42.5983C21.0682 42.5947 21.0633 42.5899 21.0594 42.5843C21.0519 42.573 21.049 42.5592 21.0513 42.5459C21.0536 42.5325 21.0609 42.5205 21.0717 42.5122C21.3215 42.3299 21.6239 42.2339 21.9332 42.2387C22.2424 42.2436 22.5416 42.349 22.7856 42.539C22.7906 42.5436 22.7945 42.5492 22.7972 42.5554C22.7999 42.5616 22.8012 42.5683 22.8012 42.5751C22.8012 42.5818 22.7999 42.5885 22.7972 42.5947C22.7945 42.6009 22.7906 42.6065 22.7856 42.6111C22.7774 42.6213 22.7656 42.6279 22.7527 42.6297Z" fill="white"/>
<path d="M20.8429 47.5304C20.8429 47.5304 19.7243 47.5737 19.4194 48.5975L21.8729 51.2508L22.528 49.0548C22.528 49.0548 21.0118 48.5192 20.8429 47.5304Z" fill="#407BFF"/>
<path d="M21.7987 51.2219H21.774C20.4494 50.5359 19.44 48.7087 19.4297 48.6902C19.4237 48.6781 19.4224 48.6641 19.4262 48.6511C19.4301 48.6381 19.4387 48.627 19.4503 48.6201C19.4624 48.6141 19.4764 48.6128 19.4894 48.6166C19.5024 48.6205 19.5135 48.6291 19.5204 48.6407C19.5204 48.6593 20.5257 50.4597 21.8214 51.1313C21.8314 51.1366 21.8393 51.1451 21.8439 51.1555C21.8486 51.1658 21.8497 51.1773 21.8471 51.1884C21.8446 51.1994 21.8384 51.2092 21.8297 51.2164C21.8209 51.2236 21.81 51.2277 21.7987 51.2281V51.2219Z" fill="white"/>
<path d="M23.896 50.676C23.888 50.676 23.8801 50.6741 23.873 50.6706C23.8658 50.667 23.8596 50.6618 23.8548 50.6554C23.8454 50.6458 23.8401 50.6328 23.8401 50.6194C23.8401 50.6059 23.8454 50.5929 23.8548 50.5833C24.4728 50.1013 24.9919 48.4594 24.9981 48.443C25.0019 48.4299 25.0108 48.4188 25.0228 48.4122C25.0348 48.4057 25.0489 48.4041 25.062 48.4079C25.0752 48.4122 25.0863 48.4215 25.0929 48.4338C25.0994 48.4461 25.1009 48.4605 25.097 48.4739C25.0743 48.5418 24.5717 50.1631 23.9166 50.6657C23.9106 50.6706 23.9036 50.6742 23.896 50.676Z" fill="white"/>
<path d="M23.5128 47.7158C23.5128 47.7158 23.245 48.7252 22.5281 49.0548L23.7991 50.4659C23.7991 50.4659 24.963 48.958 24.8435 48.1999C24.6785 48.0161 24.4708 47.8758 24.2387 47.7914C24.0066 47.707 23.7573 47.681 23.5128 47.7158Z" fill="#407BFF"/>
<path d="M22.5281 49.0548L21.873 51.2507L23.0905 52.1983L23.7991 50.4659L22.5281 49.0548Z" fill="#263238"/>
<path d="M25.1833 64.8138C25.1833 64.8138 22.8308 70.1471 27.8778 71.4923C31.3283 72.4131 36.3547 70.0956 38.5795 70.829C38.5795 70.829 37.6093 71.1709 36.4866 74.9284C35.3639 78.6858 33.1906 87.8013 33.1906 87.8013L35.8686 87.9105C35.8686 87.9105 43.2619 71.2018 43.4061 68.5465C43.5503 65.8912 30.321 63.9939 30.321 63.9939L25.1833 64.8138Z" fill="#263238"/>
<path d="M39.2202 68.7092C39.076 71.3605 30.0676 87.892 30.0676 87.892L27.6389 87.8281H27.5318L26.7366 87.8075C26.7366 87.8075 29.4579 79.1452 30.5765 75.396C31.5941 71.9908 32.8981 71.6118 33.1329 71.5706C30.1356 71.8858 26.4338 72.273 22.39 71.8466C17.1597 71.2945 19.4277 65.576 19.4277 65.576L20.3259 65.4586L20.4392 65.4441L25.1772 64.8261C25.1772 64.8261 39.3624 66.058 39.2202 68.7092Z" fill="#263238"/>
<g opacity="0.2">
<path d="M20.9088 67.6071C20.6417 67.6049 20.3756 67.5724 20.1157 67.5103L20.1384 67.4094C20.95 67.5968 21.6463 67.5021 22.1984 67.1251C23.2284 66.4391 23.4653 65.0363 23.4673 65.0219L23.5683 65.0383C23.5683 65.0548 23.319 66.4989 22.2561 67.2116C21.8563 67.4746 21.3873 67.6123 20.9088 67.6071Z" fill="white"/>
</g>
<g opacity="0.2">
<path d="M34.2474 71.3584C32.9746 73.0737 31.911 74.9347 31.0791 76.9019C29.7154 80.1299 27.8016 87.2204 27.6389 87.8199V87.8611C27.6355 87.8722 27.6287 87.8819 27.6194 87.8889C27.6102 87.8959 27.599 87.8999 27.5874 87.9002H27.575C27.5621 87.896 27.5512 87.8871 27.5444 87.8753C27.5375 87.8636 27.5353 87.8497 27.538 87.8364V87.8199C27.643 87.4326 29.598 80.1443 30.9905 76.8566C31.8259 74.8831 32.8929 73.016 34.1691 71.2946C34.647 70.6292 34.9622 70.1904 34.9025 69.9823C34.8915 69.9512 34.8733 69.9232 34.8493 69.9006C34.8252 69.8781 34.7962 69.8616 34.7644 69.8526C34.4678 69.729 33.1164 69.8752 31.3963 70.0586C28.2054 70.4046 23.8361 70.8826 21.6464 70.1842C21.37 70.1023 21.1134 69.9643 20.8926 69.779C20.6718 69.5936 20.4916 69.3648 20.363 69.1068C19.71 67.8235 20.1817 65.9571 20.3321 65.4421L20.4454 65.4277C20.3197 65.8541 19.8068 67.7884 20.4454 69.0615C20.568 69.3078 20.7399 69.5263 20.9504 69.7034C21.1608 69.8806 21.4054 70.0127 21.669 70.0915C23.8382 70.7816 28.1972 70.3078 31.3778 69.9617C33.1762 69.766 34.4678 69.626 34.7953 69.7557C34.8441 69.7702 34.8886 69.7966 34.9245 69.8325C34.9605 69.8685 34.9869 69.9129 35.0013 69.9617C35.0673 70.2151 34.7768 70.6209 34.2474 71.3584Z" fill="white"/>
</g>
<path d="M27.1032 87.8054L26.6809 89.9478H28.4257L29.4145 88.0526L27.1032 87.8054Z" fill="#FF8B7B"/>
<path d="M26.6747 89.5111C26.6747 89.5111 26.2751 89.4493 26.2957 89.9478C26.3163 90.4464 25.8837 91.6473 25.9043 92.1088H31.2603C31.2603 92.1088 31.4333 90.9655 30.461 90.9304C29.1591 90.8851 28.7162 90.1373 28.7162 90.1373C28.64 89.6141 28.265 89.7892 27.715 89.8448C27.2206 89.8963 26.6747 89.5111 26.6747 89.5111Z" fill="#407BFF"/>
<path d="M29.0025 90.434C28.9291 90.4453 28.8586 90.4712 28.7953 90.5101C28.732 90.549 28.6771 90.6002 28.6338 90.6606" fill="black"/>
<path d="M28.6338 90.7121C28.6251 90.7148 28.6158 90.7148 28.607 90.7121C28.5955 90.7045 28.5874 90.6928 28.5844 90.6793C28.5813 90.6659 28.5835 90.6518 28.5906 90.64C28.6394 90.5737 28.7011 90.5179 28.7718 90.4758C28.8426 90.4337 28.921 90.4062 29.0026 90.3948C29.0159 90.3937 29.0292 90.3978 29.0396 90.4062C29.0499 90.4147 29.0566 90.4269 29.0582 90.4402C29.059 90.4469 29.0585 90.4538 29.0567 90.4604C29.0549 90.467 29.0518 90.4731 29.0476 90.4785C29.0434 90.4839 29.0381 90.4883 29.0322 90.4917C29.0262 90.495 29.0196 90.4971 29.0129 90.4978C28.946 90.508 28.8818 90.5315 28.8241 90.5669C28.7665 90.6023 28.7165 90.6488 28.6771 90.7038C28.671 90.7085 28.6639 90.7116 28.6564 90.7131C28.6489 90.7145 28.6412 90.7142 28.6338 90.7121Z" fill="black"/>
<path d="M29.2519 90.5494C29.1777 90.5595 29.1063 90.5844 29.0419 90.6227C28.9775 90.6609 28.9214 90.7116 28.877 90.7719" fill="black"/>
<path d="M28.8789 90.8234C28.8701 90.8251 28.861 90.8251 28.8522 90.8234C28.8407 90.8158 28.8325 90.804 28.8295 90.7906C28.8264 90.7772 28.8286 90.7631 28.8357 90.7513C28.8846 90.685 28.9462 90.6292 29.0169 90.5871C29.0877 90.545 29.1661 90.5175 29.2477 90.5061C29.2613 90.5048 29.275 90.5089 29.2856 90.5176C29.2962 90.5263 29.303 90.5388 29.3043 90.5525C29.3057 90.5661 29.3016 90.5798 29.2929 90.5904C29.2842 90.601 29.2716 90.6078 29.258 90.6091C29.1912 90.6195 29.1271 90.6431 29.0694 90.6785C29.0118 90.7138 28.9617 90.7603 28.9222 90.8151C28.9161 90.8197 28.909 90.8229 28.9015 90.8243C28.894 90.8257 28.8863 90.8254 28.8789 90.8234Z" fill="black"/>
<path d="M29.563 90.6977C29.4892 90.708 29.4181 90.733 29.3541 90.7712C29.2901 90.8094 29.2343 90.8601 29.1902 90.9202" fill="black"/>
<path d="M29.19 90.9717C29.1812 90.9744 29.1719 90.9744 29.1632 90.9717C29.1517 90.9641 29.1436 90.9524 29.1405 90.9389C29.1374 90.9255 29.1397 90.9114 29.1467 90.8996C29.1956 90.8333 29.2572 90.7775 29.328 90.7354C29.3987 90.6933 29.4772 90.6658 29.5587 90.6544C29.5723 90.6532 29.5858 90.6573 29.5965 90.6657C29.6072 90.6741 29.6143 90.6863 29.6164 90.6998C29.6173 90.7065 29.6168 90.7134 29.6149 90.72C29.6131 90.7266 29.61 90.7327 29.6058 90.7381C29.6016 90.7434 29.5963 90.7479 29.5904 90.7513C29.5844 90.7546 29.5779 90.7567 29.5711 90.7574C29.5042 90.7676 29.44 90.7911 29.3823 90.8265C29.3247 90.8619 29.2747 90.9084 29.2353 90.9634C29.2289 90.9682 29.2215 90.9715 29.2136 90.9729C29.2057 90.9743 29.1976 90.9739 29.19 90.9717Z" fill="black"/>
<path d="M31.2213 91.7977H25.9394C25.9258 91.7977 25.9127 91.7923 25.903 91.7826C25.8934 91.773 25.8879 91.7599 25.8879 91.7462C25.8879 91.7325 25.8934 91.7194 25.903 91.7098C25.9127 91.7001 25.9258 91.6947 25.9394 91.6947H31.2213C31.2349 91.6947 31.248 91.7001 31.2577 91.7098C31.2674 91.7194 31.2728 91.7325 31.2728 91.7462C31.2728 91.7599 31.2674 91.773 31.2577 91.7826C31.248 91.7923 31.2349 91.7977 31.2213 91.7977Z" fill="black"/>
<path d="M30.3335 88.7324H26.197L26.4586 87.4594H30.5931L30.3335 88.7324Z" fill="#263238"/>
<g opacity="0.3">
<path d="M30.3335 88.7324H26.197L26.4586 87.4594H30.5931L30.3335 88.7324Z" fill="white"/>
</g>
<path d="M33.4996 87.8054L33.168 89.9478H34.9128L35.6564 88.0341L33.4996 87.8054Z" fill="#FF8B7B"/>
<path d="M33.1453 89.5111C33.1453 89.5111 32.7333 89.4493 32.7828 89.9478C32.8322 90.4464 32.4429 91.6473 32.482 92.1088H37.838C37.838 92.1088 37.9616 90.9655 36.9872 90.9304C35.6853 90.8851 35.2095 90.1373 35.2095 90.1373C35.1126 89.6141 34.7439 89.7892 34.1959 89.8448C33.7057 89.8963 33.1453 89.5111 33.1453 89.5111Z" fill="#407BFF"/>
<path d="M35.5123 90.434C35.4395 90.4439 35.3694 90.4687 35.3067 90.507C35.2439 90.5453 35.1898 90.5962 35.1477 90.6565" fill="black"/>
<path d="M35.1476 90.7121C35.1389 90.7148 35.1296 90.7148 35.1209 90.7121C35.115 90.7087 35.11 90.7042 35.1059 90.6988C35.1019 90.6934 35.099 90.6872 35.0975 90.6806C35.096 90.6741 35.0958 90.6673 35.097 90.6606C35.0981 90.654 35.1007 90.6477 35.1044 90.6421C35.1515 90.5739 35.2126 90.5165 35.2836 90.4739C35.3547 90.4312 35.4341 90.4043 35.5164 90.3949C35.5299 90.3941 35.5431 90.3983 35.5538 90.4067C35.5644 90.415 35.5716 90.4269 35.5741 90.4402C35.5753 90.4538 35.5712 90.4673 35.5628 90.478C35.5544 90.4887 35.5422 90.4958 35.5287 90.4979C35.4632 90.5077 35.4004 90.5311 35.3443 90.5666C35.2883 90.6021 35.2403 90.6488 35.2033 90.7039C35.1956 90.71 35.1863 90.7141 35.1766 90.7155C35.1668 90.717 35.1568 90.7158 35.1476 90.7121Z" fill="black"/>
<path d="M35.7655 90.5494C35.6926 90.5592 35.6226 90.5841 35.5599 90.6224C35.4971 90.6607 35.443 90.7116 35.4009 90.7719" fill="black"/>
<path d="M35.4009 90.8234C35.3928 90.8252 35.3844 90.8252 35.3762 90.8234C35.3645 90.8165 35.356 90.8053 35.3525 90.7922C35.3491 90.779 35.3509 90.7651 35.3577 90.7533C35.4049 90.6853 35.4661 90.6281 35.5371 90.5855C35.6082 90.5429 35.6874 90.5158 35.7697 90.5061C35.7833 90.5049 35.7968 90.5089 35.8075 90.5174C35.8182 90.5258 35.8253 90.538 35.8274 90.5514C35.8282 90.5582 35.8277 90.5651 35.8259 90.5717C35.8241 90.5783 35.821 90.5844 35.8168 90.5898C35.8125 90.5951 35.8073 90.5996 35.8013 90.6029C35.7954 90.6063 35.7888 90.6084 35.782 90.6091C35.7173 90.6179 35.6551 90.6398 35.5991 90.6734C35.5432 90.7071 35.4946 90.7518 35.4566 90.8048C35.4501 90.813 35.4414 90.8191 35.4315 90.8224C35.4216 90.8257 35.411 90.826 35.4009 90.8234Z" fill="black"/>
<path d="M36.0829 90.6977C36.01 90.7075 35.94 90.7324 35.8772 90.7707C35.8145 90.809 35.7603 90.8599 35.7183 90.9202" fill="black"/>
<path d="M35.7181 90.9717C35.7094 90.9744 35.7001 90.9744 35.6913 90.9717C35.68 90.9645 35.6719 90.9531 35.6688 90.94C35.6658 90.9269 35.6679 90.9132 35.6749 90.9016C35.721 90.8348 35.7805 90.7783 35.8497 90.7358C35.9189 90.6932 35.9961 90.6655 36.0766 90.6544C36.0901 90.6532 36.1037 90.6573 36.1144 90.6657C36.1251 90.6741 36.1322 90.6863 36.1343 90.6998C36.1355 90.7133 36.1314 90.7269 36.123 90.7376C36.1146 90.7483 36.1024 90.7554 36.0889 90.7574C36.0234 90.7673 35.9606 90.7907 35.9045 90.8262C35.8485 90.8617 35.8004 90.9084 35.7635 90.9634C35.7569 90.968 35.7495 90.9711 35.7417 90.9725C35.7339 90.9739 35.7258 90.9736 35.7181 90.9717Z" fill="black"/>
<path d="M37.7845 91.7977H32.5027C32.489 91.7977 32.4759 91.7923 32.4663 91.7826C32.4566 91.773 32.4512 91.7599 32.4512 91.7462C32.4512 91.7325 32.4566 91.7194 32.4663 91.7098C32.4759 91.7001 32.489 91.6947 32.5027 91.6947H37.7845C37.7982 91.6947 37.8113 91.7001 37.8209 91.7098C37.8306 91.7194 37.836 91.7325 37.836 91.7462C37.836 91.7599 37.8306 91.773 37.8209 91.7826C37.8113 91.7923 37.7982 91.7977 37.7845 91.7977Z" fill="black"/>
<path d="M36.3199 88.7324H32.6345L32.8179 87.4594H36.5032L36.3199 88.7324Z" fill="#263238"/>
<g opacity="0.3">
<path d="M36.3199 88.7324H32.6345L32.8179 87.4594H36.5032L36.3199 88.7324Z" fill="white"/>
</g>
<path d="M21.0592 51.9594L20.9768 52.153L20.88 52.3899C20.8182 52.5486 20.7543 52.7113 20.6946 52.874C20.5792 53.2016 20.4659 53.5291 20.3794 53.8546C20.2026 54.4484 20.0968 55.0611 20.0642 55.6798C20.0569 55.9144 20.0741 56.1491 20.1157 56.3802C20.1425 56.5393 20.1932 56.6935 20.2661 56.8375C20.3383 56.9613 20.4318 57.0715 20.5421 57.163C20.7092 57.2944 20.8972 57.3967 21.0983 57.4658C21.3662 57.5592 21.642 57.6282 21.9223 57.6718L22.0418 57.6924L22.1901 57.715L22.4868 57.7583L23.0821 57.8428C23.8773 57.9554 24.6752 58.0652 25.4758 58.1724C27.0744 58.3887 28.6977 58.5844 30.2962 58.8233L30.3354 60.9657C28.6798 61.2226 27.0115 61.389 25.3378 61.4642C24.5035 61.5013 23.6692 61.5302 22.8308 61.5302H21.7307H21.5453C21.017 61.5006 20.4931 61.4171 19.9818 61.2809C19.3926 61.1307 18.8289 60.894 18.3091 60.5784C18.024 60.404 17.7564 60.2025 17.5098 59.9769C17.2598 59.7423 17.0329 59.4843 16.8321 59.2065C16.4509 58.6684 16.1678 58.0673 15.9957 57.4308C15.8442 56.8661 15.7633 56.2849 15.7547 55.7004C15.7472 54.6812 15.886 53.6663 16.1667 52.6866C16.292 52.2289 16.4405 51.7778 16.6116 51.3352C16.6961 51.1169 16.7847 50.8985 16.8815 50.6822L17.0339 50.3567L17.1143 50.1899L17.2132 49.9962L21.0592 51.9594Z" fill="#407BFF"/>
<g opacity="0.2">
<path d="M19.4875 61.1449C19.4875 61.1346 19.4586 60.187 18.8242 59.6082C18.1897 59.0293 17.1082 59.4187 17.0958 59.4228L17.0608 59.326C17.1082 59.3095 18.2185 58.914 18.8921 59.532C19.5658 60.15 19.5905 61.1017 19.5905 61.1429L19.4875 61.1449Z" fill="white"/>
</g>
<path d="M34.4225 60.976H32.4037L30.3108 60.8792L30.0759 59.4578C30.0759 59.4578 32.0453 59.2868 32.6283 59.4578C32.6283 59.4578 34.1115 60.1747 34.3072 60.4301C34.3643 60.5076 34.4041 60.5964 34.424 60.6906C34.4439 60.7847 34.4434 60.8821 34.4225 60.976Z" fill="#FF8B7B"/>
<path d="M29.1839 61.0172C29.1768 61.0171 29.1697 61.0154 29.1633 61.0122C29.1568 61.009 29.1512 61.0044 29.1469 60.9987C28.7493 60.5413 28.7122 59.1014 28.7122 59.0396C28.7119 59.0329 28.713 59.0263 28.7154 59.02C28.7177 59.0138 28.7213 59.0081 28.7259 59.0033C28.7306 58.9985 28.7361 58.9947 28.7422 58.992C28.7484 58.9894 28.755 58.9881 28.7616 58.9881C28.7749 58.9881 28.7877 58.9932 28.7973 59.0024C28.8069 59.0117 28.8126 59.0242 28.8131 59.0375C28.8131 59.052 28.8502 60.5022 29.2251 60.9307C29.2347 60.9406 29.2401 60.9539 29.2401 60.9678C29.2401 60.9816 29.2347 60.9949 29.2251 61.0048C29.2194 61.0095 29.2129 61.013 29.2058 61.0152C29.1987 61.0173 29.1913 61.018 29.1839 61.0172Z" fill="white"/>
<path d="M28.8955 60.2797C28.8889 60.28 28.8822 60.2789 28.876 60.2766C28.8697 60.2742 28.864 60.2706 28.8592 60.266C28.8544 60.2614 28.8506 60.2558 28.848 60.2497C28.8454 60.2436 28.844 60.237 28.844 60.2303C28.8438 60.2235 28.8448 60.2168 28.8472 60.2104C28.8495 60.2041 28.8531 60.1982 28.8577 60.1933C28.8622 60.1883 28.8678 60.1843 28.8739 60.1814C28.8801 60.1786 28.8867 60.177 28.8935 60.1767L30.1892 60.1211C30.196 60.1208 30.2027 60.1219 30.2091 60.1242C30.2154 60.1266 30.2213 60.1301 30.2262 60.1347C30.2312 60.1393 30.2352 60.1448 30.2381 60.151C30.2409 60.1571 30.2425 60.1638 30.2428 60.1705C30.2433 60.1772 30.2425 60.1839 30.2404 60.1903C30.2383 60.1966 30.235 60.2025 30.2305 60.2075C30.2261 60.2125 30.2207 60.2165 30.2147 60.2194C30.2086 60.2222 30.2021 60.2239 30.1954 60.2241L28.8976 60.2797H28.8955Z" fill="white"/>
<path d="M43.6595 60.564H41.5171L39.2965 60.4589L39.041 58.9634C39.041 58.9634 41.1299 58.78 41.7499 58.9634C41.7499 58.9634 43.3238 59.7256 43.5298 59.9934C43.5904 60.074 43.6333 60.1665 43.6557 60.2648C43.6781 60.3631 43.6794 60.4651 43.6595 60.564Z" fill="#FF8B7B"/>
<path d="M44.7762 48.7066C44.7762 48.7066 44.597 64.3626 44.7762 68.5115C44.9636 72.8375 46.076 87.6695 46.0884 87.6118H48.7499C48.7499 87.6118 50.9562 58.5431 51.1622 55.4861C51.2642 53.5539 50.9935 51.6201 50.365 49.7902L44.7762 48.7066Z" fill="#407BFF"/>
<path d="M56.8561 50.3711C56.8561 50.3711 58.1683 64.9024 58.3825 69.0388C58.5968 73.1753 59.1715 87.756 59.1715 87.756L56.3411 87.5953C56.3411 87.5953 51.2385 58.3433 50.7111 55.2986C50.1837 52.254 50.8141 50.3546 50.8141 50.3546L56.8561 50.3711Z" fill="#407BFF"/>
<g opacity="0.2">
<path d="M57.1507 54.4087C56.9188 54.4172 56.6877 54.3766 56.4726 54.2897C56.2575 54.2027 56.0631 54.0713 55.9023 53.904C55.1092 53.0676 55.2205 51.5041 55.2246 51.432H55.3276C55.3276 51.4485 55.2163 53.0161 55.9785 53.8195C56.1368 53.9818 56.3283 54.108 56.5398 54.1894C56.7514 54.2708 56.978 54.3056 57.2042 54.2913V54.3943L57.1507 54.4087Z" fill="white"/>
</g>
<g opacity="0.2">
<path d="M51.6156 55.3501C51.5237 55.3489 51.4325 55.3329 51.3457 55.3028L51.3787 55.2059C51.5052 55.2578 51.6458 55.2641 51.7765 55.224C51.9072 55.1838 52.02 55.0995 52.0955 54.9855C52.2254 54.8006 52.2925 54.579 52.2871 54.3531V51.4423H52.3901V54.3531C52.3969 54.6005 52.3247 54.8436 52.1841 55.0473C52.1208 55.1399 52.036 55.2157 51.937 55.2684C51.838 55.3212 51.7277 55.3492 51.6156 55.3501Z" fill="white"/>
</g>
<g opacity="0.2">
<path d="M51.4135 51.2219H51.3105V56.823H51.4135V51.2219Z" fill="white"/>
</g>
<g opacity="0.2">
<path d="M57.2124 87.7004C57.2006 87.7006 57.1891 87.6965 57.1801 87.6889C57.171 87.6814 57.1649 87.6708 57.163 87.6592L51.807 57.097C51.8046 57.0836 51.8075 57.0699 51.8153 57.0587C51.823 57.0475 51.8348 57.0398 51.8482 57.0373C51.8549 57.0361 51.8619 57.0363 51.8686 57.0379C51.8753 57.0394 51.8816 57.0423 51.8872 57.0463C51.8927 57.0504 51.8974 57.0555 51.901 57.0613C51.9046 57.0672 51.9069 57.0737 51.9079 57.0805L57.2639 87.6406C57.2651 87.6474 57.2649 87.6544 57.2633 87.661C57.2618 87.6677 57.2589 87.6741 57.2549 87.6796C57.2508 87.6852 57.2457 87.6899 57.2399 87.6935C57.234 87.697 57.2274 87.6994 57.2206 87.7004H57.2124Z" fill="white"/>
</g>
<path d="M48.4925 87.7498L48.4368 89.919H46.69L46.2944 87.9805L48.4925 87.7498Z" fill="#CE7A63"/>
<path d="M48.5378 89.4781C48.5378 89.4781 48.9499 89.4143 48.8201 89.919C48.6903 90.4237 48.8551 91.6411 48.7315 92.1088H43.3755C43.3755 92.1088 43.4599 90.951 44.4384 90.916C45.7507 90.8686 46.3604 90.1106 46.3604 90.1106C46.552 89.5811 46.8898 89.7604 47.4275 89.816C47.9075 89.8675 48.5378 89.4781 48.5378 89.4781Z" fill="#263238"/>
<path d="M46.0042 90.4175C46.0722 90.426 46.1371 90.4509 46.1935 90.49C46.2498 90.5291 46.2958 90.5812 46.3276 90.642" fill="black"/>
<path d="M46.3274 90.6915C46.3177 90.6911 46.3083 90.688 46.3003 90.6826C46.2922 90.6771 46.2859 90.6695 46.2821 90.6606C46.254 90.6065 46.2137 90.5597 46.1643 90.5239C46.115 90.4882 46.0579 90.4644 45.9978 90.4546C45.9914 90.4541 45.9851 90.4523 45.9794 90.4493C45.9737 90.4463 45.9687 90.4421 45.9646 90.4371C45.9606 90.4321 45.9576 90.4263 45.9559 90.4201C45.9541 90.4139 45.9537 90.4074 45.9545 90.401C45.9566 90.3881 45.9634 90.3764 45.9738 90.3684C45.9841 90.3604 45.9971 90.3566 46.0101 90.3578C46.0869 90.3674 46.1601 90.3957 46.2233 90.4402C46.2865 90.4848 46.3378 90.5442 46.3727 90.6132C46.3775 90.6252 46.3774 90.6387 46.3724 90.6506C46.3674 90.6625 46.3579 90.672 46.3459 90.6771L46.3274 90.6915Z" fill="white"/>
<path d="M45.7322 90.5287C45.8002 90.5373 45.8652 90.5621 45.9215 90.6012C45.9778 90.6403 46.0238 90.6925 46.0556 90.7533" fill="black"/>
<path d="M46.0534 90.8027C46.0437 90.8024 46.0343 90.7993 46.0263 90.7938C46.0183 90.7884 46.012 90.7807 46.0081 90.7719C45.9793 90.7194 45.9386 90.6746 45.8892 90.6409C45.8398 90.6073 45.7831 90.5858 45.7238 90.5782C45.7107 90.5766 45.6988 90.5698 45.6907 90.5594C45.6826 90.5489 45.6789 90.5357 45.6806 90.5226C45.6822 90.5095 45.689 90.4975 45.6994 90.4894C45.7098 90.4813 45.7231 90.4777 45.7362 90.4793C45.8128 90.4894 45.8857 90.518 45.9489 90.5624C46.012 90.6069 46.0634 90.6661 46.0987 90.7348C46.1035 90.7468 46.1034 90.7602 46.0984 90.7722C46.0934 90.7841 46.0839 90.7936 46.072 90.7986C46.0664 90.8019 46.0599 90.8034 46.0534 90.8027Z" fill="white"/>
<path d="M45.386 90.6791C45.4539 90.6881 45.5186 90.7132 45.5749 90.7523C45.6311 90.7913 45.6772 90.8432 45.7094 90.9037" fill="black"/>
<path d="M45.7095 90.9531C45.6996 90.9533 45.69 90.9504 45.6819 90.9449C45.6738 90.9394 45.6676 90.9314 45.6642 90.9222C45.6354 90.8698 45.5946 90.825 45.5452 90.7913C45.4958 90.7576 45.4392 90.7361 45.3799 90.7286C45.3734 90.7278 45.3671 90.7258 45.3614 90.7225C45.3556 90.7193 45.3506 90.715 45.3466 90.7098C45.3426 90.7046 45.3396 90.6987 45.3379 90.6924C45.3362 90.6861 45.3357 90.6795 45.3366 90.673C45.3386 90.6602 45.3456 90.6487 45.356 90.641C45.3664 90.6333 45.3794 90.63 45.3922 90.6318C45.4689 90.6408 45.5421 90.6687 45.6054 90.7129C45.6686 90.7571 45.72 90.8163 45.7548 90.8851C45.7596 90.8972 45.7595 90.9106 45.7545 90.9225C45.7494 90.9345 45.7399 90.944 45.728 90.949C45.7224 90.9523 45.7159 90.9537 45.7095 90.9531Z" fill="white"/>
<path d="M48.7748 91.7895H43.495C43.4878 91.791 43.4804 91.7909 43.4733 91.7891C43.4661 91.7874 43.4595 91.7841 43.4538 91.7794C43.4481 91.7748 43.4435 91.769 43.4403 91.7623C43.4372 91.7557 43.4355 91.7484 43.4355 91.7411C43.4355 91.7337 43.4372 91.7265 43.4403 91.7199C43.4435 91.7132 43.4481 91.7074 43.4538 91.7027C43.4595 91.6981 43.4661 91.6948 43.4733 91.6931C43.4804 91.6913 43.4878 91.6912 43.495 91.6927H48.7748C48.782 91.6912 48.7894 91.6913 48.7966 91.6931C48.8037 91.6948 48.8104 91.6981 48.8161 91.7027C48.8217 91.7074 48.8263 91.7132 48.8295 91.7199C48.8326 91.7265 48.8343 91.7337 48.8343 91.7411C48.8343 91.7484 48.8326 91.7557 48.8295 91.7623C48.8263 91.769 48.8217 91.7748 48.8161 91.7794C48.8104 91.7841 48.8037 91.7874 48.7966 91.7891C48.7894 91.7909 48.782 91.791 48.7748 91.7895Z" fill="white"/>
<path d="M45.7588 88.6871H49.1887L49.2361 87.3996H45.73L45.7588 88.6871Z" fill="#263238"/>
<path d="M56.6028 87.7519L57.161 89.8984H58.9059L58.8544 87.9805L56.6028 87.7519Z" fill="#CE7A63"/>
<path d="M57.0621 89.4555C57.0621 89.4555 56.6501 89.3937 56.7799 89.8984C56.9097 90.4031 56.747 91.6185 56.8706 92.0882H62.2266C62.2266 92.0882 62.1442 90.9284 61.1657 90.8934C59.8534 90.8481 59.2416 90.09 59.2416 90.09C59.05 89.5606 58.7143 89.7377 58.1766 89.7954C57.6801 89.8449 57.0621 89.4555 57.0621 89.4555Z" fill="#263238"/>
<path d="M59.5938 90.3948C59.5256 90.4037 59.4605 90.4287 59.4039 90.4677C59.3473 90.5068 59.3008 90.5588 59.2683 90.6194" fill="black"/>
<path d="M59.2683 90.6688C59.2784 90.6691 59.2884 90.6663 59.2969 90.6608C59.3053 90.6553 59.3119 90.6473 59.3157 90.6379C59.3443 90.5854 59.385 90.5405 59.4345 90.5068C59.4839 90.4731 59.5406 90.4517 59.6 90.4443C59.6064 90.4435 59.6126 90.4415 59.6183 90.4382C59.6239 90.435 59.6288 90.4306 59.6326 90.4254C59.6365 90.4202 59.6393 90.4142 59.6407 90.4079C59.6422 90.4016 59.6423 90.395 59.6412 90.3887C59.6407 90.3823 59.6389 90.3761 59.6359 90.3705C59.6328 90.3649 59.6287 90.36 59.6236 90.3561C59.6185 90.3522 59.6127 90.3494 59.6065 90.3479C59.6003 90.3464 59.5939 90.3463 59.5876 90.3475C59.5107 90.3563 59.4371 90.3841 59.3735 90.4283C59.3099 90.4725 59.2582 90.5318 59.223 90.6008C59.2182 90.6129 59.2183 90.6263 59.2233 90.6382C59.2283 90.6502 59.2378 90.6597 59.2498 90.6647C59.2554 90.668 59.2618 90.6694 59.2683 90.6688Z" fill="white"/>
<path d="M59.8679 90.5082C59.7995 90.5156 59.7341 90.5401 59.6776 90.5793C59.6211 90.6185 59.5753 90.6713 59.5444 90.7327" fill="black"/>
<path d="M59.5445 90.7821C59.5542 90.7818 59.5636 90.7787 59.5717 90.7732C59.5797 90.7677 59.586 90.7601 59.5899 90.7512C59.6185 90.6987 59.6592 90.6538 59.7086 90.6201C59.7581 90.5864 59.8148 90.565 59.8741 90.5576C59.8806 90.5568 59.8869 90.5547 59.8926 90.5514C59.8983 90.5482 59.9033 90.5439 59.9073 90.5387C59.9113 90.5336 59.9143 90.5277 59.916 90.5213C59.9177 90.515 59.9182 90.5084 59.9174 90.502C59.9166 90.4955 59.9145 90.4892 59.9113 90.4835C59.908 90.4778 59.9037 90.4728 59.8985 90.4688C59.8934 90.4648 59.8875 90.4618 59.8812 90.4601C59.8749 90.4584 59.8683 90.4579 59.8618 90.4587C59.7848 90.4683 59.7113 90.4966 59.6478 90.5411C59.5842 90.5857 59.5325 90.6451 59.4972 90.7141C59.4924 90.7262 59.4925 90.7396 59.4975 90.7515C59.5025 90.7635 59.512 90.773 59.5239 90.778L59.5445 90.7821Z" fill="white"/>
<path d="M60.212 90.6585C60.1436 90.6669 60.0783 90.6917 60.0216 90.7308C59.9649 90.7699 59.9186 90.8221 59.8865 90.883" fill="black"/>
<path d="M59.8865 90.9325C59.8965 90.9325 59.9064 90.9296 59.9148 90.9241C59.9232 90.9187 59.9298 90.9108 59.9339 90.9016C59.9622 90.8489 60.0028 90.8038 60.0523 90.7701C60.1018 90.7363 60.1587 90.715 60.2181 90.708C60.2312 90.7063 60.2432 90.6995 60.2513 90.6891C60.2594 90.6787 60.263 90.6655 60.2614 90.6523C60.2598 90.6392 60.253 90.6273 60.2425 90.6192C60.2321 90.6111 60.2189 90.6074 60.2058 90.6091C60.1287 90.6185 60.0552 90.6468 59.9916 90.6913C59.928 90.7359 59.8763 90.7953 59.8411 90.8645C59.8364 90.8766 59.8365 90.89 59.8415 90.9019C59.8465 90.9139 59.856 90.9234 59.8679 90.9284L59.8865 90.9325Z" fill="white"/>
<path d="M56.8212 91.7689H62.1009C62.1141 91.7689 62.1266 91.7637 62.1359 91.7544C62.1452 91.7451 62.1504 91.7325 62.1504 91.7194C62.1504 91.7063 62.1452 91.6937 62.1359 91.6845C62.1266 91.6752 62.1141 91.67 62.1009 91.67H56.8212C56.8081 91.67 56.7955 91.6752 56.7862 91.6845C56.7769 91.6937 56.7717 91.7063 56.7717 91.7194C56.7717 91.7325 56.7769 91.7451 56.7862 91.7544C56.7955 91.7637 56.8081 91.7689 56.8212 91.7689Z" fill="white"/>
<path d="M59.6702 88.6871L56.1167 88.7283L55.8818 87.4429L59.6249 87.3996L59.6702 88.6871Z" fill="#263238"/>
<path d="M55.6696 31.3594L56.3762 32.2411L57.0972 33.133C57.5772 33.7263 58.0654 34.3093 58.5557 34.8758C59.046 35.4423 59.5404 35.9923 60.043 36.4744C60.2902 36.7154 60.5353 36.9461 60.7681 37.1315C60.8814 37.2242 60.9927 37.3087 61.0874 37.3725C61.1389 37.4117 61.1719 37.4261 61.2151 37.457L61.2563 37.4817L61.2749 37.4941H61.2852C61.2852 37.4941 61.2646 37.4941 61.2563 37.4941C61.038 37.4467 61.0174 37.4941 61.0503 37.4941C61.1397 37.4982 61.2293 37.4892 61.3161 37.4673C61.6126 37.3969 61.9027 37.3018 62.1833 37.183C62.8563 36.9011 63.5131 36.582 64.1506 36.2272C65.4773 35.5 66.8286 34.6657 68.1429 33.8499L69.4696 35.4114C68.3535 36.6266 67.1447 37.7534 65.8543 38.7816C65.1803 39.3245 64.4684 39.8188 63.7242 40.2606C63.3012 40.5121 62.8565 40.7251 62.3955 40.8972C62.1056 41.0068 61.8054 41.0869 61.4994 41.1361C61.0392 41.2167 60.5668 41.1928 60.1171 41.0661C59.8023 40.9672 59.4974 40.8389 59.2066 40.6829C58.9553 40.5511 58.7349 40.4172 58.5248 40.2709C58.1337 40.0121 57.7575 39.7315 57.398 39.4305C56.7379 38.874 56.1093 38.2811 55.5151 37.6547C54.9301 37.0491 54.3842 36.4187 53.8527 35.7904C53.5931 35.4711 53.3315 35.1518 53.0802 34.8243L52.7053 34.3299L52.3345 33.8128L55.6696 31.3594Z" fill="#263238"/>
<path d="M68.147 33.8458C68.147 33.8458 69.0575 33.0692 69.383 32.5336C69.7085 31.998 71.4203 33.7696 71.443 34.023C71.4656 34.2763 69.4757 35.4073 69.4757 35.4073L68.147 33.8458Z" fill="#CE7A63"/>
<path d="M69.1934 32.5068C69.1934 32.5068 70.794 30.4983 71.1936 30.282C71.5933 30.0657 70.5633 31.9691 70.5633 31.9691C70.5633 31.9691 71.9476 32.7375 71.9785 33.2463C72.0094 33.7552 71.7169 34.231 71.379 34.3237C71.2698 34.3411 71.1579 34.3289 71.055 34.2883C70.952 34.2478 70.8619 34.1803 70.794 34.093L69.1934 32.5068Z" fill="#CE7A63"/>
<path d="M68.4746 33.7448C68.4746 33.7448 68.6064 31.6725 68.9443 31.6272C69.2821 31.5818 69.9743 32.6304 69.9743 32.6304L68.4746 33.7448Z" fill="#CE7A63"/>
<path d="M48.8591 30.0471C48.8591 30.0471 44.9451 31.3882 44.6918 32.3791C44.4384 33.3699 45.0584 41.1197 45.0914 42.5946C45.1244 44.0696 43.9151 49.5203 44.7536 50.5668C45.6517 51.6895 56.8149 52.3054 57.0085 50.9685C57.2598 49.2381 56.6356 43.6658 56.7016 41.7294C56.7675 39.793 56.1639 32.1113 55.7375 31.3655C55.3111 30.6198 51.4362 30.2202 51.4362 30.2202L48.8591 30.0471Z" fill="#263238"/>
<g opacity="0.2">
<path d="M45.3058 50.7295C45.0009 49.9055 45.4788 46.8732 45.8311 44.6567C45.9176 44.1025 45.9938 43.6267 46.0371 43.2456C46.2966 41.3916 45.5756 37.2468 45.5674 37.2036L45.6683 37.1871C45.6683 37.2283 46.3996 41.3977 46.1401 43.26C46.0865 43.639 46.0123 44.119 45.9238 44.6731C45.5942 46.7537 45.0998 49.8994 45.3943 50.6925L45.3058 50.7295Z" fill="white"/>
</g>
<path d="M48.3711 24.926C48.3711 24.926 47.8602 23.3913 48.058 22.7671C48.2557 22.1429 48.6966 22.0605 48.6966 22.0605C48.6966 22.0605 48.9458 20.4002 50.5876 20.4991C52.2295 20.5979 54.137 20.0067 54.5016 20.8616C54.8663 21.7165 53.5623 22.2748 53.5623 22.2748C53.5623 22.2748 54.0773 22.8928 53.8816 23.3913C53.6859 23.8898 53.2306 23.4243 53.2306 23.4243L48.3711 24.926Z" fill="#263238"/>
<path d="M51.9493 30.8794C51.768 31.1204 51.562 31.6004 50.841 31.7034C49.9325 31.8249 48.8943 30.865 48.781 30.4674C49.0385 29.1675 49.193 27.6679 48.987 26.4895L50.1715 27.4763L51.8916 28.908C51.8916 28.9389 51.8731 28.9739 51.8628 29.0048C51.8525 29.0357 51.8442 29.0913 51.8339 29.1346C51.8104 29.2386 51.7925 29.3438 51.7804 29.4498C51.7701 29.5342 51.7639 29.6187 51.7618 29.7011C51.7546 29.9499 51.7761 30.1987 51.8257 30.4427C51.855 30.5913 51.8964 30.7374 51.9493 30.8794Z" fill="#CE7A63"/>
<path d="M50.7626 33.646C50.3609 33.6495 49.9708 33.5117 49.6605 33.2566C48.5831 32.3811 48.4472 30.3541 48.443 30.2676C48.4421 30.2608 48.4427 30.254 48.4447 30.2475C48.4467 30.2411 48.45 30.2351 48.4545 30.23C48.459 30.2249 48.4645 30.2209 48.4707 30.2181C48.4769 30.2153 48.4836 30.214 48.4904 30.214C48.4972 30.2131 48.5042 30.2137 48.5107 30.2157C48.5173 30.2176 48.5234 30.221 48.5287 30.2254C48.5339 30.2299 48.5382 30.2354 48.5411 30.2416C48.5441 30.2478 48.5458 30.2545 48.546 30.2614C48.546 30.282 48.682 32.3214 49.7264 33.1763C49.9106 33.3263 50.1251 33.4347 50.3552 33.4941C50.5852 33.5535 50.8254 33.5624 51.0592 33.5203C51.2325 33.5019 51.3994 33.4442 51.5471 33.3518C51.6949 33.2594 51.8197 33.1345 51.9121 32.9868C52.4806 32.066 51.9121 30.3088 51.9018 30.2799C51.8992 30.2736 51.898 30.2668 51.8984 30.26C51.8987 30.2532 51.9005 30.2465 51.9036 30.2404C51.9067 30.2344 51.9111 30.2291 51.9165 30.2248C51.9219 30.2206 51.9281 30.2176 51.9347 30.2161C51.9411 30.2138 51.9478 30.2129 51.9545 30.2134C51.9612 30.2139 51.9678 30.2157 51.9738 30.2188C51.9797 30.2219 51.985 30.2262 51.9893 30.2314C51.9936 30.2366 51.9967 30.2426 51.9986 30.249C52.0233 30.3232 52.5939 32.0804 51.9986 33.0403C51.899 33.2018 51.7636 33.3382 51.6029 33.4389C51.4421 33.5397 51.2603 33.6021 51.0716 33.6213C50.9694 33.6374 50.8661 33.6457 50.7626 33.646Z" fill="white"/>
<g opacity="0.2">
<path d="M51.8215 30.4427C51.1788 30.3088 50.3795 29.7876 50.1488 29.1346C49.9963 28.7102 50.1488 28.2776 50.3136 28.2323L51.7762 29.4498C51.7659 29.5342 51.7597 29.6187 51.7576 29.7011C51.7505 29.9499 51.7719 30.1987 51.8215 30.4427Z" fill="black"/>
</g>
<path d="M48.4988 24.308C48.4652 23.8567 48.5475 23.4043 48.7377 22.9937C48.928 22.583 49.22 22.2278 49.586 21.9617C49.952 21.6955 50.3799 21.5272 50.8292 21.4728C51.2785 21.4184 51.7342 21.4796 52.1532 21.6506C54.0567 22.421 54.3286 25.303 53.9145 27.0499C53.4551 28.9904 51.0594 29.8844 49.5885 28.3889C48.6059 27.3939 48.6327 26.2506 48.507 24.308" fill="#CE7A63"/>
<g opacity="0.2">
<path d="M50.2414 23.1976C50.2414 23.1976 50.6142 23.9804 50.0848 24.1906C49.5554 24.4007 50.0848 25.3524 50.0848 25.3524L48.9745 25.7644C48.62 25.3829 48.4183 24.8843 48.408 24.3636C48.408 23.5211 48.4553 22.9628 48.4553 22.9628L50.2414 23.1976Z" fill="black"/>
</g>
<path d="M48.4102 23.2327C48.4102 23.2327 49.5947 23.5623 50.087 23.3316C50.5793 23.1008 49.8233 22.7403 50.2024 22.4272C50.5814 22.1141 52.697 22.2501 53.2924 22.5611C53.8877 22.8722 53.3274 21.4425 52.1449 21.2613C50.9625 21.08 48.6162 21.3437 48.4102 23.2327Z" fill="#263238"/>
<path d="M49.2588 25.6326C49.2588 25.6326 48.1299 26.677 49.0734 28.2323C49.6708 29.217 51.3394 30.0636 52.3859 29.9133C53.867 29.7073 54.005 26.5699 54.005 26.5699C53.8788 26.436 53.7095 26.3509 53.5268 26.3294C53.3441 26.308 53.1597 26.3515 53.0059 26.4525C52.4435 26.813 51.9285 26.0755 51.4753 26.0755C51.0221 26.0755 50.5875 26.7676 50.2393 26.4875C49.8912 26.2073 50.0828 25.3524 50.0828 25.3524L49.2588 25.6326Z" fill="#263238"/>
<path d="M47.6685 25.5955C47.8085 26.0646 48.1284 26.4593 48.5584 26.6935C49.129 26.9983 49.5555 26.5204 49.5143 25.9086C49.4751 25.3565 49.1332 24.5325 48.5028 24.479C47.8724 24.4254 47.5037 25.0187 47.6788 25.5955" fill="#CE7A63"/>
<path d="M51.4753 25.2432C51.4753 25.4018 51.5598 25.5296 51.6628 25.5296C51.7658 25.5296 51.8503 25.4018 51.8503 25.2432C51.8503 25.0846 51.7658 24.9569 51.6607 24.9569C51.5557 24.9569 51.4753 25.0846 51.4753 25.2432Z" fill="#263238"/>
<path d="M53.2078 25.2185C53.2078 25.3771 53.2922 25.5048 53.3973 25.5048C53.5023 25.5048 53.5827 25.3751 53.5827 25.2185C53.5827 25.0619 53.4982 24.9322 53.3952 24.9322C53.2922 24.9322 53.2078 25.0599 53.2078 25.2185Z" fill="#263238"/>
<path d="M51.6072 26.677C52.1033 26.8684 52.6402 26.9294 53.1666 26.8542C53.1666 26.8542 53.0657 27.5381 52.4374 27.5504C51.6793 27.569 51.6072 26.677 51.6072 26.677Z" fill="white"/>
<path d="M53.766 24.5243C53.7524 24.5249 53.7389 24.5215 53.7272 24.5145C53.7155 24.5076 53.7061 24.4974 53.7001 24.4852C53.6761 24.4362 53.6423 24.3927 53.6009 24.3572C53.5594 24.3218 53.5112 24.2952 53.4591 24.2792C53.3517 24.2574 53.2401 24.2742 53.1439 24.3265C53.1352 24.3317 53.1256 24.3351 53.1157 24.3365C53.1057 24.3379 53.0956 24.3374 53.0858 24.3349C53.076 24.3324 53.0669 24.328 53.0588 24.322C53.0508 24.316 53.044 24.3084 53.0388 24.2998C53.0337 24.2911 53.0303 24.2815 53.0289 24.2716C53.0274 24.2616 53.028 24.2514 53.0305 24.2417C53.0329 24.2319 53.0373 24.2228 53.0434 24.2147C53.0494 24.2066 53.0569 24.1998 53.0656 24.1947C53.1969 24.1207 53.3508 24.0973 53.4982 24.1288C53.5705 24.1503 53.6377 24.1864 53.6954 24.235C53.7532 24.2835 53.8004 24.3434 53.834 24.411C53.8438 24.4288 53.8462 24.4498 53.8408 24.4694C53.8355 24.489 53.8226 24.5057 53.8051 24.5161C53.7929 24.5218 53.7795 24.5246 53.766 24.5243Z" fill="#263238"/>
<path d="M51.0675 24.5861C51.0559 24.588 51.0441 24.588 51.0325 24.5861C51.0144 24.5768 51.0007 24.5609 50.9942 24.5417C50.9876 24.5225 50.9888 24.5015 50.9975 24.4831C51.0671 24.3488 51.1837 24.2447 51.325 24.1906C51.3968 24.1695 51.4722 24.1632 51.5466 24.172C51.6209 24.1809 51.6927 24.2047 51.7576 24.2421C51.7758 24.2518 51.7896 24.2681 51.7961 24.2876C51.8026 24.3072 51.8014 24.3285 51.7926 24.3471C51.783 24.3654 51.7665 24.379 51.7469 24.3852C51.7272 24.3914 51.7059 24.3895 51.6876 24.3801C51.6411 24.3519 51.5893 24.3335 51.5355 24.326C51.4816 24.3186 51.4268 24.3223 51.3744 24.3368C51.2735 24.376 51.1891 24.4488 51.1355 24.5428C51.1295 24.5558 51.1199 24.5668 51.1079 24.5745C51.0958 24.5822 51.0818 24.5862 51.0675 24.5861Z" fill="#263238"/>
<path d="M52.53 24.9878C52.618 25.3061 52.7962 25.5923 53.043 25.8118C53.4405 26.1435 52.6577 26.4422 52.6577 26.4422L52.53 24.9878Z" fill="#BA4D3C"/>
<path d="M48.0702 34.7234L44.6733 38.1594C44.1191 38.7383 43.5568 39.3048 43.0253 39.8878C42.5149 40.4291 42.0336 40.9971 41.5833 41.5893C41.4823 41.7232 41.3917 41.853 41.3217 41.9601C41.2516 42.0673 41.2042 42.1661 41.2001 42.1394C41.196 42.1126 41.2001 42.1126 41.2001 42.0652V42.0343C41.2011 42.0171 41.2011 42 41.2001 41.9828C41.2001 41.9478 41.2001 41.9107 41.2001 41.8839C41.1948 41.8156 41.1759 41.7491 41.1445 41.6882C41.1157 41.6511 41.1342 41.7294 41.1857 41.8221C41.3427 42.0813 41.5279 42.3224 41.7378 42.5411C41.9767 42.7986 42.2425 43.0622 42.5226 43.3239C43.6515 44.3539 44.9576 45.3674 46.2306 46.3418L45.2377 48.134C44.4281 47.8064 43.6701 47.448 42.9037 47.0566C42.1262 46.6601 41.3699 46.2235 40.6377 45.7485C40.2649 45.5013 39.892 45.2417 39.5233 44.941C39.1104 44.6145 38.7327 44.2458 38.3965 43.8409C38.1623 43.5568 37.9726 43.2386 37.8341 42.8974C37.7307 42.6429 37.6668 42.3741 37.6446 42.1002C37.6393 42.0158 37.6393 41.9312 37.6446 41.8468V41.7171L37.6549 41.612C37.6692 41.4846 37.6905 41.3581 37.7187 41.233C37.8023 40.8999 37.9197 40.5761 38.0689 40.2668C38.1905 40.0114 38.312 39.7848 38.4356 39.5705C38.9076 38.7936 39.4271 38.0465 39.9909 37.3334C40.5327 36.6515 41.0765 35.9903 41.6389 35.3578C42.2013 34.7254 42.7801 34.1054 43.3672 33.5038C43.9543 32.9023 44.5476 32.3132 45.1903 31.7322L48.0702 34.7234Z" fill="#263238"/>
<path d="M44.8771 45.3653C44.8771 45.3653 46.0163 46.0987 46.0905 46.7847C46.1646 47.4706 45.6558 49.0507 45.1779 48.9765C44.7 48.9023 44.3374 48.8241 44.117 48.134C43.8966 47.4439 44.8771 45.3653 44.8771 45.3653Z" fill="#CE7A63"/>
<g opacity="0.2">
<path d="M44.729 54.4067V54.3057C46.7766 54.1409 46.7148 51.1807 46.7128 51.1519H46.8158C46.8096 51.1786 46.8735 54.2357 44.729 54.4067Z" fill="white"/>
</g>
<path d="M48.8034 61.1491H36.3074C36.2384 61.1487 36.1705 61.132 36.1092 61.1003C36.0479 61.0686 35.995 61.0229 35.9548 60.9668C35.9146 60.9107 35.8883 60.8459 35.878 60.7777C35.8676 60.7095 35.8736 60.6398 35.8954 60.5743L38.6085 52.3096C38.6369 52.2224 38.6919 52.1463 38.7658 52.092C38.8397 52.0377 38.9287 52.0079 39.0205 52.0068H51.5164C51.5854 52.0071 51.6533 52.0239 51.7146 52.0555C51.7759 52.0872 51.8288 52.133 51.869 52.189C51.9092 52.2451 51.9356 52.3099 51.9459 52.3781C51.9562 52.4464 51.9502 52.5161 51.9284 52.5815L49.2154 60.8483C49.1864 60.9349 49.1311 61.0104 49.0573 61.0643C48.9835 61.1182 48.8948 61.1478 48.8034 61.1491Z" fill="#407BFF"/>
<g opacity="0.6">
<path d="M48.8034 61.1491H36.3074C36.2384 61.1487 36.1705 61.132 36.1092 61.1003C36.0479 61.0686 35.995 61.0229 35.9548 60.9668C35.9146 60.9107 35.8883 60.8459 35.878 60.7777C35.8676 60.7095 35.8736 60.6398 35.8954 60.5743L38.6085 52.3096C38.6369 52.2224 38.6919 52.1463 38.7658 52.092C38.8397 52.0377 38.9287 52.0079 39.0205 52.0068H51.5164C51.5854 52.0071 51.6533 52.0239 51.7146 52.0555C51.7759 52.0872 51.8288 52.133 51.869 52.189C51.9092 52.2451 51.9356 52.3099 51.9459 52.3781C51.9562 52.4464 51.9502 52.5161 51.9284 52.5815L49.2154 60.8483C49.1864 60.9349 49.1311 61.0104 49.0573 61.0643C48.9835 61.1182 48.8948 61.1478 48.8034 61.1491Z" fill="white"/>
</g>
<g opacity="0.5">
<path d="M45.1553 56.7386C45.0992 57.0116 44.9524 57.2576 44.7389 57.4367C44.5254 57.6159 44.2576 57.7176 43.979 57.7253C43.8549 57.7302 43.7314 57.7065 43.6179 57.656C43.5044 57.6056 43.404 57.5299 43.3244 57.4345C43.2448 57.3392 43.1881 57.2269 43.1588 57.1063C43.1294 56.9856 43.1281 56.8598 43.155 56.7386C43.2106 56.4655 43.3568 56.2193 43.57 56.0398C43.7831 55.8603 44.0507 55.7581 44.3292 55.7498C44.4529 55.747 44.5757 55.7721 44.6885 55.8232C44.8012 55.8744 44.9009 55.9503 44.9803 56.0453C45.0597 56.1403 45.1166 56.2519 45.1469 56.372C45.1772 56.492 45.18 56.6173 45.1553 56.7386Z" fill="white"/>
</g>
<path d="M31.8559 60.976L31.5922 61.7712C31.5736 61.8272 31.5686 61.8869 31.5776 61.9453C31.5866 62.0037 31.6093 62.0591 31.6439 62.107C31.6785 62.1549 31.724 62.1938 31.7766 62.2207C31.8292 62.2475 31.8875 62.2615 31.9465 62.2615H48.4966C48.5751 62.2622 48.6519 62.2378 48.7156 62.1918C48.7794 62.1459 48.8268 62.0808 48.8509 62.006L49.1949 60.976H31.8559Z" fill="#407BFF"/>
<g opacity="0.6">
<path d="M31.8559 60.976L31.5922 61.7712C31.5736 61.8272 31.5686 61.8869 31.5776 61.9453C31.5866 62.0037 31.6093 62.0591 31.6439 62.107C31.6785 62.1549 31.724 62.1938 31.7766 62.2207C31.8292 62.2475 31.8875 62.2615 31.9465 62.2615H48.4966C48.5751 62.2622 48.6519 62.2378 48.7156 62.1918C48.7794 62.1459 48.8268 62.0808 48.8509 62.006L49.1949 60.976H31.8559Z" fill="white"/>
</g>
<path d="M49.1597 61.0172H35.949C35.9353 61.0172 35.9222 61.0118 35.9125 61.0021C35.9029 60.9925 35.8975 60.9794 35.8975 60.9657C35.8975 60.9521 35.9029 60.939 35.9125 60.9293C35.9222 60.9196 35.9353 60.9142 35.949 60.9142H49.1597C49.1734 60.9142 49.1865 60.9196 49.1962 60.9293C49.2058 60.939 49.2112 60.9521 49.2112 60.9657C49.2112 60.9794 49.2058 60.9925 49.1962 61.0021C49.1865 61.0118 49.1734 61.0172 49.1597 61.0172Z" fill="#407BFF"/>
<path d="M57.4945 61.1491H69.9905C70.0595 61.1487 70.1274 61.132 70.1887 61.1003C70.25 61.0686 70.3029 61.0229 70.3431 60.9668C70.3833 60.9107 70.4096 60.8459 70.42 60.7777C70.4303 60.7095 70.4243 60.6398 70.4025 60.5743L67.6895 52.3096C67.6611 52.2224 67.606 52.1463 67.5321 52.092C67.4582 52.0377 67.3692 52.0079 67.2775 52.0068H54.7815C54.7127 52.0076 54.645 52.0246 54.5839 52.0564C54.5229 52.0882 54.4702 52.1339 54.4301 52.1899C54.39 52.2458 54.3636 52.3104 54.3531 52.3785C54.3425 52.4465 54.3482 52.5161 54.3695 52.5815L57.0825 60.8483C57.1116 60.9349 57.1668 61.0104 57.2406 61.0643C57.3144 61.1182 57.4032 61.1478 57.4945 61.1491Z" fill="#407BFF"/>
<g opacity="0.6">
<path d="M57.4945 61.1491H69.9905C70.0595 61.1487 70.1274 61.132 70.1887 61.1003C70.25 61.0686 70.3029 61.0229 70.3431 60.9668C70.3833 60.9107 70.4096 60.8459 70.42 60.7777C70.4303 60.7095 70.4243 60.6398 70.4025 60.5743L67.6895 52.3096C67.6611 52.2224 67.606 52.1463 67.5321 52.092C67.4582 52.0377 67.3692 52.0079 67.2775 52.0068H54.7815C54.7127 52.0076 54.645 52.0246 54.5839 52.0564C54.5229 52.0882 54.4702 52.1339 54.4301 52.1899C54.39 52.2458 54.3636 52.3104 54.3531 52.3785C54.3425 52.4465 54.3482 52.5161 54.3695 52.5815L57.0825 60.8483C57.1116 60.9349 57.1668 61.0104 57.2406 61.0643C57.3144 61.1182 57.4032 61.1478 57.4945 61.1491Z" fill="white"/>
</g>
<g opacity="0.4">
<path d="M58.6234 60.3086H68.8245C68.8808 60.3085 68.9362 60.295 68.9863 60.2694C69.0364 60.2437 69.0797 60.2065 69.1126 60.1609C69.1456 60.1153 69.1673 60.0625 69.1759 60.0069C69.1846 59.9513 69.1799 59.8944 69.1623 59.841L66.9499 53.0945C66.9265 53.0227 66.881 52.9602 66.82 52.9158C66.7589 52.8714 66.6855 52.8474 66.61 52.8473H56.4089C56.3523 52.8474 56.2966 52.8609 56.2463 52.8867C56.196 52.9124 56.1525 52.9498 56.1193 52.9956C56.0862 53.0414 56.0643 53.0944 56.0556 53.1502C56.0468 53.2061 56.0514 53.2632 56.069 53.3169L58.2855 60.0634C58.3086 60.1348 58.3538 60.197 58.4145 60.241C58.4752 60.2851 58.5484 60.3087 58.6234 60.3086Z" fill="white"/>
</g>
<path d="M74.4423 60.976L74.706 61.7712C74.7246 61.8272 74.7296 61.8869 74.7206 61.9453C74.7116 62.0037 74.6889 62.0591 74.6543 62.107C74.6197 62.1549 74.5742 62.1938 74.5216 62.2207C74.469 62.2475 74.4107 62.2615 74.3516 62.2615H57.8016C57.723 62.2622 57.6463 62.2378 57.5826 62.1918C57.5188 62.1459 57.4714 62.0808 57.4473 62.006L57.1033 60.976H74.4423Z" fill="#407BFF"/>
<g opacity="0.4">
<path d="M74.4423 60.976L74.706 61.7712C74.7246 61.8272 74.7296 61.8869 74.7206 61.9453C74.7116 62.0037 74.6889 62.0591 74.6543 62.107C74.6197 62.1549 74.5742 62.1938 74.5216 62.2207C74.469 62.2475 74.4107 62.2615 74.3516 62.2615H57.8016C57.723 62.2622 57.6463 62.2378 57.5826 62.1918C57.5188 62.1459 57.4714 62.0808 57.4473 62.006L57.1033 60.976H74.4423Z" fill="white"/>
</g>
<path d="M81.5614 62.2512H31.4087V63.7673H81.5614V62.2512Z" fill="black"/>
<g opacity="0.8">
<path d="M81.5614 62.2512H31.4087V63.7673H81.5614V62.2512Z" fill="white"/>
</g>
<path d="M34.7213 63.7673L30.2161 92.0985L31.1204 92.1191L36.703 63.7673H34.7213Z" fill="black"/>
<g opacity="0.8">
<path d="M34.7213 63.7673L30.2161 92.0964L31.1204 92.1191L36.703 63.7673H34.7213Z" fill="white"/>
</g>
<path d="M77.3838 63.7673L81.889 92.0985L80.9847 92.1191L75.4021 63.7673H77.3838Z" fill="black"/>
<g opacity="0.8">
<path d="M77.3838 63.7673L81.889 92.0964L80.9847 92.1191L75.4021 63.7673H77.3838Z" fill="white"/>
</g>
<path d="M76.4034 65.335H34.7791V65.9159H76.4034V65.335Z" fill="black"/>
<g opacity="0.8">
<path d="M76.4034 65.335H34.7791V65.9159H76.4034V65.335Z" fill="white"/>
</g>
<path d="M81.7655 64.8138C81.7655 64.8138 84.118 70.1471 79.071 71.4923C75.6205 72.4131 70.5941 70.0956 68.3693 70.829C68.3693 70.829 69.3396 71.1709 70.4623 74.9284C71.585 78.6858 73.5111 85.7022 73.5111 85.7022L70.8331 85.8114C70.8331 85.8114 63.6766 71.2018 63.5324 68.5506C63.3882 65.8994 76.632 63.998 76.632 63.998L81.7655 64.8138Z" fill="#263238"/>
<path d="M87.521 65.5677C87.521 65.5677 89.787 71.2863 84.5567 71.8384C80.4985 72.2669 76.7822 71.8734 73.7787 71.5582C73.7787 71.5582 75.2496 71.6303 76.3723 75.3877C77.495 79.1452 79.6003 85.729 79.6003 85.729H76.3043C76.3043 85.729 67.8748 71.3501 67.7306 68.6989C67.5864 66.0477 81.7674 64.8035 81.7674 64.8035L87.521 65.5677Z" fill="#263238"/>
<g opacity="0.2">
<path d="M72.685 86.0915C72.4564 85.4735 67.053 71.0535 67.053 70.143C67.053 69.2325 75.0746 68.1592 75.9893 68.0418L76.0016 68.1448C72.4461 68.598 67.156 69.5147 67.156 70.143C67.156 71.0267 72.718 85.9061 72.7818 86.0565L72.685 86.0915Z" fill="white"/>
</g>
<path d="M79.2892 86.0729L79.7094 88.2153H77.9646L76.9758 86.3201L79.2892 86.0729Z" fill="#B55B52"/>
<path d="M79.7096 87.8569C79.7734 88.3761 78.0451 87.9455 77.87 88.2154C77.6949 88.4852 77.458 89.3875 77.1922 89.8428C76.9265 90.298 75.4021 91.7606 75.4021 91.7606H78.6466L79.1369 91.0541L79.2976 91.7606H80.1937C80.1937 91.7606 79.8538 88.2216 79.7096 87.8569Z" fill="#263238"/>
<path d="M76.0572 87H80.1936L79.932 85.7289H75.7976L76.0572 87Z" fill="#263238"/>
<g opacity="0.3">
<path d="M76.0572 87H80.1936L79.932 85.7289H75.7976L76.0572 87Z" fill="white"/>
</g>
<path d="M72.5985 44.187C72.583 44.1926 72.5662 44.194 72.55 44.1911C72.5337 44.1882 72.5185 44.1811 72.5058 44.1705C72.4862 44.1541 72.4739 44.1305 72.4716 44.1051C72.4693 44.0796 72.4771 44.0542 72.4935 44.0345C72.5884 43.9159 72.7107 43.822 72.85 43.761C72.9892 43.7 73.1411 43.6737 73.2927 43.6843C73.3051 43.6856 73.3171 43.6894 73.3281 43.6954C73.339 43.7014 73.3486 43.7096 73.3563 43.7194C73.364 43.7292 73.3696 43.7404 73.3728 43.7525C73.3761 43.7645 73.3769 43.7771 73.3751 43.7894C73.3739 43.8019 73.3701 43.814 73.3641 43.825C73.3581 43.836 73.35 43.8457 73.3402 43.8536C73.3305 43.8614 73.3192 43.8673 73.3072 43.8708C73.2951 43.8742 73.2825 43.8753 73.2701 43.8739C73.15 43.868 73.0303 43.8908 72.9207 43.9402C72.8111 43.9896 72.7148 44.0643 72.6397 44.1581C72.6299 44.1724 72.6153 44.1826 72.5985 44.187Z" fill="#263238"/>
<path d="M72.7778 44.6031C72.7039 44.9846 72.5777 45.3541 72.4028 45.7011C72.4927 45.7433 72.5909 45.7653 72.6902 45.7653C72.7895 45.7653 72.8877 45.7433 72.9776 45.7011L72.7778 44.6031Z" fill="#A02724"/>
<path d="M73.029 44.6505C73.0722 44.807 73.029 44.9574 72.9239 44.9883C72.8189 45.0192 72.7035 44.9142 72.6582 44.7576C72.6129 44.601 72.6582 44.4507 72.7612 44.4218C72.8642 44.393 72.9837 44.4939 73.029 44.6505Z" fill="#263238"/>
<path d="M72.8085 44.4177H72.3965C72.3965 44.4177 72.6725 44.6546 72.8085 44.4177Z" fill="#263238"/>
<path d="M72.8209 42.0508C72.8209 42.0508 71.9248 42.2794 72.6602 43.6246L73.3297 42.2485L72.8209 42.0508Z" fill="#263238"/>
<path d="M76.6423 40.6232C76.6423 40.6232 75.8801 37.6424 78.3109 37.8628C80.7417 38.0832 80.3132 40.1288 80.3132 40.1288C80.3132 40.1288 81.7779 40.1803 81.1145 41.8592C80.4512 43.5381 77.8391 42.4669 77.8391 42.4669C77.217 42.0652 76.8524 41.4163 76.6423 40.6232Z" fill="#263238"/>
<path d="M77.6907 49.4894C77.1831 49.4217 76.667 49.5108 76.2116 49.7449C76.5144 49.1722 76.261 48.5233 75.9211 47.9321L77.6042 45.4003C77.7072 46.6363 78.0883 48.8302 79.1244 49.3761C79.1244 49.3761 79.4643 49.6707 77.6907 49.4894Z" fill="#B55B52"/>
<g opacity="0.2">
<path d="M76.9182 46.4324L75.9211 47.93C76.0374 48.1269 76.136 48.3337 76.2157 48.548C76.6916 48.342 77.2189 47.5963 77.1242 47.0607C77.0932 46.844 77.0234 46.6346 76.9182 46.4427" fill="black"/>
</g>
<path d="M78.0532 43.0354C78.2819 44.976 78.4219 45.7938 77.6412 46.9494C76.4505 48.6963 74.0156 48.5542 73.2101 46.7208C72.483 45.0728 72.2296 42.1702 73.9703 41.0661C74.3538 40.8234 74.7927 40.6821 75.2458 40.6556C75.6988 40.6291 76.1512 40.7181 76.5604 40.9144C76.9697 41.1107 77.3223 41.4077 77.5852 41.7776C77.8481 42.1476 78.0127 42.5783 78.0635 43.0293" fill="#B55B52"/>
<path d="M75.0127 40.2256C75.0127 40.2256 76.7801 39.7333 78.0059 40.8436C79.2316 41.954 79.555 44.8689 77.7154 46.8176C77.7731 47.4088 75.2166 47.7055 74.4194 46.0492C74.131 45.4477 73.721 45.0584 73.5295 42.9798L72.7879 42.8027C72.1719 42.5431 72.2337 40.0526 75.0127 40.2256Z" fill="#263238"/>
<path d="M75.3216 44.5825C75.2544 44.954 75.0425 45.2837 74.7325 45.4992C74.3205 45.7835 73.9497 45.4518 73.9311 44.976C73.9147 44.5495 74.1083 43.8883 74.5883 43.7956C74.6936 43.7769 74.8019 43.7848 74.9033 43.8187C75.0047 43.8526 75.0961 43.9113 75.169 43.9896C75.2419 44.0678 75.2941 44.1631 75.3207 44.2666C75.3474 44.3702 75.3477 44.4788 75.3216 44.5825Z" fill="#B55B52"/>
<path d="M74.1042 45.596C74.1192 45.6588 74.1526 45.7157 74.2 45.7594C74.2474 45.8032 74.3068 45.8319 74.3706 45.8418C74.4343 45.8517 74.4996 45.8425 74.5581 45.8152C74.6166 45.788 74.6657 45.744 74.6991 45.6887C74.7326 45.6335 74.7488 45.5696 74.7458 45.5052C74.7428 45.4407 74.7208 45.3786 74.6824 45.3267C74.644 45.2748 74.5911 45.2355 74.5303 45.2137C74.4695 45.192 74.4036 45.1888 74.3411 45.2046C74.258 45.2256 74.1866 45.2784 74.1422 45.3517C74.0979 45.4249 74.0842 45.5127 74.1042 45.596Z" fill="white"/>
<path d="M78.8053 42.78C76.4569 42.574 76.4796 40.1411 76.4816 40.1164C76.4813 40.1093 76.4825 40.1022 76.4851 40.0956C76.4877 40.0889 76.4916 40.0829 76.4967 40.0779C76.5017 40.0729 76.5077 40.0689 76.5144 40.0663C76.521 40.0637 76.5281 40.0626 76.5352 40.0628C76.5424 40.0628 76.5495 40.0643 76.5562 40.0671C76.5628 40.0699 76.5688 40.0741 76.5738 40.0793C76.5788 40.0844 76.5827 40.0906 76.5853 40.0973C76.5879 40.1041 76.589 40.1113 76.5888 40.1185C76.5888 40.2132 76.5682 42.4648 78.8156 42.6729C78.8298 42.6729 78.8434 42.6785 78.8535 42.6886C78.8635 42.6986 78.8692 42.7122 78.8692 42.7264C78.8692 42.7406 78.8635 42.7543 78.8535 42.7643C78.8434 42.7743 78.8298 42.78 78.8156 42.78H78.8053Z" fill="#407BFF"/>
<path d="M76.5289 40.8148C76.2487 40.788 74.8397 40.6335 74.7161 40.2874C74.7055 40.2502 74.7064 40.2107 74.7185 40.174C74.7306 40.1373 74.7534 40.105 74.784 40.0814C75.2558 39.6179 76.5886 40.6767 76.638 40.7221C76.643 40.7269 76.647 40.7326 76.6497 40.739C76.6524 40.7454 76.6538 40.7522 76.6538 40.7591C76.6538 40.7661 76.6524 40.7729 76.6497 40.7793C76.647 40.7857 76.643 40.7914 76.638 40.7962C76.6281 40.8058 76.6148 40.8111 76.601 40.8111C76.5871 40.8111 76.5739 40.8058 76.5639 40.7962C76.5597 40.8017 76.5544 40.8061 76.5484 40.8093C76.5424 40.8125 76.5357 40.8144 76.5289 40.8148ZM75.1033 40.067C75.0576 40.0642 75.0119 40.0706 74.9687 40.0858C74.9255 40.101 74.8858 40.1247 74.852 40.1556C74.7964 40.2091 74.8088 40.2421 74.8108 40.2524C74.885 40.4584 75.8058 40.6294 76.4341 40.6973C76.088 40.444 75.4865 40.067 75.1033 40.067Z" fill="#407BFF"/>
<path d="M76.529 40.6973C76.5151 40.6973 76.5018 40.692 76.4918 40.6824C76.4818 40.6728 76.476 40.6597 76.4754 40.6458C76.4672 40.6458 76.4592 40.6437 76.452 40.6397C76.4448 40.6358 76.4387 40.6301 76.4342 40.6232C76.2715 40.3925 75.464 39.2286 75.6452 38.9093C75.666 38.8749 75.6971 38.848 75.7341 38.8324C75.7712 38.8169 75.8122 38.8135 75.8512 38.8227C76.5105 38.8742 76.5826 40.5758 76.5867 40.6479C76.5869 40.6549 76.5858 40.662 76.5834 40.6686C76.581 40.6752 76.5772 40.6812 76.5725 40.6864C76.5677 40.6916 76.5619 40.6957 76.5555 40.6987C76.5491 40.7016 76.5422 40.7033 76.5352 40.7035L76.529 40.6973ZM75.8183 38.9216C75.7585 38.9216 75.7441 38.9463 75.738 38.9546C75.6308 39.1462 76.1046 39.9537 76.4651 40.4728C76.4219 39.931 76.2591 38.9566 75.8471 38.9216H75.8183Z" fill="#407BFF"/>
<path d="M83.3763 63.036C81.9961 65.4606 73.7458 65.1248 73.2926 64.6057C72.8394 64.0866 74.6213 57.7521 74.6171 56.1927C74.6068 54.6415 73.0392 52.874 73.616 51.7266C73.9022 51.2383 74.2701 50.8028 74.7037 50.4391C75.0673 50.1134 75.4475 49.8067 75.8428 49.5203L75.917 49.4688C75.9891 49.4153 76.055 49.3699 76.1127 49.3308C76.2487 49.236 76.3311 49.1845 76.3311 49.1845C77.2683 48.9664 78.2207 48.819 79.18 48.7437L79.4396 48.7293C79.9948 48.6914 80.5525 48.7226 81.1 48.822C82.8654 49.1928 83.16 50.7604 83.2218 52.5114C83.2836 54.2624 84.7565 60.6134 83.3763 63.036Z" fill="#407BFF"/>
<g opacity="0.2">
<path d="M74.2362 64.8179H74.1353C74.2362 63.312 76.1767 54.9546 76.1953 54.8701L76.2962 54.8949C76.2756 54.9711 74.3392 63.3182 74.2362 64.8179Z" fill="white"/>
</g>
<g opacity="0.2">
<path d="M79.4437 48.721C79.4437 48.721 79.4437 48.7313 79.4437 48.7375C79.3613 49.0609 78.2818 49.9261 77.2889 49.8932C76.3969 49.8623 75.9314 49.5759 75.8469 49.5162L75.9211 49.4647C75.9932 49.4111 76.0591 49.3658 76.1168 49.3267C76.5935 49.4724 77.0918 49.5345 77.5897 49.51C78.2012 49.4746 78.7738 49.1983 79.1821 48.7416L79.4437 48.721Z" fill="black"/>
</g>
<path d="M77.1097 53.0244C76.9655 55.1029 75.404 55.9084 74.6171 56.1947C74.6068 54.6435 73.0392 52.8761 73.616 51.7286C73.9022 51.2404 74.2701 50.8049 74.7036 50.4411C75.7748 50.6368 77.2354 51.2404 77.1097 53.0244Z" fill="#B55B52"/>
<path d="M76.296 52.563C76.0861 53.8853 75.7909 55.1927 75.4123 56.477C75.2196 57.1481 74.985 57.8066 74.7098 58.4484C74.5543 58.8155 74.3682 59.169 74.1536 59.5052C74.0095 59.7291 73.8409 59.9364 73.651 60.1232L73.5562 60.2097L73.445 60.3003C73.3663 60.361 73.283 60.4154 73.1957 60.4631C73.1216 60.5043 73.0474 60.5413 72.9712 60.5784L72.7837 60.6505C72.7178 60.6773 72.6622 60.6938 72.6086 60.7103L72.4459 60.7576C72.3408 60.7844 72.2399 60.805 72.141 60.8277L71.8567 60.8771L71.5828 60.9163C71.2243 60.9595 70.8803 60.9863 70.5383 61.0048C69.8585 61.0399 69.1952 61.0378 68.536 61.0234C67.2156 60.9925 66.0311 61.046 64.725 60.8792L64.6323 59.4372C65.8992 59.293 67.1785 58.9943 68.4268 58.8398C69.0448 58.7594 69.6731 58.6729 70.2705 58.5658C70.5692 58.5143 70.8618 58.4566 71.1357 58.3907L71.3417 58.3392L71.5292 58.2836L71.6899 58.228L71.7558 58.2012C71.7737 58.1946 71.791 58.1863 71.8073 58.1765L71.8423 58.1559H71.83C71.83 58.1559 71.7867 58.1806 71.7805 58.1868L71.762 58.1991C71.7861 58.1496 71.8129 58.1015 71.8423 58.0549C71.9543 57.8374 72.0527 57.6131 72.1369 57.3834C72.3285 56.8642 72.4953 56.2813 72.6498 55.6942C72.9568 54.5179 73.2184 53.2716 73.4738 52.0747L76.296 52.563Z" fill="#B55B52"/>
<path d="M60.6133 60.976L62.5951 60.8792H64.7251L64.9661 59.4681C64.9661 59.4681 62.9968 59.2971 62.4138 59.4681C62.4138 59.4681 60.9306 60.1849 60.7349 60.4404C60.6781 60.5161 60.638 60.6029 60.617 60.6952C60.5961 60.7875 60.5948 60.8832 60.6133 60.976Z" fill="#B55B52"/>
<path d="M76.1292 49.3514C76.1292 49.3514 76.0529 48.9147 76.3063 48.7767C76.5597 48.6386 77.6227 47.8414 78.045 47.7899C78.4673 47.7384 78.8916 48.7519 79.1821 48.7355C79.4725 48.719 76.8481 49.5718 76.1292 49.3514Z" fill="#407BFF"/>
<path d="M92.7555 50.023C94.1624 50.6204 94.4241 51.5741 94.2448 53.01C93.769 56.8251 92.5618 65.988 91.7852 67.3723C90.7985 69.1274 76.9759 69.3087 76.2713 67.7101C75.5668 66.1116 77.7587 52.6247 78.9493 51.3496C79.9278 50.2887 88.7323 48.309 92.7555 50.023Z" fill="black"/>
<g opacity="0.6">
<path d="M92.7555 50.023C94.1624 50.6204 94.4241 51.5741 94.2448 53.01C93.769 56.8251 92.5618 65.988 91.7852 67.3723C90.7985 69.1274 76.9759 69.3087 76.2713 67.7101C75.5668 66.1116 77.7587 52.6247 78.9493 51.3496C79.9278 50.2887 88.7323 48.309 92.7555 50.023Z" fill="white"/>
</g>
<g opacity="0.5">
<path d="M77.5815 67.465L77.3755 67.4547C77.3755 67.3702 77.7875 58.8027 79.1059 53.7516C79.9175 50.6616 81.2256 50.3443 81.2792 50.334L81.3224 50.54C81.3101 50.54 80.0865 50.8552 79.3057 53.8113C77.9873 58.8418 77.5835 67.3785 77.5815 67.465Z" fill="white"/>
</g>
<path d="M76.4032 67.4588C76.4032 67.4588 75.6225 67.5824 73.6593 67.9141C73.0042 68.0253 72.3636 68.1304 71.8053 68.2189C71.2609 68.3057 70.7654 68.5839 70.4078 69.0035C70.0502 69.423 69.854 69.9563 69.8545 70.5076C69.8542 70.8121 69.914 71.1137 70.0303 71.3951C70.1467 71.6765 70.3173 71.9322 70.5325 72.1477C70.7478 72.3631 71.0033 72.534 71.2846 72.6506C71.566 72.7672 71.8675 72.8272 72.172 72.8272H88.0834C88.8679 72.8324 89.6322 72.5792 90.2585 72.1067C90.8847 71.6342 91.338 70.9688 91.5484 70.213C91.7716 69.313 91.857 68.3844 91.8017 67.4588H76.4032Z" fill="black"/>
<g opacity="0.5">
<path d="M76.4032 67.4588C76.4032 67.4588 75.6225 67.5824 73.6593 67.9141C73.0042 68.0253 72.3636 68.1304 71.8053 68.2189C71.2609 68.3057 70.7654 68.5839 70.4078 69.0035C70.0502 69.423 69.854 69.9563 69.8545 70.5076C69.8542 70.8121 69.914 71.1137 70.0303 71.3951C70.1467 71.6765 70.3173 71.9322 70.5325 72.1477C70.7478 72.3631 71.0033 72.534 71.2846 72.6506C71.566 72.7672 71.8675 72.8272 72.172 72.8272H88.0834C88.8679 72.8324 89.6322 72.5792 90.2585 72.1067C90.8847 71.6342 91.338 70.9688 91.5484 70.213C91.7716 69.313 91.857 68.3844 91.8017 67.4588H76.4032Z" fill="white"/>
</g>
<path d="M84.6412 73.0023H83.4875V89.3875H84.6412V73.0023Z" fill="black"/>
<g opacity="0.5">
<path d="M84.6412 73.0023H83.4875V89.3875H84.6412V73.0023Z" fill="white"/>
</g>
<path d="M92.1683 89.6368H93.0912V89.1692C93.0912 88.3496 92.7656 87.5637 92.1861 86.9842C91.6067 86.4047 90.8207 86.0792 90.0012 86.0792H85.1313V87.002H89.9991C90.5745 87.0031 91.1259 87.2323 91.5325 87.6393C91.9391 88.0463 92.1678 88.598 92.1683 89.1733V89.6368Z" fill="black"/>
<g opacity="0.6">
<path d="M92.1683 89.6368H93.0912V89.1692C93.0912 88.3496 92.7656 87.5637 92.1861 86.9842C91.6067 86.4047 90.8207 86.0792 90.0012 86.0792H85.1313V87.002H89.9991C90.5745 87.0031 91.1259 87.2323 91.5325 87.6393C91.9391 88.0463 92.1678 88.598 92.1683 89.1733V89.6368Z" fill="white"/>
</g>
<path d="M93.7427 91.659C94.3573 91.0443 94.3573 90.0478 93.7427 89.4332C93.1281 88.8186 92.1316 88.8186 91.5169 89.4332C90.9023 90.0478 90.9023 91.0443 91.5169 91.659C92.1316 92.2736 93.1281 92.2736 93.7427 91.659Z" fill="black"/>
<g opacity="0.4">
<path d="M93.7427 91.659C94.3573 91.0443 94.3573 90.0478 93.7427 89.4332C93.1281 88.8186 92.1316 88.8186 91.5169 89.4332C90.9023 90.0478 90.9023 91.0443 91.5169 91.659C92.1316 92.2736 93.1281 92.2736 93.7427 91.659Z" fill="white"/>
</g>
<g opacity="0.5">
<path d="M91.8367 90.5452C91.8367 90.7021 91.8832 90.8554 91.9703 90.9859C92.0575 91.1163 92.1813 91.2179 92.3263 91.278C92.4712 91.338 92.6307 91.3537 92.7845 91.3231C92.9383 91.2925 93.0797 91.217 93.1906 91.106C93.3015 90.9951 93.377 90.8538 93.4076 90.7C93.4382 90.5461 93.4225 90.3867 93.3625 90.2417C93.3025 90.0968 93.2008 89.9729 93.0704 89.8858C92.94 89.7986 92.7866 89.7521 92.6298 89.7521C92.5256 89.7521 92.4225 89.7726 92.3263 89.8125C92.23 89.8524 92.1426 89.9108 92.069 89.9844C91.9953 90.0581 91.9369 90.1455 91.897 90.2417C91.8572 90.338 91.8367 90.4411 91.8367 90.5452Z" fill="white"/>
</g>
<path d="M84.3174 92.0989C85.1753 91.9593 85.7577 91.1507 85.6181 90.2927C85.4785 89.4348 84.6699 88.8525 83.812 88.992C82.954 89.1316 82.3717 89.9402 82.5113 90.7982C82.6508 91.6561 83.4595 92.2384 84.3174 92.0989Z" fill="black"/>
<g opacity="0.4">
<path d="M84.3174 92.0989C85.1753 91.9593 85.7577 91.1507 85.6181 90.2927C85.4785 89.4348 84.6699 88.8525 83.812 88.992C82.954 89.1316 82.3717 89.9402 82.5113 90.7982C82.6508 91.6561 83.4595 92.2384 84.3174 92.0989Z" fill="white"/>
</g>
<g opacity="0.5">
<path d="M84.0643 91.3383C84.5024 91.3383 84.8574 90.9833 84.8574 90.5452C84.8574 90.1072 84.5024 89.7521 84.0643 89.7521C83.6263 89.7521 83.2712 90.1072 83.2712 90.5452C83.2712 90.9833 83.6263 91.3383 84.0643 91.3383Z" fill="white"/>
</g>
<path d="M75.157 89.6368H76.0799V89.1691C76.0804 88.5938 76.3091 88.0422 76.7157 87.6352C77.1223 87.2282 77.6737 86.999 78.249 86.9979H83.1168V86.075H78.249C77.4295 86.075 76.6436 86.4006 76.0641 86.9801C75.4846 87.5595 75.159 88.3455 75.159 89.165L75.157 89.6368Z" fill="black"/>
<g opacity="0.6">
<path d="M75.157 89.6368H76.0799V89.1691C76.0804 88.5938 76.3091 88.0422 76.7157 87.6352C77.1223 87.2282 77.6737 86.999 78.249 86.9979H83.1168V86.075H78.249C77.4295 86.075 76.6436 86.4006 76.0641 86.9801C75.4846 87.5595 75.159 88.3455 75.159 89.165L75.157 89.6368Z" fill="white"/>
</g>
<path d="M77.1523 90.9122C77.3527 90.0664 76.8295 89.2183 75.9837 89.0179C75.1379 88.8175 74.2898 89.3407 74.0894 90.1865C73.889 91.0323 74.4122 91.8804 75.258 92.0808C76.1038 92.2812 76.9519 91.758 77.1523 90.9122Z" fill="black"/>
<g opacity="0.4">
<path d="M77.1523 90.9122C77.3527 90.0664 76.8295 89.2183 75.9837 89.0179C75.1379 88.8175 74.2898 89.3407 74.0894 90.1865C73.889 91.0323 74.4122 91.8804 75.258 92.0808C76.1038 92.2812 76.9519 91.758 77.1523 90.9122Z" fill="white"/>
</g>
<g opacity="0.5">
<path d="M75.6183 91.3383C76.0563 91.3383 76.4114 90.9833 76.4114 90.5452C76.4114 90.1072 76.0563 89.7521 75.6183 89.7521C75.1803 89.7521 74.8252 90.1072 74.8252 90.5452C74.8252 90.9833 75.1803 91.3383 75.6183 91.3383Z" fill="white"/>
</g>
<path d="M85.1315 85.0883H82.9973V88.2174H85.1315V85.0883Z" fill="black"/>
<g opacity="0.6">
<path d="M85.1315 85.0883H82.9973V88.2174H85.1315V85.0883Z" fill="white"/>
</g>
<path d="M85.1315 72.8272H82.9973V75.9563H85.1315V72.8272Z" fill="black"/>
<g opacity="0.6">
<path d="M85.1315 72.8272H82.9973V75.9563H85.1315V72.8272Z" fill="white"/>
</g>
<path d="M73.7335 86.0729L74.1558 88.2153H72.409L71.4202 86.3201L73.7335 86.0729Z" fill="#B55B52"/>
<path d="M74.16 87.8569C74.2239 88.3761 72.4955 87.9455 72.3184 88.2154C72.1412 88.4852 71.9064 89.3875 71.6406 89.8428C71.3749 90.298 69.8525 91.7606 69.8525 91.7606H73.095L73.5853 91.0541L73.7459 91.7606H74.642C74.642 91.7606 74.298 88.2216 74.16 87.8569Z" fill="#263238"/>
<path d="M70.5013 87H74.6377L74.3782 85.7289H70.2417L70.5013 87Z" fill="#263238"/>
<g opacity="0.3">
<path d="M70.5013 87H74.6377L74.3782 85.7289H70.2417L70.5013 87Z" fill="white"/>
</g>
</svg>
