<svg width="31" height="32" viewBox="0 0 31 32" fill="none" xmlns="http://www.w3.org/2000/svg">
<path d="M12.4165 5.31249V5.70832H18.5832V5.31249C18.5832 4.47264 18.2583 3.66718 17.6801 3.07332C17.1018 2.47945 16.3176 2.14582 15.4998 2.14582C14.6821 2.14582 13.8978 2.47945 13.3196 3.07332C12.7414 3.66718 12.4165 4.47264 12.4165 5.31249ZM10.4894 5.70832V5.31249C10.4894 3.94773 11.0173 2.63887 11.9569 1.67384C12.8966 0.708805 14.171 0.166656 15.4998 0.166656C16.8287 0.166656 18.1031 0.708805 19.0427 1.67384C19.9824 2.63887 20.5103 3.94773 20.5103 5.31249V5.70832H29.1821C29.4377 5.70832 29.6828 5.81258 29.8635 5.99817C30.0442 6.18375 30.1457 6.43545 30.1457 6.69791C30.1457 6.96036 30.0442 7.21206 29.8635 7.39765C29.6828 7.58323 29.4377 7.68749 29.1821 7.68749H26.9336L25.3919 26.5735C25.2748 28.0077 24.6373 29.3443 23.6058 30.3186C22.5743 31.2928 21.224 31.8334 19.8227 31.8333H11.177C9.77578 31.8332 8.42573 31.2925 7.39437 30.3183C6.36302 29.3441 5.72563 28.0075 5.6085 26.5735L4.06684 7.68749H1.81755C1.562 7.68749 1.31692 7.58323 1.13622 7.39765C0.95552 7.21206 0.854004 6.96036 0.854004 6.69791C0.854004 6.43545 0.95552 6.18375 1.13622 5.99817C1.31692 5.81258 1.562 5.70832 1.81755 5.70832H10.4894ZM13.5728 13.0312C13.5728 12.9013 13.5478 12.7726 13.4994 12.6525C13.451 12.5325 13.38 12.4234 13.2905 12.3315C13.2011 12.2396 13.0948 12.1667 12.9779 12.117C12.861 12.0673 12.7357 12.0417 12.6092 12.0417C12.4827 12.0417 12.3574 12.0673 12.2405 12.117C12.1236 12.1667 12.0174 12.2396 11.9279 12.3315C11.8384 12.4234 11.7674 12.5325 11.719 12.6525C11.6706 12.7726 11.6457 12.9013 11.6457 13.0312V24.5104C11.6457 24.6404 11.6706 24.769 11.719 24.8891C11.7674 25.0092 11.8384 25.1183 11.9279 25.2101C12.0174 25.302 12.1236 25.3749 12.2405 25.4247C12.3574 25.4744 12.4827 25.5 12.6092 25.5C12.7357 25.5 12.861 25.4744 12.9779 25.4247C13.0948 25.3749 13.2011 25.302 13.2905 25.2101C13.38 25.1183 13.451 25.0092 13.4994 24.8891C13.5478 24.769 13.5728 24.6404 13.5728 24.5104V13.0312ZM18.3905 12.0417C17.8586 12.0417 17.4269 12.485 17.4269 13.0312V24.5104C17.4269 24.7729 17.5284 25.0246 17.7091 25.2101C17.8898 25.3957 18.1349 25.5 18.3905 25.5C18.646 25.5 18.8911 25.3957 19.0718 25.2101C19.2525 25.0246 19.354 24.7729 19.354 24.5104V13.0312C19.354 12.485 18.9223 12.0417 18.3905 12.0417Z" fill="#FC3737"/>
</svg>
