<svg width="31" height="30" viewBox="0 0 31 30" fill="none" xmlns="http://www.w3.org/2000/svg">
<path d="M28.1654 12.6968H27.125V12.6456H15.5V17.5852H22.7998C21.7349 20.4606 18.8732 22.5247 15.5 22.5247C11.22 22.5247 7.74998 19.2072 7.74998 15.1154C7.74998 11.0236 11.22 7.70604 15.5 7.70604C17.4756 7.70604 19.2729 8.41857 20.6415 9.58246L24.2949 6.08957C21.988 4.03409 18.9022 2.76648 15.5 2.76648C8.36675 2.76648 2.58331 8.2957 2.58331 15.1154C2.58331 21.9351 8.36675 27.4643 15.5 27.4643C22.6332 27.4643 28.4166 21.9351 28.4166 15.1154C28.4166 14.2874 28.3275 13.4792 28.1654 12.6968Z" fill="#FFC107"/>
<path d="M4.07263 9.36759L8.3164 12.3431C9.46469 9.62506 12.2457 7.70604 15.5 7.70604C17.4756 7.70604 19.273 8.41857 20.6415 9.58246L24.295 6.08957C21.9881 4.03409 18.9023 2.76648 15.5 2.76648C10.5387 2.76648 6.23617 5.44434 4.07263 9.36759Z" fill="#FF3D00"/>
<path d="M15.5 27.4642C18.8364 27.4642 21.8679 26.2436 24.16 24.2585L20.1622 21.0243C18.8218 21.9989 17.184 22.526 15.5 22.5247C12.1404 22.5247 9.28771 20.4766 8.21304 17.6185L4.00092 20.7211C6.13862 24.7203 10.4799 27.4642 15.5 27.4642Z" fill="#4CAF50"/>
<path d="M28.1654 12.6968H27.125V12.6456H15.5V17.5851H22.7999C22.2904 18.9536 21.3728 20.1495 20.1603 21.0249L20.1623 21.0237L24.16 24.2579C23.8771 24.5036 28.4167 21.2898 28.4167 15.1153C28.4167 14.2874 28.3275 13.4791 28.1654 12.6968Z" fill="#1976D2"/>
</svg>
