<svg width="82" height="82" viewBox="0 0 82 82" fill="none" xmlns="http://www.w3.org/2000/svg">
<circle cx="41" cy="41" r="41" fill="url(#paint0_linear_94_202)"/>
<g clip-path="url(#clip0_94_202)">
<path d="M61.9183 42.7153C50.6974 43.3917 41.7147 52.3709 41.0401 63.5918H40.9581C40.2818 52.3709 31.3008 43.3917 20.0816 42.7153V42.6334C31.3026 41.9553 40.2818 32.9761 40.9581 21.7551H41.0401C41.7164 32.9761 50.6974 41.9553 61.9183 42.6334V42.7153Z" fill="white"/>
</g>
<path d="M68.1376 24.6146C63.0406 25.2111 59.1771 29.5344 59.1578 34.6661L59.1205 34.6682C58.524 29.5712 54.1999 25.7093 49.069 25.6892L49.0669 25.6519C54.1638 25.0546 58.0258 20.7313 58.0459 15.5996L58.0832 15.5975C58.6797 20.6945 63.0037 24.5564 68.1355 24.5773L68.1376 24.6146Z" fill="white"/>
<defs>
<linearGradient id="paint0_linear_94_202" x1="41" y1="0" x2="41" y2="82" gradientUnits="userSpaceOnUse">
<stop stop-color="#407BFF"/>
<stop offset="0.518" stop-color="#6EBFCA"/>
<stop offset="1" stop-color="#D6E195"/>
</linearGradient>
<clipPath id="clip0_94_202">
<rect width="41.8367" height="41.8367" fill="white" transform="translate(20.0816 21.7551)"/>
</clipPath>
</defs>
</svg>
