<svg width="22" height="21" viewBox="0 0 22 21" fill="none" xmlns="http://www.w3.org/2000/svg">
<path d="M19.5 10.5H8.8125M17.25 13.875L20.625 10.5L17.25 7.125M11.625 4.875V3.75C11.625 3.15326 11.3879 2.58097 10.966 2.15901C10.544 1.73705 9.97174 1.5 9.375 1.5H3.75C3.15326 1.5 2.58097 1.73705 2.15901 2.15901C1.73705 2.58097 1.5 3.15326 1.5 3.75V17.25C1.5 17.8467 1.73705 18.419 2.15901 18.841C2.58097 19.2629 3.15326 19.5 3.75 19.5H9.375C9.97174 19.5 10.544 19.2629 10.966 18.841C11.3879 18.419 11.625 17.8467 11.625 17.25V16.125" stroke="#E25353" stroke-width="2" stroke-linecap="round" stroke-linejoin="round"/>
</svg>
