<svg width="29" height="31" viewBox="0 0 29 31" fill="none" xmlns="http://www.w3.org/2000/svg">
<path d="M10.8557 2.03517L3.35634 2.00502C3.02485 2.00369 2.70637 2.14208 2.47097 2.38975C2.23557 2.63741 2.10253 2.97407 2.10112 3.32565L2.06914 11.2796C2.06773 11.6311 2.19806 11.9689 2.43146 12.2184C2.66486 12.468 2.98222 12.6089 3.31371 12.6102L10.8131 12.6404C11.1446 12.6417 11.4631 12.5033 11.6985 12.2557C11.9339 12.008 12.0669 11.6713 12.0683 11.3198L12.1003 3.36585C12.1017 3.01426 11.9714 2.67655 11.738 2.427C11.5046 2.17745 11.1872 2.0365 10.8557 2.03517ZM10.7918 17.943L3.2924 17.9128C2.9609 17.9115 2.64242 18.0499 2.40702 18.2976C2.17162 18.5452 2.03858 18.8819 2.03717 19.2335L2.00519 27.1874C2.00378 27.539 2.13411 27.8767 2.36751 28.1262C2.60091 28.3758 2.91827 28.5167 3.24976 28.518L10.7492 28.5482C11.0807 28.5495 11.3991 28.4111 11.6345 28.1635C11.8699 27.9158 12.003 27.5791 12.0044 27.2276L12.0364 19.2737C12.0378 18.9221 11.9074 18.5844 11.674 18.3348C11.4406 18.0853 11.1233 17.9443 10.7918 17.943ZM25.8545 2.09547L18.3551 2.06532C18.0236 2.06399 17.7052 2.20237 17.4698 2.45004C17.2344 2.69771 17.1013 3.03436 17.0999 3.38595L17.0679 11.3399C17.0665 11.6914 17.1969 12.0291 17.4303 12.2787C17.6637 12.5282 17.981 12.6692 18.3125 12.6705L25.8119 12.7007C26.1434 12.702 26.4619 12.5636 26.6973 12.316C26.9327 12.0683 27.0657 11.7316 27.0671 11.38L27.0991 3.42614C27.1005 3.07456 26.9702 2.73684 26.7368 2.48729C26.5034 2.23774 26.186 2.0968 25.8545 2.09547Z" stroke="#938F8F" stroke-opacity="0.96" stroke-width="3" stroke-linejoin="round"/>
<path d="M17.0415 17.9681L27.0407 18.0083M22.0198 23.2908L27.0194 23.3109M16.9989 28.5733L26.9981 28.6135" stroke="#938F8F" stroke-opacity="0.96" stroke-width="3" stroke-linecap="round" stroke-linejoin="round"/>
</svg>
