<svg width="22" height="26" viewBox="0 0 22 26" fill="none" xmlns="http://www.w3.org/2000/svg">
<path d="M6.14328 3.28571H2.90518C2.47578 3.28571 2.06397 3.45628 1.76034 3.75991C1.45671 4.06354 1.28613 4.47536 1.28613 4.90475V22.7143C1.28613 23.1437 1.45671 23.5555 1.76034 23.8591C2.06397 24.1627 2.47578 24.3333 2.90518 24.3333H19.0957C19.5251 24.3333 19.9369 24.1627 20.2405 23.8591C20.5441 23.5555 20.7147 23.1437 20.7147 22.7143V4.90475C20.7147 4.47536 20.5441 4.06354 20.2405 3.75991C19.9369 3.45628 19.5251 3.28571 19.0957 3.28571H15.8576" stroke="#111111" stroke-width="2" stroke-linecap="round" stroke-linejoin="round"/>
<path d="M9.38156 9.76193H17.4768M9.38156 14.6191H17.4768M9.38156 19.4762H17.4768M4.52441 9.76193H6.14346M4.52441 14.6191H6.14346M4.52441 19.4762H6.14346M7.76251 1.66669H14.2387C14.6681 1.66669 15.0799 1.83726 15.3835 2.1409C15.6872 2.44453 15.8577 2.85634 15.8577 3.28573C15.8577 3.71513 15.6872 4.12694 15.3835 4.43057C15.0799 4.7342 14.6681 4.90478 14.2387 4.90478H7.76251C7.33311 4.90478 6.9213 4.7342 6.61767 4.43057C6.31404 4.12694 6.14346 3.71513 6.14346 3.28573C6.14346 2.85634 6.31404 2.44453 6.61767 2.1409C6.9213 1.83726 7.33311 1.66669 7.76251 1.66669Z" stroke="#111111" stroke-width="2" stroke-linecap="round" stroke-linejoin="round"/>
</svg>
