<svg width="35" height="35" viewBox="0 0 35 35" fill="none" xmlns="http://www.w3.org/2000/svg">
<path d="M17.4997 32.0833C16.6976 32.0833 16.0112 31.798 15.4405 31.2273C14.8698 30.6566 14.584 29.9697 14.583 29.1667H20.4163C20.4163 29.9687 20.131 30.6556 19.5603 31.2273C18.9896 31.799 18.3027 32.0843 17.4997 32.0833ZM7.29135 27.7083C6.87815 27.7083 6.53204 27.5683 6.25301 27.2883C5.97399 27.0083 5.83399 26.6622 5.83301 26.25C5.83204 25.8378 5.97204 25.4917 6.25301 25.2117C6.53399 24.9317 6.8801 24.7917 7.29135 24.7917H8.74968V14.5833C8.74968 12.566 9.35732 10.7737 10.5726 9.20645C11.7879 7.63923 13.3677 6.61208 15.3122 6.12499V5.10416C15.3122 4.49652 15.5251 3.98027 15.9509 3.55541C16.3768 3.13055 16.893 2.91763 17.4997 2.91666C18.1063 2.91569 18.6231 3.1286 19.0499 3.55541C19.4767 3.98222 19.6891 4.49847 19.6872 5.10416V5.57812C19.4441 6.06423 19.2618 6.57465 19.1403 7.10937C19.0188 7.64409 18.958 8.19097 18.958 8.74999C18.958 10.7674 19.6692 12.4872 21.0916 13.9096C22.5139 15.3319 24.2333 16.0426 26.2497 16.0417V24.7917H27.708C28.1212 24.7917 28.4678 24.9317 28.7478 25.2117C29.0278 25.4917 29.1673 25.8378 29.1663 26.25C29.1654 26.6622 29.0254 27.0088 28.7463 27.2898C28.4673 27.5708 28.1212 27.7103 27.708 27.7083H7.29135ZM26.2497 13.125C25.0344 13.125 24.0014 12.6996 23.1507 11.849C22.3 10.9983 21.8747 9.96527 21.8747 8.74999C21.8747 7.53472 22.3 6.50173 23.1507 5.65103C24.0014 4.80034 25.0344 4.37499 26.2497 4.37499C27.465 4.37499 28.4979 4.80034 29.3486 5.65103C30.1993 6.50173 30.6247 7.53472 30.6247 8.74999C30.6247 9.96527 30.1993 10.9983 29.3486 11.849C28.4979 12.6996 27.465 13.125 26.2497 13.125Z" fill="#111111"/>
</svg>
