<svg width="31" height="31" viewBox="0 0 31 31" fill="none" xmlns="http://www.w3.org/2000/svg">
<path d="M28.4243 11.3404L6.7255 0.487256C5.86916 0.0608984 4.90221 -0.0908879 3.95648 0.052592C3.01075 0.196072 2.13227 0.627836 1.4408 1.28902C0.749345 1.9502 0.278556 2.80862 0.0926285 3.74724C-0.0932994 4.68586 0.0146811 5.659 0.401848 6.53399L4.12165 14.8599C4.20605 15.0612 4.24952 15.2773 4.24952 15.4956C4.24952 15.7138 4.20605 15.9299 4.12165 16.1312L0.401848 24.4571C0.0867503 25.1652 -0.0464563 25.9409 0.0143335 26.7136C0.0751234 27.4863 0.327982 28.2316 0.749931 28.8816C1.17188 29.5317 1.74954 30.066 2.43041 30.436C3.11129 30.8059 3.87379 30.9998 4.64862 31C5.37434 30.9928 6.08925 30.8232 6.741 30.5039L28.4398 19.6507C29.2095 19.2634 29.8565 18.6698 30.3085 17.9361C30.7606 17.2024 31 16.3574 31 15.4956C31 14.6337 30.7606 13.7887 30.3085 13.055C29.8565 12.3213 29.2095 11.7277 28.4398 11.3404H28.4243ZM27.0449 16.8755L5.34608 27.7286C5.06115 27.8654 4.7412 27.9119 4.42913 27.8617C4.11706 27.8115 3.8278 27.667 3.60012 27.4477C3.37244 27.2284 3.21724 26.9447 3.15532 26.6346C3.0934 26.3246 3.12773 26.003 3.25369 25.713L6.95799 17.3871C7.00594 17.2759 7.04735 17.162 7.08199 17.046H17.7609C18.172 17.046 18.5662 16.8827 18.8569 16.5919C19.1475 16.3011 19.3108 15.9068 19.3108 15.4956C19.3108 15.0844 19.1475 14.69 18.8569 14.3992C18.5662 14.1085 18.172 13.9451 17.7609 13.9451H7.08199C7.04735 13.8291 7.00594 13.7152 6.95799 13.604L3.25369 5.27813C3.12773 4.98814 3.0934 4.66656 3.15532 4.3565C3.21724 4.04644 3.37244 3.76273 3.60012 3.54341C3.8278 3.32409 4.11706 3.17965 4.42913 3.12945C4.7412 3.07925 5.06115 3.12569 5.34608 3.26255L27.0449 14.1157C27.2988 14.2458 27.5118 14.4434 27.6606 14.6869C27.8094 14.9304 27.8881 15.2102 27.8881 15.4956C27.8881 15.7809 27.8094 16.0607 27.6606 16.3042C27.5118 16.5477 27.2988 16.7453 27.0449 16.8755Z" fill="#407BFF"/>
</svg>
