<svg width="29" height="29" viewBox="0 0 29 29" fill="none" xmlns="http://www.w3.org/2000/svg">
<path d="M18.1248 6.34375C19.1664 6.34375 20.1652 5.93001 20.9017 5.19354C21.6382 4.45707 22.0519 3.4582 22.0519 2.41667H23.8644C23.8644 3.4582 24.2782 4.45707 25.0146 5.19354C25.7511 5.93001 26.75 6.34375 27.7915 6.34375V8.15625C26.75 8.15625 25.7511 8.57 25.0146 9.30647C24.2782 10.0429 23.8644 11.0418 23.8644 12.0833H22.0519C22.0519 11.0418 21.6382 10.0429 20.9017 9.30647C20.1652 8.57 19.1664 8.15625 18.1248 8.15625V6.34375ZM4.83317 8.45834C4.83317 7.8174 5.08778 7.20271 5.541 6.7495C5.99421 6.29628 6.6089 6.04167 7.24984 6.04167H15.7082V3.62501H7.24984C5.96796 3.62501 4.73858 4.13423 3.83215 5.04066C2.92573 5.94708 2.4165 7.17646 2.4165 8.45834V20.5417C2.4165 21.8236 2.92573 23.0529 3.83215 23.9594C4.73858 24.8658 5.96796 25.375 7.24984 25.375H21.7498C23.0317 25.375 24.2611 24.8658 25.1675 23.9594C26.0739 23.0529 26.5832 21.8236 26.5832 20.5417V14.5H24.1665V20.5417C24.1665 21.1826 23.9119 21.7973 23.4587 22.2505C23.0055 22.7037 22.3908 22.9583 21.7498 22.9583H7.24984C6.6089 22.9583 5.99421 22.7037 5.541 22.2505C5.08778 21.7973 4.83317 21.1826 4.83317 20.5417V8.45834Z" fill="#37474F"/>
</svg>
