<svg width="37" height="37" viewBox="0 0 37 37" fill="none" xmlns="http://www.w3.org/2000/svg">
<path d="M26.2085 4.62502H32.3752C32.784 4.62502 33.1762 4.78745 33.4653 5.07656C33.7544 5.36568 33.9168 5.75781 33.9168 6.16669V30.8334C33.9168 31.2422 33.7544 31.6344 33.4653 31.9235C33.1762 32.2126 32.784 32.375 32.3752 32.375H4.62516C4.21629 32.375 3.82416 32.2126 3.53504 31.9235C3.24592 31.6344 3.0835 31.2422 3.0835 30.8334V6.16669C3.0835 5.75781 3.24592 5.36568 3.53504 5.07656C3.82416 4.78745 4.21629 4.62502 4.62516 4.62502H10.7918V1.54169H13.8752V4.62502H23.1252V1.54169H26.2085V4.62502ZM6.16683 13.875V29.2917H30.8335V13.875H6.16683ZM9.25016 16.9584H12.3335V20.0417H9.25016V16.9584ZM9.25016 23.125H12.3335V26.2084H9.25016V23.125ZM15.4168 16.9584H27.7502V20.0417H15.4168V16.9584ZM15.4168 23.125H23.1252V26.2084H15.4168V23.125Z" fill="#938F8F"/>
</svg>
