<svg width="34" height="27" viewBox="0 0 34 27" fill="none" xmlns="http://www.w3.org/2000/svg">
<path d="M6.8 6.75C6.34913 6.75 5.91673 6.92779 5.59792 7.24426C5.27911 7.56073 5.1 7.98995 5.1 8.4375C5.1 8.88505 5.27911 9.31427 5.59792 9.63074C5.91673 9.94721 6.34913 10.125 6.8 10.125H13.6C14.0509 10.125 14.4833 9.94721 14.8021 9.63074C15.1209 9.31427 15.3 8.88505 15.3 8.4375C15.3 7.98995 15.1209 7.56073 14.8021 7.24426C14.4833 6.92779 14.0509 6.75 13.6 6.75H6.8ZM15.3 13.5C15.3 13.0524 15.4791 12.6232 15.7979 12.3068C16.1167 11.9903 16.5491 11.8125 17 11.8125H23.8C24.2509 11.8125 24.6833 11.9903 25.0021 12.3068C25.3209 12.6232 25.5 13.0524 25.5 13.5C25.5 13.9476 25.3209 14.3768 25.0021 14.6932C24.6833 15.0097 24.2509 15.1875 23.8 15.1875H17C16.5491 15.1875 16.1167 15.0097 15.7979 14.6932C15.4791 14.3768 15.3 13.9476 15.3 13.5ZM22.1 16.875C21.6491 16.875 21.2167 17.0528 20.8979 17.3693C20.5791 17.6857 20.4 18.1149 20.4 18.5625C20.4 19.0101 20.5791 19.4393 20.8979 19.7557C21.2167 20.0722 21.6491 20.25 22.1 20.25H27.2C27.6509 20.25 28.0833 20.0722 28.4021 19.7557C28.7209 19.4393 28.9 19.0101 28.9 18.5625C28.9 18.1149 28.7209 17.6857 28.4021 17.3693C28.0833 17.0528 27.6509 16.875 27.2 16.875H22.1ZM5.525 0C4.05968 0 2.65437 0.577816 1.61823 1.60634C0.582096 2.63486 0 4.02983 0 5.48438V21.5156C0 22.9702 0.582096 24.3651 1.61823 25.3937C2.65437 26.4222 4.05968 27 5.525 27H28.475C29.2006 27 29.919 26.8581 30.5893 26.5825C31.2597 26.3069 31.8687 25.9029 32.3818 25.3937C32.8948 24.8844 33.3018 24.2798 33.5794 23.6144C33.8571 22.949 34 22.2358 34 21.5156V5.48438C34 4.76416 33.8571 4.05099 33.5794 3.3856C33.3018 2.7202 32.8948 2.11561 32.3818 1.60634C31.8687 1.09706 31.2597 0.693089 30.5893 0.417473C29.919 0.141858 29.2006 0 28.475 0H5.525ZM10.2 2.53125V5.0625H12.75V2.53125H21.25V10.125H23.8V2.53125H28.475C30.1172 2.53125 31.45 3.85425 31.45 5.48438V21.5156C31.45 22.2988 31.1366 23.05 30.5786 23.6038C30.0207 24.1576 29.264 24.4688 28.475 24.4688H23.8V21.9375H22.1C21.8053 21.9375 21.522 21.9021 21.25 21.8312V24.4688H12.75V11.8125H10.2V24.4688H5.525C4.73598 24.4688 3.97928 24.1576 3.42136 23.6038C2.86344 23.05 2.55 22.2988 2.55 21.5156V5.48438C2.55 3.85425 3.8828 2.53125 5.525 2.53125H10.2Z" fill="#938F8F"/>
</svg>
